<svg width="18" height="18" viewBox="0 0 18 18" fill="none" xmlns="http://www.w3.org/2000/svg">
  <g clip-path="url(#clip0_2324_6132)">
    <path d="M9 18C13.9706 18 18 13.9706 18 9C18 4.02944 13.9706 0 9 0C4.02944 0 0 4.02944 0 9C0 13.9706 4.02944 18 9 18Z" fill="#575B75" />
    <path d="M8.9998 10H4.7998C4.1998 10 3.7998 9.6 3.7998 9C3.7998 8.4 4.1998 8 4.7998 8H7.9998V3C7.9998 2.4 8.3998 2 8.9998 2C9.5998 2 9.9998 2.4 9.9998 3V9C9.9998 9.6 9.5998 10 8.9998 10Z" fill="white" />
  </g>
  <defs>
    <clipPath id="clip0_2324_6132">
      <rect width="18" height="18" fill="white" />
    </clipPath>
  </defs>
</svg>