<svg width="17.000000" height="14.000000" viewBox="0 0 17 14" fill="none" xmlns="http://www.w3.org/2000/svg" xmlns:xlink="http://www.w3.org/1999/xlink">
	<path id="Vector" d="M8.68 6.42L17 3.14L17 2.56C17 1.15 15.87 0 14.5 0L2.5 0C1.12 0 0 1.15 0 2.56L0 3.14L8.68 6.42Z" fill="#575B75" fill-opacity="1.000000" fill-rule="nonzero"/>
	<path id="Vector" d="M9 8.34C8.87 8.41 8.75 8.41 8.68 8.41C8.56 8.41 8.5 8.41 8.37 8.34L0 5.2L0 11.43C0 12.84 1.12 14 2.5 14L14.5 14C15.87 14 17 12.84 17 11.43L17 5.26L9 8.34Z" fill="#575B75" fill-opacity="1.000000" fill-rule="nonzero"/>
</svg>
