<svg width="100.000000" height="100.000000" viewBox="0 0 100 100" fill="none" xmlns="http://www.w3.org/2000/svg" xmlns:xlink="http://www.w3.org/1999/xlink">
	<desc>
			Created with Pixso.
	</desc>
	<defs/>
	<circle id="Ellipse 2" cx="50.000000" cy="50.000000" r="50.000000" fill="#E3EF41" fill-opacity="1.000000"/>
	<circle id="Ellipse 2" cx="50.000000" cy="50.000000" r="48.000000" stroke="#F7F7FA" stroke-opacity="1.000000" stroke-width="4.000000"/>
	<path id="Vector" d="M51.01 52.51L50.9 52.51L48.66 43L44.7 43L42.35 52.62L42.24 52.62L40.1 43L36.04 43L40 57.22L44.06 57.22L46.52 48.34L46.73 48.34L49.19 57.22L53.36 57.22L57.21 43L53.26 43L51.01 52.51Z" fill="#091757" fill-opacity="1.000000" fill-rule="evenodd"/>
	<path id="Vector" d="M75.5 43C74.43 43 73.58 43.21 72.83 43.74C72.08 44.28 71.55 44.92 71.23 45.67L71.12 45.67C70.9 44.81 70.48 44.17 69.73 43.74C69.09 43.21 68.23 43 67.27 43C66.31 43 65.45 43.21 64.81 43.74C64.17 44.17 63.63 44.92 63.31 45.67L63.1 45.67L63.1 43.1L59.35 43.1L59.35 57.33L63.31 57.33L63.31 48.77C63.31 48.24 63.42 47.81 63.63 47.38C63.85 46.95 64.06 46.63 64.49 46.42C64.81 46.2 65.24 46.1 65.66 46.1C66.31 46.1 66.84 46.31 67.27 46.74C67.7 47.17 67.91 47.7 67.91 48.45L67.91 57.33L71.76 57.33L71.76 48.66C71.76 47.91 71.97 47.27 72.4 46.84C72.83 46.42 73.36 46.2 74.11 46.2C74.75 46.2 75.29 46.42 75.72 46.84C76.14 47.27 76.36 47.81 76.36 48.66L76.36 57.43L80.32 57.43L80.32 47.81C80.32 46.31 79.89 45.03 79.03 44.28C77.96 43.42 76.89 43 75.5 43Z" fill="#091757" fill-opacity="1.000000" fill-rule="evenodd"/>
	<path id="Vector" d="M29.94 45.56L29.83 45.56C29.62 45.13 29.41 44.81 29.09 44.39C28.77 43.96 28.34 43.64 27.8 43.32C27.27 43.1 26.52 43 25.77 43C24.7 43 23.74 43.32 22.88 43.85C22.03 44.39 21.28 45.24 20.74 46.31C20.21 47.27 20 48.66 20 50.27C20 51.87 20.21 53.16 20.74 54.12C21.28 55.19 21.92 55.94 22.78 56.36C23.63 56.9 24.59 57.11 25.66 57.11C26.41 57.11 27.05 57 27.59 56.79C28.12 56.58 28.55 56.26 28.87 55.94C29.19 55.62 29.51 55.19 29.62 54.87L29.83 54.87L29.83 57.43C29.83 58.4 29.51 59.15 28.98 59.57C28.44 60 27.7 60.21 26.84 60.21C26.31 60.21 25.77 60.11 25.34 60C24.91 59.89 24.59 59.68 24.38 59.36C24.17 59.15 23.95 58.82 23.85 58.61L20.21 59.15C20.42 59.89 20.74 60.54 21.28 61.18C21.81 61.82 22.56 62.25 23.42 62.57C24.59 62.78 25.66 63 26.95 63C28.34 63 29.51 62.78 30.58 62.35C31.65 61.92 32.4 61.28 33.04 60.54C33.68 59.68 33.9 58.72 33.9 57.54L33.9 43.1L29.94 43.1L29.94 45.56ZM29.62 52.41C29.41 53.05 29.09 53.48 28.55 53.8C28.12 54.12 27.59 54.23 26.95 54.23C26.31 54.23 25.77 54.01 25.34 53.69C24.91 53.37 24.59 52.94 24.38 52.3C24.17 51.66 24.06 51.02 24.06 50.16C24.06 49.31 24.17 48.66 24.38 48.02C24.59 47.49 24.91 46.95 25.34 46.63C25.77 46.31 26.41 46.1 27.05 46.1C27.7 46.1 28.23 46.31 28.66 46.63C29.09 46.95 29.41 47.38 29.62 48.02C29.83 48.66 29.94 49.41 29.94 50.16C30.05 51.02 29.83 51.76 29.62 52.41Z" fill="#091757" fill-opacity="1.000000" fill-rule="evenodd"/>
</svg>
