<svg width="33" height="31" viewBox="0 0 33 31" fill="none" xmlns="http://www.w3.org/2000/svg">
  <path d="M16.1047 0C8.70474 0 2.70474 6 2.70474 13.3C2.70474 20.6 8.70474 26.6 16.0047 26.6C23.3047 26.6 29.3047 20.6 29.3047 13.3C29.3047 6 23.4047 0 16.1047 0ZM16.1047 24.7C9.80474 24.7 4.80474 19.6 4.80474 13.4C4.80474 7.2 9.80474 2 16.1047 2C22.4047 2 27.4047 7.1 27.4047 13.3C27.4047 19.5 22.3047 24.7 16.1047 24.7Z" fill="#091757" />
  <path d="M21.8047 15.7C21.3047 15.4 20.7047 15.6 20.4047 16C19.4047 17.6 17.8047 18.5 16.0047 18.5C14.2047 18.5 12.5047 17.6 11.6047 16C11.3047 15.5 10.7047 15.4 10.2047 15.7C9.80474 16 9.60474 16.6 9.90474 17.1C11.2047 19.3 13.5047 20.5 16.0047 20.5C18.5047 20.5 20.8047 19.2 22.1047 17.1C22.5047 16.6 22.3047 16 21.8047 15.7Z" fill="#091757" />
  <path d="M11.8047 11.6C12.8047 11.6 13.7047 10.8 13.7047 9.7C13.7047 8.6 12.9047 7.8 11.8047 7.8C10.7047 7.8 9.90474 8.7 9.90474 9.7C9.90474 10.7 10.8047 11.6 11.8047 11.6Z" fill="#091757" />
  <path d="M20.3047 11.6C21.3047 11.6 22.2047 10.8 22.2047 9.7C22.2047 8.6 21.4047 7.8 20.3047 7.8C19.2047 7.8 18.4047 8.6 18.4047 9.7C18.4047 10.8 19.3047 11.6 20.3047 11.6Z" fill="#091757" />
  <path d="M32.0047 28.8C30.8047 27.3 29.5047 26.1 28.0047 25C27.6047 24.7 26.9047 24.8 26.6047 25.2C26.3047 25.6 26.4047 26.3 26.8047 26.6C28.2047 27.6 29.4047 28.7 30.4047 30.1C30.6047 30.3 30.9047 30.5 31.2047 30.5C31.4047 30.5 31.6047 30.4 31.8047 30.3C32.3047 29.9 32.3047 29.2 32.0047 28.8Z" fill="#091757" />
  <path d="M4.20474 25C2.70474 26.1 1.30474 27.4 0.204738 28.8C-0.0952625 29.2 -0.0952625 29.9 0.404738 30.2C0.604738 30.3 0.804738 30.4 1.00474 30.4C1.30474 30.4 1.60474 30.3 1.80474 30C2.90474 28.7 4.10474 27.5 5.40474 26.5C5.80474 26.2 6.00474 25.6 5.60474 25.1C5.20474 24.8 4.60474 24.7 4.20474 25Z" fill="#091757" />
</svg>