<svg width="24.000000" height="24.000000" viewBox="0 0 24 24" fill="none" xmlns="http://www.w3.org/2000/svg" xmlns:xlink="http://www.w3.org/1999/xlink">
	<defs/>
	<path id="Vector" d="M20.68 18.72L18.68 18.72L18.68 24L16.68 22.16L12.92 18.72L2.33 18.72C1.08 18.72 0 17.59 0 16.32L0 2.4C0 1.11 1.08 0 2.33 0L21.64 0C22.89 0 23.98 1.11 23.98 2.4L23.98 16.32C24.14 17.75 23.05 18.72 21.64 18.72L20.68 18.72ZM17.27 17.3C16.88 17.69 16.68 18.16 16.68 18.72L16.68 19.45L14.27 17.24C14.09 17.07 13.88 16.94 13.65 16.85C13.41 16.76 13.17 16.72 12.92 16.72L2.33 16.72C2.24 16.72 2.16 16.69 2.11 16.65C2.03 16.58 2 16.47 2 16.32L2 2.4C2 2.24 2.03 2.13 2.11 2.06C2.16 2.02 2.24 2 2.33 2L21.64 2C21.74 2 21.81 2.02 21.86 2.06C21.94 2.13 21.98 2.24 21.98 2.4L21.98 16.32C21.98 16.35 21.98 16.39 21.98 16.42C21.99 16.46 21.99 16.5 21.99 16.53C22 16.59 22 16.62 22 16.63C21.94 16.69 21.82 16.72 21.64 16.72L18.68 16.72C18.13 16.72 17.66 16.91 17.27 17.3Z" fill="#091757" fill-opacity="1.000000" fill-rule="evenodd"/>
</svg>
