<svg width="358" height="156" viewBox="0 0 358 156" fill="none" xmlns="http://www.w3.org/2000/svg">
  <g clip-path="url(#clip0_41_2003)">
    <path d="M140 68.1997C140.7 68.1997 141.3 67.9997 141.8 67.4997C142.3 66.9997 142.5 66.3997 142.5 65.6997C142.5 65.2997 142.4 64.9997 142.3 64.6997C142.2 64.3997 142 64.0997 141.8 63.8997C141.6 63.6997 141.3 63.4997 141 63.3997C140.7 63.2997 140.4 63.1997 140 63.1997C139.6 63.1997 139.3 63.2997 139 63.3997C138.7 63.4997 138.4 63.6997 138.2 63.8997C138 64.0997 137.8 64.3997 137.7 64.6997C137.6 64.9997 137.5 65.2997 137.5 65.6997C137.5 66.3997 137.7 66.9997 138.2 67.4997C138.6 67.9997 139.2 68.1997 140 68.1997ZM139.3 64.9997C139.5 64.7997 139.7 64.6997 140 64.6997C140.3 64.6997 140.5 64.7997 140.7 64.9997C140.9 65.1997 141 65.3997 141 65.6997C141 65.9997 140.9 66.1997 140.7 66.3997C140.5 66.5997 140.3 66.6997 140 66.6997C139.7 66.6997 139.5 66.5997 139.3 66.3997C139.1 66.1997 139 65.9997 139 65.6997C139 65.3997 139.1 65.1997 139.3 64.9997Z" fill="#091757" />
    <path d="M167.4 68.1997C168.1 68.1997 168.7 67.9997 169.2 67.4997C169.7 66.9997 169.9 66.3997 169.9 65.6997C169.9 65.2997 169.8 64.9997 169.7 64.6997C169.6 64.3997 169.4 64.0997 169.2 63.8997C169 63.6997 168.7 63.4997 168.4 63.3997C168.1 63.2997 167.8 63.1997 167.4 63.1997C167 63.1997 166.7 63.2997 166.4 63.3997C166.1 63.4997 165.8 63.6997 165.6 63.8997C165.4 64.0997 165.2 64.3997 165.1 64.6997C165 64.9997 164.9 65.2997 164.9 65.6997C164.9 66.3997 165.1 66.9997 165.6 67.4997C166.1 67.9997 166.7 68.1997 167.4 68.1997ZM166.8 64.9997C167 64.7997 167.2 64.6997 167.5 64.6997C167.8 64.6997 168 64.7997 168.2 64.9997C168.4 65.1997 168.5 65.3997 168.5 65.6997C168.5 65.9997 168.4 66.1997 168.2 66.3997C168 66.5997 167.8 66.6997 167.5 66.6997C167.2 66.6997 167 66.5997 166.8 66.3997C166.6 66.1997 166.5 65.9997 166.5 65.6997C166.5 65.3997 166.6 65.1997 166.8 64.9997Z" fill="#091757" />
    <path d="M204.8 78.6997C204.6 78.4997 204.3 78.2997 204 78.2997C203.8 78.2997 203.6 78.3997 203.4 78.4997C203.2 78.5997 203.1 78.7997 203 78.9997C202.8 79.4997 202.5 80.0997 202.1 80.8997C201.7 81.6997 201.2 82.4997 200.6 83.1997C200 83.9997 199.4 84.5997 198.7 85.1997C198 85.7997 197.3 85.9997 196.6 85.9997C196.2 85.9997 195.9 85.8997 195.6 85.6997C195.4 85.4997 195.2 85.2997 195 84.9997C194.9 84.6997 194.8 84.2997 194.7 83.8997C194.7 83.4997 194.6 83.0997 194.6 82.5997C194.6 82.1997 194.6 81.8997 194.6 81.4997C194.6 81.0997 194.7 80.6997 194.7 80.2997C194.7 79.8997 194.8 79.4997 194.8 79.1997C194.8 78.8997 194.8 78.5997 194.8 78.2997C194.8 77.2997 194.6 76.3997 194.1 75.6997C193.6 74.9997 192.9 74.5997 191.9 74.5997C191.4 74.5997 190.9 74.6997 190.3 74.9997C189.7 75.2997 189.2 75.7997 188.7 76.3997C188.2 77.0997 187.6 77.7997 187.1 78.4997C186.6 79.2997 186.1 79.9997 185.7 80.7997C185.3 81.5997 184.8 82.2997 184.4 82.9997C184 83.6997 183.7 84.3997 183.4 84.9997C183.5 84.4997 183.5 83.7997 183.6 82.9997C183.7 82.1997 183.7 81.3997 183.8 80.5997C183.9 79.7997 183.9 78.9997 184 78.2997C184 77.5997 184.1 77.0997 184.1 76.6997C184.1 76.2997 184.1 75.7997 184 75.3997C183.9 74.9997 183.8 74.5997 183.6 74.1997C183.4 73.7997 183.2 73.5997 182.9 73.2997C182.6 73.0997 182.2 72.9997 181.8 72.9997C181.1 72.9997 180.3 73.4997 179.6 74.3997C178.9 75.2997 178.1 76.7997 177.2 78.7997V78.8997C176.6 79.9997 176.1 80.9997 175.5 81.8997C174.9 82.7997 174.3 83.6997 173.7 84.2997C173.1 84.9997 172.5 85.4997 172 85.8997C171.4 86.2997 170.9 86.4997 170.4 86.4997C170.1 86.4997 169.7 86.3997 169.4 86.2997C169.1 86.1997 168.7 85.9997 168.4 85.5997C168.1 85.2997 167.8 84.7997 167.6 84.1997C167.4 83.5997 167.3 82.7997 167.3 81.7997C167.3 81.0997 167.3 80.2997 167.4 79.3997C167.4 78.4997 167.5 77.6997 167.6 76.8997C167.7 76.0997 167.7 75.4997 167.8 74.8997C167.8 74.2997 167.9 73.9997 167.9 73.8997C167.9 73.5997 167.8 73.3997 167.6 73.1997C167.4 72.9997 167.2 72.8997 166.9 72.8997C166.6 72.8997 166.3 72.9997 166.1 73.1997C165.9 73.3997 165.8 73.5997 165.7 73.8997C165.5 75.4997 165.4 77.0997 165.3 78.6997C165 79.2997 164.7 79.8997 164.4 80.2997C164.1 80.7997 163.7 81.1997 163.3 81.4997C162.9 81.7997 162.4 81.9997 161.9 82.1997C161.4 82.3997 160.8 82.3997 160.2 82.3997C160.1 82.3997 159.9 82.3997 159.8 82.3997C159.7 82.3997 159.6 82.3997 159.5 82.3997C159.6 81.6997 159.7 81.0997 159.7 80.4997C159.7 79.3997 159.6 78.3997 159.4 77.4997C159.2 76.6997 158.9 75.9997 158.6 75.4997C158.3 74.9997 157.9 74.5997 157.4 74.2997C157 74.0997 156.5 73.8997 156 73.8997C155.2 73.8997 154.5 74.1997 154 74.8997C153.5 75.5997 153.2 76.3997 153.2 77.4997C153.2 78.7997 153.6 79.9997 154.3 81.0997C155 82.1997 155.9 82.9997 157 83.5997C156.6 84.3997 156.1 84.9997 155.4 85.4997C154.7 85.9997 153.8 86.1997 152.7 86.1997C152.1 86.1997 151.6 86.0997 151.1 85.8997C150.6 85.6997 150.2 85.3997 149.8 84.9997C149.4 84.5997 149.2 84.1997 149 83.5997C148.8 83.0997 148.7 82.4997 148.7 81.8997C148.7 81.1997 148.8 80.5997 149 79.9997C149.2 79.3997 149.4 78.9997 149.7 78.4997C150 78.0997 150.3 77.6997 150.6 77.4997C150.9 77.1997 151.3 76.9997 151.6 76.8997C151.9 76.6997 152.1 76.5997 152.3 76.3997C152.5 76.1997 152.6 75.9997 152.6 75.6997C152.6 75.3997 152.5 75.1997 152.4 74.9997C152.2 74.7997 152 74.6997 151.7 74.6997C151.4 74.6997 151 74.7997 150.4 75.0997C149.8 75.3997 149.3 75.7997 148.7 76.3997C148.2 76.8997 147.8 77.4997 147.4 78.1997C147.2 78.2997 147.1 78.4997 147 78.6997C146.7 79.3997 146.2 80.1997 145.7 80.9997C145.2 81.7997 144.5 82.5997 143.8 83.4997C143.1 84.2997 142.4 85.1997 141.7 85.9997C141 86.7997 140.3 87.5997 139.6 88.3997C139.6 85.9997 139.6 83.8997 139.7 82.0997C139.8 80.2997 139.8 78.7997 139.9 77.5997C140 76.3997 140 75.4997 140.1 74.8997C140.2 74.2997 140.2 73.8997 140.2 73.7997C140.2 73.4997 140.1 73.1997 139.9 72.9997C139.7 72.7997 139.5 72.6997 139.2 72.6997C138.9 72.6997 138.7 72.7997 138.5 72.9997C138.3 73.1997 138.2 73.3997 138.1 73.6997C138 74.6997 137.9 75.7997 137.8 77.0997C137.7 78.3997 137.6 79.7997 137.6 81.1997C137.6 82.6997 137.5 84.1997 137.5 85.7997C137.5 87.3997 137.5 88.9997 137.5 90.5997C136 92.2997 134.7 93.8997 133.6 95.5997C132.5 97.1997 131.6 98.7997 130.9 100.4C130.2 101.9 129.7 103.4 129.4 104.8C129.1 106.2 128.9 107.4 128.9 108.6C128.9 109.6 129 110.6 129.3 111.4C129.5 112.2 129.9 112.9 130.3 113.5C130.7 114.1 131.2 114.5 131.8 114.8C132.4 115.1 133 115.2 133.7 115.2C135.7 115.2 137.2 114 138.2 111.5C139.2 109 139.7 105.2 139.7 99.9997C139.7 98.6997 139.7 97.2997 139.7 95.8997C139.7 94.4997 139.6 92.9997 139.6 91.4997C140.3 90.6997 141.2 89.6997 142.1 88.7997C143 87.7997 143.9 86.7997 144.8 85.7997C145.5 84.9997 146.1 84.1997 146.7 83.3997C146.8 83.7997 146.9 84.0997 147 84.4997C147.3 85.2997 147.7 85.8997 148.3 86.4997C148.8 87.0997 149.5 87.4997 150.2 87.7997C150.9 88.0997 151.7 88.2997 152.6 88.2997C153.3 88.2997 154 88.1997 154.7 87.9997C155.3 87.7997 155.9 87.4997 156.4 87.1997C156.9 86.7997 157.4 86.3997 157.8 85.8997C158.2 85.3997 158.5 84.8997 158.8 84.2997C159.2 84.3997 159.6 84.3997 160 84.3997C160.9 84.3997 161.7 84.2997 162.4 84.0997C163.1 83.8997 163.8 83.5997 164.3 83.1997C164.7 82.9997 165 82.6997 165.3 82.3997C165.3 83.1997 165.4 83.8997 165.6 84.5997C165.8 85.3997 166.1 86.0997 166.6 86.6997C167 87.2997 167.6 87.7997 168.2 88.0997C168.8 88.4997 169.6 88.5997 170.4 88.5997C171.1 88.5997 171.7 88.3997 172.3 88.0997C172.9 87.7997 173.5 87.3997 174.1 86.7997C174.7 86.2997 175.2 85.6997 175.7 85.0997C176.2 84.4997 176.7 83.7997 177.1 83.0997C177.5 82.3997 177.9 81.7997 178.3 81.1997C178.7 80.5997 178.9 80.0997 179.1 79.5997C179.8 77.9997 180.3 76.7997 180.8 76.1997C181.3 75.5997 181.5 75.1997 181.7 75.0997C181.8 75.1997 181.9 75.4997 181.9 75.8997C181.9 76.2997 182 76.7997 182 77.1997C182 77.5997 182 77.9997 181.9 78.4997C181.9 78.9997 181.8 79.5997 181.8 80.1997C181.7 80.7997 181.7 81.3997 181.6 81.9997C181.5 82.5997 181.5 83.1997 181.4 83.6997C181.3 84.1997 181.3 84.6997 181.3 85.0997C181.3 85.4997 181.2 85.6997 181.2 85.8997C181.2 86.4997 181.4 86.9997 181.7 87.2997C182 87.5997 182.5 87.7997 183 87.7997C183.4 87.7997 183.8 87.6997 184.2 87.3997C184.6 87.0997 184.9 86.5997 185.3 85.7997C185.5 85.3997 185.7 84.8997 186.1 84.1997C186.4 83.5997 186.8 82.8997 187.2 82.1997C187.6 81.4997 188 80.7997 188.4 80.0997C188.8 79.3997 189.3 78.7997 189.7 78.1997C190.1 77.5997 190.5 77.1997 190.9 76.7997C191.3 76.4997 191.6 76.2997 191.9 76.2997C192 76.2997 192.2 76.3997 192.4 76.5997C192.6 76.7997 192.7 77.1997 192.7 77.7997C192.7 78.1997 192.7 78.4997 192.7 78.8997C192.7 79.2997 192.6 79.6997 192.6 80.0997C192.6 80.4997 192.5 80.8997 192.5 81.1997C192.5 81.5997 192.5 81.8997 192.5 82.1997C192.5 82.8997 192.6 83.4997 192.7 84.1997C192.8 84.7997 193 85.3997 193.3 85.9997C193.6 86.4997 194 86.9997 194.5 87.2997C195 87.5997 195.7 87.7997 196.6 87.7997C197.3 87.7997 198.1 87.5997 198.8 87.1997C199.5 86.7997 200.1 86.3997 200.7 85.7997C201.3 85.1997 201.8 84.5997 202.3 83.8997C202.8 83.1997 203.2 82.5997 203.6 81.9997C204 81.3997 204.3 80.8997 204.5 80.3997C204.7 79.8997 204.9 79.5997 204.9 79.4997C205 79.3997 205 79.1997 205 79.0997C205.1 79.1997 205 78.9997 204.8 78.6997ZM137.6 105.4C137.5 106.8 137.3 108.1 137.1 109C136.9 110 136.6 110.8 136.3 111.3C136 111.9 135.7 112.3 135.4 112.6C135.1 112.9 134.8 113.1 134.5 113.2C134.2 113.3 134 113.3 133.8 113.3C133.3 113.3 132.8 113.2 132.5 112.9C132.2 112.6 131.9 112.3 131.7 111.8C131.5 111.4 131.4 110.9 131.3 110.3C131.2 109.8 131.2 109.2 131.2 108.7C131.2 107.8 131.3 106.8 131.6 105.6C131.8 104.5 132.2 103.3 132.7 102C133.2 100.7 133.9 99.3997 134.7 98.0997C135.5 96.6997 136.5 95.2997 137.7 93.8997C137.7 94.9997 137.7 96.0997 137.8 96.9997C137.8 97.9997 137.8 98.8997 137.8 99.8997C137.8 102.2 137.8 103.9 137.6 105.4ZM157.7 81.7997C157.3 81.5997 157 81.2997 156.7 80.8997C156.4 80.5997 156.2 80.1997 156 79.7997C155.8 79.3997 155.7 78.9997 155.6 78.5997C155.5 78.1997 155.5 77.7997 155.5 77.4997C155.5 76.8997 155.6 76.5997 155.8 76.3997C156 76.1997 156.1 76.0997 156.2 76.0997C156.5 76.0997 156.7 76.1997 156.9 76.4997C157.1 76.7997 157.3 77.0997 157.4 77.5997C157.5 77.9997 157.6 78.4997 157.7 78.9997C157.8 79.4997 157.8 79.9997 157.8 80.4997C157.8 80.9997 157.8 81.3997 157.7 81.7997Z" fill="#091757" />
    <path d="M267.7 53.8999C274.3 53.8999 279.7 59.2999 279.7 65.8999V90.3999C279.7 96.9999 274.3 102.4 267.7 102.4H66.6C60 102.4 54.6 96.9999 54.6 90.3999V65.8999C54.6 59.2999 60 53.8999 66.6 53.8999H267.7ZM267.7 51.8999H66.6C58.9 51.8999 52.6 58.1999 52.6 65.8999V90.3999C52.6 98.0999 58.9 104.4 66.6 104.4H267.7C275.4 104.4 281.7 98.0999 281.7 90.3999V65.8999C281.7 58.0999 275.4 51.8999 267.7 51.8999Z" fill="#091757" />
    <path d="M235.5 109.3L213.8 93.2001C213.3 92.8001 212.6 93.2001 212.6 93.8001L214.1 120.8C214.1 121.5 215 121.7 215.4 121.2L220.5 114.4C220.8 114 221.5 114 221.7 114.5L227.2 126.4C227.4 126.8 227.8 126.9 228.2 126.7L232.7 124.3C233.1 124.1 233.2 123.6 233 123.3L226 112.2C225.7 111.7 226 111.1 226.6 111.1L235.1 110.6C235.8 110.6 236.1 109.7 235.5 109.3Z" fill="#E3EF41" />
    <path fill-rule="evenodd" clip-rule="evenodd" d="M228.8 26.7002C222.117 26.7002 216.7 32.1175 216.7 38.8002C216.7 45.4828 222.117 50.9002 228.8 50.9002C235.483 50.9002 240.9 45.4828 240.9 38.8002C240.9 32.1175 235.483 26.7002 228.8 26.7002ZM214.7 38.8002C214.7 31.013 221.013 24.7002 228.8 24.7002C236.587 24.7002 242.9 31.013 242.9 38.8002C242.9 46.5874 236.587 52.9002 228.8 52.9002C221.013 52.9002 214.7 46.5874 214.7 38.8002Z" fill="#091757" />
    <path fill-rule="evenodd" clip-rule="evenodd" d="M178.1 26.7002C171.417 26.7002 166 32.1175 166 38.8002C166 45.4828 171.417 50.9002 178.1 50.9002C184.783 50.9002 190.2 45.4828 190.2 38.8002C190.2 32.1175 184.783 26.7002 178.1 26.7002ZM164 38.8002C164 31.013 170.313 24.7002 178.1 24.7002C185.887 24.7002 192.2 31.013 192.2 38.8002C192.2 46.5874 185.887 52.9002 178.1 52.9002C170.313 52.9002 164 46.5874 164 38.8002Z" fill="#091757" />
    <path fill-rule="evenodd" clip-rule="evenodd" d="M214.787 7.88927C215.29 7.66124 215.883 7.88415 216.111 8.38716L229.711 38.3872C229.939 38.8902 229.716 39.4828 229.213 39.7108C228.71 39.9389 228.117 39.716 227.889 39.2129L214.289 9.21294C214.061 8.70993 214.284 8.1173 214.787 7.88927Z" fill="#091757" />
    <path fill-rule="evenodd" clip-rule="evenodd" d="M189.285 7.89041C189.787 7.66099 190.38 7.88227 190.61 8.38465L204.31 38.3846C204.539 38.887 204.318 39.4803 203.815 39.7097C203.313 39.9391 202.72 39.7178 202.49 39.2155L188.79 9.21545C188.561 8.71307 188.782 8.11983 189.285 7.89041Z" fill="#091757" />
    <path fill-rule="evenodd" clip-rule="evenodd" d="M193.1 18.3003C193.1 17.748 193.548 17.3003 194.1 17.3003H219.5C219.883 17.3003 220.232 17.5188 220.399 17.8631C220.567 18.2073 220.523 18.6169 220.286 18.9179L204.186 39.4179C203.845 39.8523 203.217 39.9279 202.782 39.5867C202.348 39.2456 202.272 38.617 202.614 38.1826L217.443 19.3003H194.1C193.548 19.3003 193.1 18.8526 193.1 18.3003Z" fill="#091757" />
    <path fill-rule="evenodd" clip-rule="evenodd" d="M194.715 17.5115C195.151 17.8513 195.228 18.4797 194.888 18.9151L178.888 39.4151C178.549 39.8505 177.92 39.928 177.485 39.5882C177.049 39.2484 176.972 38.62 177.312 38.1846L193.312 17.6846C193.652 17.2492 194.28 17.1717 194.715 17.5115Z" fill="#091757" />
    <path fill-rule="evenodd" clip-rule="evenodd" d="M177.4 38.8003C177.4 38.248 177.848 37.8003 178.4 37.8003H203.4C203.952 37.8003 204.4 38.248 204.4 38.8003C204.4 39.3526 203.952 39.8003 203.4 39.8003H178.4C177.848 39.8003 177.4 39.3526 177.4 38.8003Z" fill="#091757" />
    <path fill-rule="evenodd" clip-rule="evenodd" d="M181.2 8.2002C181.2 7.64791 181.648 7.2002 182.2 7.2002H195.1C195.652 7.2002 196.1 7.64791 196.1 8.2002C196.1 8.75248 195.652 9.2002 195.1 9.2002H182.2C181.648 9.2002 181.2 8.75248 181.2 8.2002Z" fill="#091757" />
    <path fill-rule="evenodd" clip-rule="evenodd" d="M204.989 2.0402C205.464 1.75824 206.078 1.91463 206.36 2.38952C208.085 5.29494 211.263 7.20006 214.8 7.20006C218.432 7.20006 221.512 5.2995 223.24 2.38952C223.522 1.91463 224.136 1.75824 224.611 2.0402C225.085 2.32217 225.242 2.93571 224.96 3.4106C222.888 6.90061 219.168 9.20006 214.8 9.20006C210.537 9.20006 206.715 6.90517 204.64 3.4106C204.358 2.93571 204.515 2.32217 204.989 2.0402Z" fill="#091757" />
    <path fill-rule="evenodd" clip-rule="evenodd" d="M318.641 8.95883C318.927 9.14287 319.1 9.45968 319.1 9.79981V43.3998C319.1 43.7399 318.927 44.0568 318.641 44.2408C318.355 44.4248 317.995 44.4508 317.686 44.3099L297.485 35.1099C297.129 34.9474 296.9 34.5917 296.9 34.1998V18.9998C296.9 18.6079 297.129 18.2522 297.485 18.0897L317.686 8.88975C317.995 8.74877 318.355 8.7748 318.641 8.95883ZM298.9 19.6432V33.5564L317.1 41.8455V11.3541L298.9 19.6432Z" fill="#091757" />
    <path fill-rule="evenodd" clip-rule="evenodd" d="M288.4 34.0996C288.4 33.5473 288.848 33.0996 289.4 33.0996H294.4C294.952 33.0996 295.4 33.5473 295.4 34.0996V47.2996C295.4 49.2519 293.852 50.7996 291.9 50.7996C289.948 50.7996 288.4 49.2519 288.4 47.2996V34.0996ZM290.4 35.0996V47.2996C290.4 48.1473 291.052 48.7996 291.9 48.7996C292.748 48.7996 293.4 48.1473 293.4 47.2996V35.0996H290.4Z" fill="#091757" />
    <path fill-rule="evenodd" clip-rule="evenodd" d="M281.4 24.3C281.4 20.8477 284.248 18 287.7 18H297.9C298.452 18 298.9 18.4477 298.9 19C298.9 19.5523 298.452 20 297.9 20H287.7C285.352 20 283.4 21.9523 283.4 24.3V28.7C283.4 31.0477 285.352 33 287.7 33H297.9C298.452 33 298.9 33.4477 298.9 34C298.9 34.5523 298.452 35 297.9 35H287.7C284.248 35 281.4 32.1523 281.4 28.7V24.3Z" fill="#091757" />
    <path fill-rule="evenodd" clip-rule="evenodd" d="M320.8 26.5996C320.8 26.0473 321.248 25.5996 321.8 25.5996H326.7C327.252 25.5996 327.7 26.0473 327.7 26.5996C327.7 27.1519 327.252 27.5996 326.7 27.5996H321.8C321.248 27.5996 320.8 27.1519 320.8 26.5996Z" fill="#091757" />
    <path fill-rule="evenodd" clip-rule="evenodd" d="M327.29 18.0442C327.542 18.5359 327.347 19.1384 326.855 19.39L322.555 21.59C322.064 21.8415 321.461 21.6469 321.21 21.1552C320.958 20.6635 321.153 20.061 321.645 19.8095L325.944 17.6095C326.436 17.3579 327.039 17.5526 327.29 18.0442Z" fill="#091757" />
    <path fill-rule="evenodd" clip-rule="evenodd" d="M321.218 32.0281C321.479 31.5411 322.085 31.3574 322.572 31.6179L326.872 33.9179C327.359 34.1784 327.542 34.7844 327.282 35.2714C327.021 35.7584 326.415 35.942 325.928 35.6815L321.628 33.3815C321.141 33.121 320.958 32.5151 321.218 32.0281Z" fill="#091757" />
    <path fill-rule="evenodd" clip-rule="evenodd" d="M69.3487 147.695C68.4511 148.353 68 149.18 68 150C68 150.82 68.4511 151.646 69.3487 152.304C70.2458 152.962 71.5334 153.4 73 153.4C74.4666 153.4 75.7543 152.962 76.6513 152.304C77.5489 151.646 78 150.82 78 150C78 149.18 77.5489 148.353 76.6513 147.695C75.7543 147.037 74.4666 146.6 73 146.6C71.5334 146.6 70.2458 147.037 69.3487 147.695ZM68.166 146.082C69.4405 145.147 71.1529 144.6 73 144.6C74.8471 144.6 76.5595 145.147 77.834 146.082C79.108 147.016 80 148.389 80 150C80 151.61 79.108 152.983 77.834 153.917C76.5595 154.852 74.8471 155.4 73 155.4C71.1529 155.4 69.4405 154.852 68.166 153.917C66.8921 152.983 66 151.61 66 150C66 148.389 66.8921 147.016 68.166 146.082Z" fill="#091757" />
    <path fill-rule="evenodd" clip-rule="evenodd" d="M90.4487 143.395C89.5511 144.053 89.1 144.88 89.1 145.7C89.1 146.52 89.5511 147.346 90.4487 148.005C91.3458 148.662 92.6334 149.1 94.1 149.1C95.5666 149.1 96.8543 148.662 97.7513 148.005C98.6489 147.346 99.1 146.52 99.1 145.7C99.1 144.88 98.6489 144.053 97.7513 143.395C96.8543 142.737 95.5666 142.3 94.1 142.3C92.6334 142.3 91.3458 142.737 90.4487 143.395ZM89.266 141.782C90.5405 140.847 92.2529 140.3 94.1 140.3C95.9471 140.3 97.6595 140.847 98.934 141.782C100.208 142.716 101.1 144.09 101.1 145.7C101.1 147.31 100.208 148.683 98.934 149.617C97.6595 150.552 95.9471 151.1 94.1 151.1C92.2529 151.1 90.5405 150.552 89.266 149.617C87.9921 148.683 87.1 147.31 87.1 145.7C87.1 144.09 87.9921 142.716 89.266 141.782Z" fill="#091757" />
    <path fill-rule="evenodd" clip-rule="evenodd" d="M101.1 117.47V145.7C101.1 146.252 100.652 146.7 100.1 146.7C99.5477 146.7 99.1 146.252 99.1 145.7V119.93L80 123.913V150.1C80 150.652 79.5523 151.1 79 151.1C78.4477 151.1 78 150.652 78 150.1V122.287L101.1 117.47Z" fill="#091757" />
    <path fill-rule="evenodd" clip-rule="evenodd" d="M101.079 126.096C101.192 126.637 100.845 127.166 100.304 127.279L79.2041 131.679C78.6635 131.792 78.1338 131.445 78.0211 130.904C77.9083 130.363 78.2552 129.834 78.7959 129.721L99.8959 125.321C100.437 125.208 100.966 125.555 101.079 126.096Z" fill="#091757" />
    <path d="M37.8 15.6V0H75.1V25.4H67.8L68 32.2L59.5 25.4H48.3" fill="#091757" />
    <path d="M10.4 41.5001H17.7L17.6 48.3001L26 41.5001H47.7V16.1001H10.4V41.5001Z" fill="#F7F7FA" />
    <path fill-rule="evenodd" clip-rule="evenodd" d="M9.40001 15.1001H48.7V42.5001H26.354L16.5687 50.4216L16.6852 42.5001H9.40001V15.1001ZM11.4 17.1001V40.5001H18.7148L18.6313 46.1786L25.646 40.5001H46.7V17.1001H11.4Z" fill="#091757" />
    <path fill-rule="evenodd" clip-rule="evenodd" d="M281.41 124.856C282.981 114.073 292.295 105.7 303.6 105.7C308.005 105.7 312.19 107.063 315.637 109.257C316.103 109.553 316.24 110.171 315.944 110.637C315.647 111.103 315.029 111.24 314.563 110.944C311.41 108.938 307.595 107.7 303.6 107.7C293.305 107.7 284.819 115.327 283.39 125.144C283.31 125.691 282.802 126.069 282.256 125.99C281.709 125.91 281.331 125.403 281.41 124.856Z" fill="#091757" />
    <path fill-rule="evenodd" clip-rule="evenodd" d="M287.619 124.804C289.113 117.337 295.722 111.8 303.6 111.8C306.777 111.8 309.77 112.647 312.246 114.262C312.709 114.564 312.839 115.183 312.538 115.646C312.236 116.109 311.616 116.239 311.154 115.937C309.03 114.552 306.423 113.8 303.6 113.8C296.678 113.8 290.887 118.662 289.581 125.196C289.472 125.737 288.945 126.089 288.404 125.98C287.862 125.872 287.511 125.345 287.619 124.804Z" fill="#091757" />
    <path fill-rule="evenodd" clip-rule="evenodd" d="M293.849 125.091C295.178 120.992 299.053 118 303.6 118C306.476 118 308.916 119.112 310.785 120.872C311.188 121.25 311.207 121.883 310.828 122.285C310.45 122.688 309.817 122.707 309.415 122.328C307.884 120.888 305.924 120 303.6 120C299.947 120 296.822 122.408 295.751 125.709C295.581 126.234 295.017 126.522 294.491 126.351C293.966 126.181 293.678 125.617 293.849 125.091Z" fill="#091757" />
    <path fill-rule="evenodd" clip-rule="evenodd" d="M296.178 106.914C299.427 99.1563 307.182 93.6001 316.2 93.6001C323.229 93.6001 329.413 96.959 333.39 102.087C333.729 102.524 333.649 103.152 333.213 103.49C332.776 103.829 332.148 103.749 331.81 103.313C328.187 98.6412 322.571 95.6001 316.2 95.6001C308.018 95.6001 300.973 100.644 298.022 107.686C297.809 108.196 297.223 108.436 296.714 108.222C296.204 108.009 295.964 107.423 296.178 106.914Z" fill="#091757" />
    <path fill-rule="evenodd" clip-rule="evenodd" d="M303.392 106.011C306.273 102.062 310.969 99.5 316.2 99.5C319.815 99.5 323.238 100.67 325.925 102.819C326.356 103.164 326.426 103.793 326.081 104.225C325.736 104.656 325.107 104.726 324.675 104.381C322.362 102.53 319.385 101.5 316.2 101.5C311.631 101.5 307.527 103.738 305.008 107.189C304.682 107.636 304.057 107.733 303.611 107.408C303.164 107.082 303.067 106.457 303.392 106.011Z" fill="#091757" />
    <path fill-rule="evenodd" clip-rule="evenodd" d="M309.1 124.4C309.1 112.048 319.148 102 331.5 102C343.852 102 353.9 112.048 353.9 124.4V124.9C353.9 125.452 353.452 125.9 352.9 125.9C352.348 125.9 351.9 125.452 351.9 124.9V124.4C351.9 113.152 342.748 104 331.5 104C320.252 104 311.1 113.152 311.1 124.4V125C311.1 125.552 310.652 126 310.1 126C309.548 126 309.1 125.552 309.1 125V124.4Z" fill="#091757" />
    <path fill-rule="evenodd" clip-rule="evenodd" d="M315.2 124.5C315.2 115.548 322.548 108.2 331.5 108.2C340.448 108.2 347.8 115.444 347.8 124.5V125C347.8 125.552 347.352 126 346.8 126C346.248 126 345.8 125.552 345.8 125V124.501C345.8 116.557 339.352 110.2 331.5 110.2C323.652 110.2 317.2 116.652 317.2 124.5V125.2C317.2 125.752 316.752 126.2 316.2 126.2C315.648 126.2 315.2 125.752 315.2 125.2V124.5Z" fill="#091757" />
    <path fill-rule="evenodd" clip-rule="evenodd" d="M321.3 124.5C321.3 118.848 325.848 114.3 331.5 114.3C337.152 114.3 341.7 118.848 341.7 124.5V125C341.7 125.552 341.252 126 340.7 126C340.148 126 339.7 125.552 339.7 125V124.5C339.7 119.952 336.048 116.3 331.5 116.3C326.952 116.3 323.3 119.952 323.3 124.5V125C323.3 125.552 322.852 126 322.3 126C321.748 126 321.3 125.552 321.3 125V124.5Z" fill="#091757" />
    <path fill-rule="evenodd" clip-rule="evenodd" d="M324 81.8999C324.552 81.8999 325 82.3476 325 82.8999V88.9999C325 89.5522 324.552 89.9999 324 89.9999C323.448 89.9999 323 89.5522 323 88.9999V82.8999C323 82.3476 323.448 81.8999 324 81.8999Z" fill="#091757" />
    <path fill-rule="evenodd" clip-rule="evenodd" d="M318 71.5C318.552 71.5 319 71.9477 319 72.5V83.8C319 84.3523 318.552 84.8 318 84.8C317.448 84.8 317 84.3523 317 83.8V72.5C317 71.9477 317.448 71.5 318 71.5Z" fill="#091757" />
    <path fill-rule="evenodd" clip-rule="evenodd" d="M312.6 75.7998C313.152 75.7998 313.6 76.2475 313.6 76.7998V85.2998C313.6 85.8521 313.152 86.2998 312.6 86.2998C312.048 86.2998 311.6 85.8521 311.6 85.2998V76.7998C311.6 76.2475 312.048 75.7998 312.6 75.7998Z" fill="#091757" />
    <path d="M341.2 141.8H294.6C285.5 141.8 278.2 134.4 278.2 125.4H357.7C357.6 134.4 350.3 141.8 341.2 141.8Z" fill="#091757" />
    <path fill-rule="evenodd" clip-rule="evenodd" d="M-0.0319977 101.7H14.632L7.30001 114.4L-0.0319977 101.7ZM3.43201 103.7L7.30001 110.4L11.168 103.7H3.43201Z" fill="#091757" />
    <path fill-rule="evenodd" clip-rule="evenodd" d="M114.368 19.6001H129.032L121.7 32.3002L114.368 19.6001ZM117.832 21.6001L121.7 28.3L125.568 21.6001H117.832Z" fill="#091757" />
  </g>
  <defs>
    <clipPath id="clip0_41_2003">
      <rect width="357.6" height="155.4" fill="white" />
    </clipPath>
  </defs>
</svg>
