<svg width="28.400024" height="32.000000" viewBox="0 0 28.4 32" fill="none" xmlns="http://www.w3.org/2000/svg" xmlns:xlink="http://www.w3.org/1999/xlink">
	<defs>
		<clipPath id="clip2503_2407">
			<rect id="Notification2" width="28.400000" height="32.000000" fill="white" fill-opacity="0"/>
		</clipPath>
	</defs>
	<rect id="Notification2" width="28.400000" height="32.000000" fill="#FFFFFF" fill-opacity="0"/>
	<g clip-path="url(#clip2503_2407)">
		<path id="Vector" d="M14.2 32C12 32 10.1 30.2 10.1 27.9C10.1 27.3 10.5 26.9 11.1 26.9C11.7 26.9 12.1 27.3 12.1 27.9C12.1 29 13 30 14.2 30C15.4 30 16.29 29.09 16.29 27.9C16.29 27.3 16.7 26.9 17.29 26.9C17.9 26.9 18.29 27.3 18.29 27.9C18.29 30.2 16.4 32 14.2 32Z" fill="#091757" fill-opacity="1.000000" fill-rule="nonzero"/>
		<path id="Vector" d="M24.9 25.79L3.5 25.79C1.59 25.79 0 24.19 0 22.29C0 20.4 1.5 18.9 3.29 18.79L3.29 12.5C3.29 8.19 6.59 4.59 10.8 4.09L10.8 3.4C10.8 2.4 11.2 1.5 11.9 0.9C12.6 0.29 13.6 -0.1 14.6 0C16.29 0.19 17.7 1.69 17.7 3.59L17.7 4.19C21.9 4.69 25.2 8.29 25.2 12.59L25.2 18.9C27 19 28.5 20.5 28.5 22.4C28.4 24.29 26.8 25.79 24.9 25.79ZM3.5 20.79C2.7 20.79 2 21.5 2 22.29C2 23.09 2.7 23.79 3.5 23.79L24.9 23.79C25.7 23.79 26.4 23.09 26.4 22.29C26.4 21.5 25.7 20.79 24.9 20.79L23.1 20.79L23.1 12.5C23.1 8.9 20.2 6 16.6 6L15.6 6L15.6 3.59C15.6 2.79 15 2.09 14.3 2C13.9 2 13.5 2.09 13.2 2.4C12.9 2.69 12.7 3.09 12.7 3.5L12.7 6.09L11.7 6.09C8.09 6.09 5.2 9 5.2 12.59L5.2 20.9L3.5 20.9L3.5 20.79Z" fill="#091757" fill-opacity="1.000000" fill-rule="nonzero"/>
		<path id="Vector" d="M8.5 9.9C8.5 12.1 6.7 13.9 4.5 13.9C2.29 13.9 0.5 12.1 0.5 9.9C0.5 7.69 2.29 5.9 4.5 5.9C6.7 5.9 8.5 7.69 8.5 9.9Z" fill="#FF2F3B" fill-opacity="1.000000" fill-rule="evenodd"/>
	</g>
</svg>
