<svg width="381" height="159" viewBox="0 0 381 159" fill="none" xmlns="http://www.w3.org/2000/svg">
  <g clip-path="url(#clip0_41_2141)">
    <path d="M367 0C359.5 0 353.5 6.1 353.5 13.5C353.5 25.2 366.5 34.4 367 35C367 35 380.5 24.5 380.5 13.5C380.5 6.1 374.4 0 367 0ZM367 19.1C363.7 19.1 361.1 16.5 361.1 13.2C361.1 9.9 363.7 7.3 367 7.3C370.3 7.3 372.9 9.9 372.9 13.2C372.9 16.5 370.2 19.1 367 19.1Z" fill="#E3EF41" />
    <path fill-rule="evenodd" clip-rule="evenodd" d="M367 39.3999C365.067 39.3999 363.5 40.9669 363.5 42.8999C363.5 44.8329 365.067 46.3999 367 46.3999C368.933 46.3999 370.5 44.8329 370.5 42.8999C370.5 40.9669 368.933 39.3999 367 39.3999ZM361.5 42.8999C361.5 39.8623 363.962 37.3999 367 37.3999C370.038 37.3999 372.5 39.8623 372.5 42.8999C372.5 45.9375 370.038 48.3999 367 48.3999C363.962 48.3999 361.5 45.9375 361.5 42.8999Z" fill="#091757" />
    <path d="M14 93.3999C6.6 93.3999 0.5 99.3999 0.5 106.9C0.5 118.6 13.5 127.8 14 128.4C14 128.4 27.5 117.9 27.5 106.9C27.6 99.3999 21.5 93.3999 14 93.3999ZM14 112.5C10.7 112.5 8.1 109.9 8.1 106.6C8.1 103.3 10.7 100.7 14 100.7C17.3 100.7 19.9 103.3 19.9 106.6C19.9 109.9 17.3 112.5 14 112.5Z" fill="#E3EF41" />
    <path fill-rule="evenodd" clip-rule="evenodd" d="M14 132.8C12.067 132.8 10.5 134.367 10.5 136.3C10.5 138.233 12.067 139.8 14 139.8C15.933 139.8 17.5 138.233 17.5 136.3C17.5 134.367 15.933 132.8 14 132.8ZM8.5 136.3C8.5 133.262 10.9624 130.8 14 130.8C17.0376 130.8 19.5 133.262 19.5 136.3C19.5 139.337 17.0376 141.8 14 141.8C10.9624 141.8 8.5 139.337 8.5 136.3Z" fill="#091757" />
    <path fill-rule="evenodd" clip-rule="evenodd" d="M54.6052 142.175C44.9191 143.886 33.4021 143.292 18.3122 138.758C17.7833 138.599 17.4834 138.041 17.6423 137.512C17.8012 136.983 18.3589 136.683 18.8878 136.842C33.7479 141.308 44.9434 141.851 54.2573 140.206C63.5775 138.559 71.0966 134.708 78.6141 130.24C80.2984 129.239 81.9816 128.207 83.6833 127.164C97.1859 118.887 111.848 109.9 137.4 109.9C137.952 109.9 138.4 110.348 138.4 110.9C138.4 111.452 137.952 111.9 137.4 111.9C112.432 111.9 98.2135 120.61 84.7371 128.866C83.0316 129.91 81.338 130.948 79.6359 131.96C72.0534 136.466 64.285 140.465 54.6052 142.175Z" fill="#091757" />
    <path fill-rule="evenodd" clip-rule="evenodd" d="M285.969 72.6001H301.431L293.7 86.0012L285.969 72.6001ZM289.431 74.6001L293.7 81.999L297.969 74.6001H289.431Z" fill="#091757" />
    <path fill-rule="evenodd" clip-rule="evenodd" d="M19.8686 27.6001H35.3314L27.6 41.0012L19.8686 27.6001ZM23.3314 29.6001L27.6 36.999L31.8686 29.6001H23.3314Z" fill="#091757" />
    <path d="M250.9 3.8999H152C149.4 3.8999 147.3 5.9999 147.3 8.5999V143.6C147.3 146.2 149.4 148.3 152 148.3H250.9C253.5 148.3 255.6 146.2 255.6 143.6V8.5999C255.7 5.9999 253.5 3.8999 250.9 3.8999Z" fill="#091757" />
    <path d="M240.5 157.9H142.5C140.2 157.9 138.3 156 138.3 153.7V19.4998C138.3 17.1998 140.2 15.2998 142.5 15.2998H240.5C242.8 15.2998 244.7 17.1998 244.7 19.4998V153.6C244.7 156 242.8 157.9 240.5 157.9Z" fill="#F7F7FA" />
    <path fill-rule="evenodd" clip-rule="evenodd" d="M142.5 16.2998C140.752 16.2998 139.3 17.7521 139.3 19.4998V153.7C139.3 155.448 140.752 156.9 142.5 156.9H240.5C242.232 156.9 243.7 155.463 243.7 153.6V19.4998C243.7 17.7521 242.248 16.2998 240.5 16.2998H142.5ZM137.3 19.4998C137.3 16.6475 139.648 14.2998 142.5 14.2998H240.5C243.352 14.2998 245.7 16.6475 245.7 19.4998V153.6C245.7 156.537 243.368 158.9 240.5 158.9H142.5C139.648 158.9 137.3 156.552 137.3 153.7V19.4998Z" fill="#091757" />
    <path fill-rule="evenodd" clip-rule="evenodd" d="M156.5 28.5H226.4V81H156.5V28.5ZM158.5 30.5V79H224.4V30.5H158.5Z" fill="#091757" />
    <path fill-rule="evenodd" clip-rule="evenodd" d="M206.279 40.9937L226.149 63.4371C226.515 63.8506 226.476 64.4826 226.063 64.8487C225.649 65.2148 225.017 65.1763 224.651 64.7628L205.921 43.6063L193.137 51.8667L185.688 47.6954L158.111 68.9914C157.674 69.329 157.046 69.2483 156.709 68.8112C156.371 68.3741 156.452 67.746 156.889 67.4085L185.512 45.3045L193.063 49.5332L206.279 40.9937Z" fill="#091757" />
    <path fill-rule="evenodd" clip-rule="evenodd" d="M156.5 92.0996C156.5 91.5473 156.948 91.0996 157.5 91.0996H209.9C210.452 91.0996 210.9 91.5473 210.9 92.0996C210.9 92.6519 210.452 93.0996 209.9 93.0996H157.5C156.948 93.0996 156.5 92.6519 156.5 92.0996Z" fill="#091757" />
    <path fill-rule="evenodd" clip-rule="evenodd" d="M156.5 100.9C156.5 100.348 156.948 99.8999 157.5 99.8999H197.3C197.852 99.8999 198.3 100.348 198.3 100.9C198.3 101.452 197.852 101.9 197.3 101.9H157.5C156.948 101.9 156.5 101.452 156.5 100.9Z" fill="#091757" />
    <path fill-rule="evenodd" clip-rule="evenodd" d="M156.5 114.5C156.5 113.948 156.948 113.5 157.5 113.5H225.4C225.952 113.5 226.4 113.948 226.4 114.5C226.4 115.052 225.952 115.5 225.4 115.5H157.5C156.948 115.5 156.5 115.052 156.5 114.5Z" fill="#091757" />
    <path fill-rule="evenodd" clip-rule="evenodd" d="M156.5 119.6C156.5 119.048 156.948 118.6 157.5 118.6H225.4C225.952 118.6 226.4 119.048 226.4 119.6C226.4 120.152 225.952 120.6 225.4 120.6H157.5C156.948 120.6 156.5 120.152 156.5 119.6Z" fill="#091757" />
    <path fill-rule="evenodd" clip-rule="evenodd" d="M156.5 124.7C156.5 124.148 156.948 123.7 157.5 123.7H225.4C225.952 123.7 226.4 124.148 226.4 124.7C226.4 125.252 225.952 125.7 225.4 125.7H157.5C156.948 125.7 156.5 125.252 156.5 124.7Z" fill="#091757" />
    <path fill-rule="evenodd" clip-rule="evenodd" d="M199.2 141.6C199.2 141.047 199.648 140.6 200.2 140.6H224.7C225.252 140.6 225.7 141.047 225.7 141.6C225.7 142.152 225.252 142.6 224.7 142.6H200.2C199.648 142.6 199.2 142.152 199.2 141.6Z" fill="#091757" />
    <path fill-rule="evenodd" clip-rule="evenodd" d="M220.036 137.155C220.392 136.733 221.023 136.679 221.445 137.036L225.945 140.836C226.168 141.024 226.298 141.301 226.3 141.593C226.302 141.886 226.176 142.164 225.955 142.356L221.455 146.256C221.038 146.617 220.406 146.572 220.044 146.155C219.683 145.737 219.728 145.106 220.145 144.744L223.762 141.61L220.155 138.564C219.733 138.208 219.68 137.577 220.036 137.155Z" fill="#091757" />
    <path fill-rule="evenodd" clip-rule="evenodd" d="M192.232 50.2031C192.507 49.7238 193.118 49.5576 193.597 49.832L207.397 57.732C207.876 58.0064 208.042 58.6174 207.768 59.0967C207.493 59.576 206.882 59.7421 206.403 59.4677L192.603 51.5677C192.124 51.2933 191.958 50.6824 192.232 50.2031Z" fill="#091757" />
    <path d="M85 131.7C87.4853 131.7 89.5 129.685 89.5 127.2C89.5 124.714 87.4853 122.7 85 122.7C82.5147 122.7 80.5 124.714 80.5 127.2C80.5 129.685 82.5147 131.7 85 131.7Z" fill="#F7F7FA" />
    <path fill-rule="evenodd" clip-rule="evenodd" d="M85 123.7C83.067 123.7 81.5 125.267 81.5 127.2C81.5 129.133 83.067 130.7 85 130.7C86.933 130.7 88.5 129.133 88.5 127.2C88.5 125.267 86.933 123.7 85 123.7ZM79.5 127.2C79.5 124.162 81.9624 121.7 85 121.7C88.0376 121.7 90.5 124.162 90.5 127.2C90.5 130.237 88.0376 132.7 85 132.7C81.9624 132.7 79.5 130.237 79.5 127.2Z" fill="#091757" />
    <path fill-rule="evenodd" clip-rule="evenodd" d="M55.9 62.3999C55.9 59.0476 58.5477 56.3999 61.9 56.3999H108.1C111.412 56.3999 114.211 59.0132 114.1 62.4169V93.4999C114.1 96.8522 111.452 99.4999 108.1 99.4999H93.2047L85.9417 119.836C85.7996 120.234 85.4226 120.5 85 120.5C84.5774 120.5 84.2004 120.234 84.0583 119.836L76.7953 99.4999H61.9C58.5477 99.4999 55.9 96.8522 55.9 93.4999V62.3999ZM61.9 58.3999C59.6523 58.3999 57.9 60.1522 57.9 62.3999V93.4999C57.9 95.7476 59.6523 97.4999 61.9 97.4999H77.5C77.9226 97.4999 78.2996 97.7656 78.4417 98.1636L85 116.527L91.5583 98.1636C91.7004 97.7656 92.0774 97.4999 92.5 97.4999H108.1C110.348 97.4999 112.1 95.7476 112.1 93.4999V62.3999C112.1 62.388 112.1 62.3761 112.101 62.3642C112.179 60.177 110.382 58.3999 108.1 58.3999H61.9Z" fill="#091757" />
    <path fill-rule="evenodd" clip-rule="evenodd" d="M65.4 68.2998C65.4 67.7475 65.8477 67.2998 66.4 67.2998H103.6C104.152 67.2998 104.6 67.7475 104.6 68.2998C104.6 68.8521 104.152 69.2998 103.6 69.2998H66.4C65.8477 69.2998 65.4 68.8521 65.4 68.2998Z" fill="#091757" />
    <path fill-rule="evenodd" clip-rule="evenodd" d="M65.4 76C65.4 75.4477 65.8477 75 66.4 75H103.6C104.152 75 104.6 75.4477 104.6 76C104.6 76.5523 104.152 77 103.6 77H66.4C65.8477 77 65.4 76.5523 65.4 76Z" fill="#091757" />
    <path fill-rule="evenodd" clip-rule="evenodd" d="M65.4 83.6997C65.4 83.1474 65.8477 82.6997 66.4 82.6997H103.6C104.152 82.6997 104.6 83.1474 104.6 83.6997C104.6 84.252 104.152 84.6997 103.6 84.6997H66.4C65.8477 84.6997 65.4 84.252 65.4 83.6997Z" fill="#091757" />
    <path fill-rule="evenodd" clip-rule="evenodd" d="M333.176 47.0481C326.776 52.7242 324.28 61.9857 328.421 71.8107C328.54 72.0931 328.661 72.3783 328.783 72.666C332.264 80.8942 336.637 91.2306 337.707 100.953C338.262 106.002 337.937 110.957 336.087 115.404C334.23 119.872 330.864 123.752 325.477 126.679L325.474 126.68C312.712 133.556 302.005 128.469 290.906 122.571C290.313 122.255 289.719 121.938 289.122 121.619C278.468 115.926 267.196 109.903 252.635 111.891C252.088 111.965 251.584 111.582 251.509 111.035C251.434 110.488 251.818 109.984 252.365 109.909C267.587 107.831 279.393 114.146 289.975 119.807C290.602 120.142 291.225 120.475 291.844 120.804C302.995 126.73 312.787 131.243 324.524 124.92C329.537 122.197 332.571 118.653 334.241 114.636C335.919 110.599 336.251 106.011 335.718 101.172C334.682 91.7476 330.41 81.648 326.899 73.346C326.791 73.092 326.685 72.8398 326.579 72.5893L326.579 72.5884C322.121 62.0138 324.775 51.8256 331.849 45.5518C338.913 39.2873 350.224 37.0559 362.862 41.9679C363.377 42.168 363.632 42.7475 363.432 43.2622C363.232 43.777 362.653 44.0321 362.138 43.832C350.076 39.1441 339.587 41.3626 333.176 47.0481Z" fill="#091757" />
  </g>
  <defs>
    <clipPath id="clip0_41_2141">
      <rect width="380" height="158.9" fill="white" transform="translate(0.5)" />
    </clipPath>
  </defs>
</svg>
