<svg width="380.000000" height="159.000000" viewBox="0 0 380 159" fill="none" xmlns="http://www.w3.org/2000/svg">
	<path id="Vector" d="M366 0C358.5 0 352.5 6.1 352.5 13.5C352.5 25.2 365.5 34.39 366 35C366 35 379.5 24.5 379.5 13.5C379.5 6.1 373.4 0 366 0ZM366 19.1C362.7 19.1 360.1 16.5 360.1 13.2C360.1 9.89 362.7 7.29 366 7.29C369.3 7.29 371.9 9.89 371.9 13.2C371.9 16.5 369.2 19.1 366 19.1Z" fill="#E3EF41" fill-opacity="1.000000" fill-rule="nonzero"/>
	<path id="Vector" d="M366 47.39C363.51 47.39 361.5 45.38 361.5 42.89C361.5 40.41 363.51 38.39 366 38.39C368.48 38.39 370.5 40.41 370.5 42.89C370.5 45.38 368.48 47.39 366 47.39Z" stroke="#091757" strokeOpacity="1.000000" strokeWidth="2.000000"/>
	<path id="Vector" d="M13 93.39C5.6 93.39 -0.5 99.39 -0.5 106.9C-0.5 118.6 12.5 127.8 13 128.39C13 128.39 26.5 117.9 26.5 106.9C26.6 99.39 20.5 93.39 13 93.39ZM13 112.5C9.7 112.5 7.1 109.9 7.1 106.6C7.1 103.3 9.7 100.7 13 100.7C16.29 100.7 18.9 103.3 18.9 106.6C18.9 109.9 16.29 112.5 13 112.5Z" fill="#E3EF41" fill-opacity="1.000000" fill-rule="nonzero"/>
	<path id="Vector" d="M13 140.8C10.51 140.8 8.5 138.78 8.5 136.3C8.5 133.81 10.51 131.8 13 131.8C15.48 131.8 17.5 133.81 17.5 136.3C17.5 138.78 15.48 140.8 13 140.8Z" stroke="#091757" strokeOpacity="1.000000" strokeWidth="2.000000"/>
	<path id="Vector" d="M17.6 137.8C77.5 155.8 79.5 110.9 136.39 110.9" stroke="#091757" strokeOpacity="1.000000" strokeWidth="2.000000" strokeLinecap="round"/>
	<path id="Vector" d="M298.7 73.6L286.7 73.6L292.7 84L298.7 73.6Z" stroke="#091757" strokeOpacity="1.000000" strokeWidth="2.000000"/>
	<path id="Vector" d="M32.59 28.6L20.6 28.6L26.6 39L32.59 28.6Z" stroke="#091757" strokeOpacity="1.000000" strokeWidth="2.000000"/>
	<path id="Vector" d="M249.9 3.89L151 3.89C148.39 3.89 146.3 6 146.3 8.6L146.3 143.6C146.3 146.2 148.39 148.3 151 148.3L249.9 148.3C252.5 148.3 254.6 146.2 254.6 143.6L254.6 8.6C254.7 6 252.5 3.89 249.9 3.89Z" fill="#091757" fill-opacity="1.000000" fill-rule="nonzero"/>
	<path id="Vector" d="M239.5 157.89L141.5 157.89C139.2 157.89 137.3 156 137.3 153.7L137.3 19.5C137.3 17.19 139.2 15.29 141.5 15.29L239.5 15.29C241.8 15.29 243.7 17.19 243.7 19.5L243.7 153.6C243.7 156 241.8 157.89 239.5 157.89Z" fill="#F7F7FA" fill-opacity="1.000000" fill-rule="nonzero"/>
	<path id="Vector" d="M141.5 157.89C139.2 157.89 137.3 156 137.3 153.7L137.3 19.5C137.3 17.19 139.2 15.29 141.5 15.29L239.5 15.29C241.8 15.29 243.7 17.19 243.7 19.5L243.7 153.6C243.7 156 241.8 157.89 239.5 157.89L141.5 157.89Z" stroke="#091757" strokeOpacity="1.000000" strokeWidth="2.000000"/>
	<path id="Vector" d="M224.4 29.5L224.4 80L156.5 80L156.5 29.5L224.4 29.5Z" stroke="#091757" strokeOpacity="1.000000" strokeWidth="2.000000"/>
	<path id="Vector" d="M224.4 64.09L205.1 42.29L192.1 50.69L184.6 46.5L156.5 68.19" stroke="#091757" strokeOpacity="1.000000" strokeWidth="2.000000" strokeLinecap="round"/>
	<path id="Vector" d="M156.5 92.1L208.9 92.1" stroke="#091757" strokeOpacity="1.000000" strokeWidth="2.000000" strokeLinecap="round"/>
	<path id="Vector" d="M156.5 100.9L196.3 100.9" stroke="#091757" strokeOpacity="1.000000" strokeWidth="2.000000" strokeLinecap="round"/>
	<path id="Vector" d="M156.5 114.5L224.4 114.5" stroke="#091757" strokeOpacity="1.000000" strokeWidth="2.000000" strokeLinecap="round"/>
	<path id="Vector" d="M156.5 119.6L224.4 119.6" stroke="#091757" strokeOpacity="1.000000" strokeWidth="2.000000" strokeLinecap="round"/>
	<path id="Vector" d="M156.5 124.7L224.4 124.7" stroke="#091757" strokeOpacity="1.000000" strokeWidth="2.000000" strokeLinecap="round"/>
	<path id="Vector" d="M199.2 141.6L223.7 141.6" stroke="#091757" strokeOpacity="1.000000" strokeWidth="2.000000" strokeLinecap="round"/>
	<path id="Vector" d="M219.8 145.5L224.3 141.6L219.8 137.8" stroke="#091757" strokeOpacity="1.000000" strokeWidth="2.000000" strokeLinejoin="round" strokeLinecap="round"/>
	<path id="Vector" d="M192.1 50.7L205.9 58.6" stroke="#091757" strokeOpacity="1.000000" strokeWidth="2.000000" strokeLinecap="round"/>
	<path id="Vector" d="M84 131.7C86.48 131.7 88.5 129.68 88.5 127.2C88.5 124.71 86.48 122.7 84 122.7C81.51 122.7 79.5 124.71 79.5 127.2C79.5 129.68 81.51 131.7 84 131.7Z" fill="#F7F7FA" fill-opacity="1.000000" fill-rule="nonzero"/>
	<path id="Vector" d="M84 131.7C81.51 131.7 79.5 129.68 79.5 127.2C79.5 124.71 81.51 122.7 84 122.7C86.48 122.7 88.5 124.71 88.5 127.2C88.5 129.68 86.48 131.7 84 131.7Z" stroke="#091757" strokeOpacity="1.000000" strokeWidth="2.000000"/>
	<path id="Vector" d="M60.9 57.39C58.1 57.39 55.9 59.6 55.9 62.39L55.9 93.5C55.9 96.29 58.1 98.5 60.9 98.5L76.5 98.5L84 119.5L91.5 98.5L107.1 98.5C109.9 98.5 112.1 96.29 112.1 93.5L112.1 62.39C112.2 59.6 109.9 57.39 107.1 57.39L60.9 57.39Z" stroke="#091757" strokeOpacity="1.000000" strokeWidth="2.000000" strokeLinejoin="round"/>
	<path id="Vector" d="M65.4 68.29L102.6 68.29" stroke="#091757" strokeOpacity="1.000000" strokeWidth="2.000000" strokeLinejoin="round" strokeLinecap="round"/>
	<path id="Vector" d="M65.4 76L102.6 76" stroke="#091757" strokeOpacity="1.000000" strokeWidth="2.000000" strokeLinejoin="round" strokeLinecap="round"/>
	<path id="Vector" d="M65.4 83.7L102.6 83.7" stroke="#091757" strokeOpacity="1.000000" strokeWidth="2.000000" strokeLinejoin="round" strokeLinecap="round"/>
	<path id="Vector" d="M251.5 110.9C283 106.6 299.5 139 324 125.8C344.8 114.5 333.6 89 326.5 72.2C317.9 51.8 336.8 33.3 361.5 42.89" stroke="#091757" strokeOpacity="1.000000" strokeWidth="2.000000" strokeLinecap="round"/>
</svg>
