<svg width="352.000000" height="159.000000" viewBox="0 0 352 159" fill="none" xmlns="http://www.w3.org/2000/svg" xmlns:xlink="http://www.w3.org/1999/xlink">
	<path id="Vector" d="M138.39 28C138.39 33.63 133.83 38.19 128.2 38.19C122.56 38.19 118 33.63 118 28C118 22.36 122.56 17.79 128.2 17.79C133.83 17.79 138.39 22.36 138.39 28Z" fill="#E3EF41" fill-opacity="1.000000" fill-rule="evenodd"/>
	<path id="Vector" d="M341.5 44.69L341.5 142.5C341.5 144.39 339.9 146 338 146L261.7 146C259.79 146 258.2 144.39 258.2 142.5L258.2 37.89C258.2 36 259.79 34.39 261.7 34.39L331 34.39" stroke="#091757" strokeOpacity="1.000000" strokeWidth="2.000000" strokeLinecap="round"/>
	<path id="Vector" d="M300.5 94.6C305.6 95.39 314.6 92.89 318 79.1C321.29 65.79 317.2 56.69 308.4 54.79C296.6 52.29 290.29 61 289.2 66.79C285.79 85.39 292.9 93.39 300.5 94.6Z" stroke="#091757" strokeOpacity="1.000000" strokeWidth="2.000000"/>
	<path id="Vector" d="M292.4 71.9C294.4 68.9 299 70.1 299.6 72.2C300.5 75.2 296.9 78.3 297.4 79.7C297.9 81.2 299.4 81.6 300.7 81.2" stroke="#091757" strokeOpacity="1.000000" strokeWidth="2.000000" strokeLinecap="round"/>
	<path id="Vector" d="M296.79 73.3C296.79 73.9 296.3 74.4 295.7 74.4C295.09 74.4 294.6 73.9 294.6 73.3C294.6 72.69 295.09 72.2 295.7 72.2C296.3 72.2 296.79 72.69 296.79 73.3Z" fill="#091757" fill-opacity="1.000000" fill-rule="evenodd"/>
	<path id="Vector" d="M308.5 74.1C308.5 74.7 308 75.2 307.4 75.2C306.79 75.2 306.29 74.7 306.29 74.1C306.29 73.49 306.79 73 307.4 73C308 73 308.5 73.49 308.5 74.1Z" fill="#091757" fill-opacity="1.000000" fill-rule="evenodd"/>
	<path id="Vector" d="M303.9 72.5C305.1 70.79 309.2 70.29 311 73.29" stroke="#091757" strokeOpacity="1.000000" strokeWidth="2.000000" strokeLinecap="round"/>
	<path id="Vector" d="M296 85.1C297 88.6 302.5 89.89 305.5 86.5" stroke="#091757" strokeOpacity="1.000000" strokeWidth="2.000000" strokeLinecap="round"/>
	<path id="Vector" d="M289.7 65C304.2 52.29 317.9 69.29 318.6 76.6" stroke="#091757" strokeOpacity="1.000000" strokeWidth="2.000000" strokeLinecap="round"/>
	<path id="Vector" d="M305.5 94.2C305.2 100.8 306.6 102.4 313.79 105.2C321 108 342.4 118.7 341.6 142.39" stroke="#091757" strokeOpacity="1.000000" strokeWidth="2.000000" strokeLinecap="round"/>
	<path id="Vector" d="M294.7 92.6C296.4 98.1 291.29 103 283.4 105.7C271.9 109.6 258.29 120.8 258.29 142.5" stroke="#091757" strokeOpacity="1.000000" strokeWidth="2.000000" strokeLinecap="round"/>
	<path id="Vector" d="M283.4 105.6C286.7 107.7 296.4 118.8 319.7 108.5" stroke="#091757" strokeOpacity="1.000000" strokeWidth="2.000000" strokeLinecap="round"/>
	<path id="Vector" d="M315.2 132.39L318.6 145.1" stroke="#091757" strokeOpacity="1.000000" strokeWidth="2.000000" strokeLinecap="round"/>
	<path id="Vector" d="M279.5 132.39L276.5 145.89" stroke="#091757" strokeOpacity="1.000000" strokeWidth="2.000000" strokeLinecap="round"/>
	<path id="Vector" d="M315.2 58.5C320.7 57.79 324.79 54.79 323.2 49.29C321.6 43.79 312.5 41.1 307.4 43.6C302.29 46.1 305.7 54.39 305.7 54.39" stroke="#091757" strokeOpacity="1.000000" strokeWidth="2.000000" strokeLinecap="round"/>
	<path id="Vector" d="M296 57C298.4 55.39 301.2 54.6 304.2 54.6C305.5 54.6 306.79 54.7 308.2 55C311.6 55.7 314.4 57.6 316.1 60.5C318.2 63.89 318.9 68.6 318.29 74.1C316.7 69.5 312 63.39 305.79 60.89C302.2 59.5 296.7 58.8 290.7 63.3C291.7 61.1 293.5 58.7 296 57Z" fill="#091757" fill-opacity="1.000000" fill-rule="nonzero"/>
	<path id="Vector" d="M307.4 43.79C310 42.5 314 42.6 317.4 44.1C320.1 45.29 321.9 47.1 322.5 49.19C323.1 51.19 322.9 52.89 322 54.29C320.79 56.1 318.4 57.29 315.1 57.79C313.29 56 311 54.69 308.4 54.19C307.5 54 306.7 53.89 305.79 53.79C305.4 52.6 303.2 45.89 307.4 43.79Z" fill="#091757" fill-opacity="1.000000" fill-rule="nonzero"/>
	<path id="Vector" d="M351.8 34.5C351.8 40.13 347.23 44.69 341.6 44.69C335.96 44.69 331.4 40.13 331.4 34.5C331.4 28.86 335.96 24.29 341.6 24.29C347.23 24.29 351.8 28.86 351.8 34.5Z" fill="#E3EF41" fill-opacity="1.000000" fill-rule="evenodd"/>
	<path id="Vector" d="M234.1 146.3L222.7 146.3L228.4 156.1L234.1 146.3Z" stroke="#091757" strokeOpacity="1.000000" strokeWidth="2.000000"/>
	<path id="Vector" d="M13.1 44.79L1.7 44.79L7.4 54.69L13.1 44.79Z" stroke="#091757" strokeOpacity="1.000000" strokeWidth="2.000000"/>
	<path id="Vector" d="M341.6 29.39L341.6 39.6" stroke="#091757" strokeOpacity="1.000000" strokeWidth="2.000000" strokeLinecap="round"/>
	<path id="Vector" d="M346.7 34.5L336.5 34.5" stroke="#091757" strokeOpacity="1.000000" strokeWidth="2.000000" strokeLinecap="round"/>
	<path id="Vector" d="M228 10.2L158.6 10.2C156.7 10.2 155.1 11.8 155.1 13.7L155.1 118.2C155.1 120.1 156.7 121.7 158.6 121.7L235 121.7C236.9 121.7 238.5 120.1 238.5 118.2L238.5 21.1" stroke="#091757" strokeOpacity="1.000000" strokeWidth="2.000000" strokeLinecap="round"/>
	<path id="Vector" d="M216.2 42.7C219.9 65.89 212.3 77.7 202.4 79.1C195.7 80 182.9 74.1 178.4 57C174 40.5 179.5 30.2 191 27.39C196.4 26.1 212.4 23.8 217.1 34.1C220.1 40.8 213.2 50.3 190 40.8C190 40.8 187.3 51.2 177.3 51.3" stroke="#091757" strokeOpacity="1.000000" strokeWidth="2.000000" strokeLinecap="round"/>
	<path id="Vector" d="M212.9 51C209.9 48.2 204.8 48.7 204 51.3C202.9 55 207.9 61.5 207.4 63.3C206.9 65.1 204.8 64.7 203.2 64.2" stroke="#091757" strokeOpacity="1.000000" strokeWidth="2.000000" strokeLinecap="round"/>
	<path id="Vector" d="M210.2 52.69C210.2 53.47 209.57 54.09 208.8 54.09C208.02 54.09 207.4 53.47 207.4 52.69C207.4 51.92 208.02 51.29 208.8 51.29C209.57 51.29 210.2 51.92 210.2 52.69Z" fill="#091757" fill-opacity="1.000000" fill-rule="evenodd"/>
	<path id="Vector" d="M195.7 53.69C195.7 54.47 195.07 55.09 194.3 55.09C193.52 55.09 192.9 54.47 192.9 53.69C192.9 52.92 193.52 52.29 194.3 52.29C195.07 52.29 195.7 52.92 195.7 53.69Z" fill="#091757" fill-opacity="1.000000" fill-rule="evenodd"/>
	<path id="Vector" d="M198.6 51.69C196.6 50.6 192.1 49 189.8 52.69" stroke="#091757" strokeOpacity="1.000000" strokeWidth="2.000000" strokeLinecap="round"/>
	<path id="Vector" d="M206.5 71C205.2 72.39 200.8 74 197 69.89" stroke="#091757" strokeOpacity="1.000000" strokeWidth="2.000000" strokeLinecap="round"/>
	<path id="Vector" d="M189.9 75.1C189.4 80.39 186.6 88.1 178.7 91.5C173 94 159.39 99.3 155.1 116.2" stroke="#091757" strokeOpacity="1.000000" strokeWidth="2.000000" strokeLinecap="round"/>
	<path id="Vector" d="M205.5 78.2C206 81.9 210.7 88.4 220.8 93.4C230.5 98.1 235.7 105 238.4 112.2" stroke="#091757" strokeOpacity="1.000000" strokeWidth="2.000000" strokeLinecap="round"/>
	<path id="Vector" d="M211.6 87.29C207.9 93.19 197.1 97.69 184.1 87.89" stroke="#091757" strokeOpacity="1.000000" strokeWidth="2.000000" strokeLinecap="round"/>
	<path id="Vector" d="M235.5 121.2L159.2 121.2C157.5 121.2 156.2 119.9 156.2 118.2L156.2 116.2C160.2 100.2 172.8 94.79 178.9 92.2L179.5 91.89C181.6 91 183.3 89.79 184.7 88.5C190.6 92.79 195.7 94 199.6 94C200.8 94 201.8 93.89 202.8 93.7C206.7 93 210.2 90.89 212.3 88C214.7 90 217.6 92 221.3 93.79C229.7 97.89 235.5 104.1 238.6 112.3L238.6 118.2C238.5 119.8 237.1 121.2 235.5 121.2Z" fill="#091757" fill-opacity="1.000000" fill-rule="nonzero"/>
	<path id="Vector" d="M248.8 10.2C248.8 15.83 244.23 20.39 238.6 20.39C232.96 20.39 228.4 15.83 228.4 10.2C228.4 4.56 232.96 0 238.6 0C244.23 0 248.8 4.56 248.8 10.2Z" fill="#E3EF41" fill-opacity="1.000000" fill-rule="evenodd"/>
	<path id="Vector" d="M238.6 5.1L238.6 15.3" stroke="#091757" strokeOpacity="1.000000" strokeWidth="2.000000" strokeLinecap="round"/>
	<path id="Vector" d="M243.7 10.2L233.5 10.2" stroke="#091757" strokeOpacity="1.000000" strokeWidth="2.000000" strokeLinecap="round"/>
	<path id="Vector" d="M128.2 22.89L128.2 33.1" stroke="#091757" strokeOpacity="1.000000" strokeWidth="2.000000" strokeLinecap="round"/>
	<path id="Vector" d="M133.3 28L123.1 28" stroke="#091757" strokeOpacity="1.000000" strokeWidth="2.000000" strokeLinecap="round"/>
	<path id="Vector" d="M117.7 27.6L48.3 27.6C46.4 27.6 44.8 29.2 44.8 31.1L44.8 135.6C44.8 137.5 46.4 139.1 48.3 139.1L124.6 139.1C126.5 139.1 128.1 137.5 128.1 135.6L128.1 38.39" stroke="#091757" strokeOpacity="1.000000" strokeWidth="2.000000" strokeLinecap="round"/>
	<path id="Vector" d="M70.9 54.5C67.8 73.8 74.19 83.6 82.4 84.7C88 85.5 98.6 80.5 102.3 66.3C105.9 52.6 101.2 44.5 91.9 41.6C82.9 38.9 68.19 44.4 68.19 44.4C67.69 52.8 71.19 59.1 89.1 51.9C89.1 51.9 95.1 61.4 103.4 61.5" stroke="#091757" strokeOpacity="1.000000" strokeWidth="2.000000" strokeLinecap="round"/>
	<path id="Vector" d="M73.6 61.39C76.1 59 80.4 59.5 81 61.7C81.9 64.79 77.69 68.29 78.1 69.79C78.6 71.29 80.19 72.29 81.6 72.5" stroke="#091757" strokeOpacity="1.000000" strokeWidth="2.000000" strokeLinecap="round"/>
	<path id="Vector" d="M78.1 62.8C78.1 63.4 77.6 63.9 77 63.9C76.39 63.9 75.9 63.4 75.9 62.8C75.9 62.19 76.39 61.7 77 61.7C77.6 61.7 78.1 62.19 78.1 62.8Z" fill="#091757" fill-opacity="1.000000" fill-rule="evenodd"/>
	<path id="Vector" d="M90.1 63.6C90.1 64.2 89.6 64.7 89 64.7C88.39 64.7 87.9 64.2 87.9 63.6C87.9 62.99 88.39 62.5 89 62.5C89.6 62.5 90.1 62.99 90.1 63.6Z" fill="#091757" fill-opacity="1.000000" fill-rule="evenodd"/>
	<path id="Vector" d="M85.5 61.9C87.2 61 90.9 59.6 92.8 62.7" stroke="#091757" strokeOpacity="1.000000" strokeWidth="2.000000" strokeLinecap="round"/>
	<path id="Vector" d="M78.1 76.2C79.3 79.6 83.6 80.6 86.7 77.1" stroke="#091757" strokeOpacity="1.000000" strokeWidth="2.000000" strokeLinecap="round"/>
	<path id="Vector" d="M92.7 81.39C93.1 85.79 95.4 92.19 102 95.1C106.8 97.19 119.3 101.3 121.6 115.6C122.8 123 120.2 139 120.2 139" stroke="#091757" strokeOpacity="1.000000" strokeWidth="2.000000" strokeLinecap="round"/>
	<path id="Vector" d="M79.8 84C79.4 87.1 75.5 92.5 67 96.6C58.9 100.5 53.9 106 52.4 112.2C51.2 117.2 51.1 138.89 51.1 138.89" stroke="#091757" strokeOpacity="1.000000" strokeWidth="2.000000" strokeLinecap="round"/>
	<path id="Vector" d="M75 91.39C78.19 99.29 92.7 102.3 97.6 92.1" stroke="#091757" strokeOpacity="1.000000" strokeWidth="2.000000" strokeLinecap="round"/>
	<path id="Vector" d="M101.6 95.29L90.1 107.1L83.5 98.59L77.6 105.7L68.9 95.69" stroke="#091757" strokeOpacity="1.000000" strokeWidth="2.000000" strokeLinejoin="round" strokeLinecap="round"/>
	<path id="Vector" d="M102.9 127.1L102.1 139" stroke="#091757" strokeOpacity="1.000000" strokeWidth="2.000000" strokeLinejoin="round" strokeLinecap="round"/>
	<path id="Vector" d="M63.6 127.1L64.6 139" stroke="#091757" strokeOpacity="1.000000" strokeWidth="2.000000" strokeLinejoin="round" strokeLinecap="round"/>
	<path id="Vector" d="M84.1 98.5C84.9 98.6 85.7 98.7 86.5 98.8C86.6 98.8 86.8 98.8 86.9 98.8C91.6 98.8 95.4 96.6 97.5 92.6C98.5 93.5 99.6 94.3 100.9 94.89L90 106.2L84.1 98.5Z" fill="#091757" fill-opacity="1.000000" fill-rule="nonzero"/>
	<path id="Vector" d="M69.5 95.5C71.5 94.29 73.3 93.1 74.69 91.89C76.19 94.89 79.19 97.19 82.9 98.19L77.5 104.7L69.5 95.5Z" fill="#091757" fill-opacity="1.000000" fill-rule="nonzero"/>
	<path id="Vector" d="M83.8 100C82.99 106.7 81 117.1 82.49 139" stroke="#091757" strokeOpacity="1.000000" strokeWidth="2.000000" strokeLinejoin="round" strokeLinecap="round"/>
</svg>
