<svg width="352" height="159" viewBox="0 0 352 159" fill="none" xmlns="http://www.w3.org/2000/svg">
  <g clip-path="url(#clip0_41_2065)">
    <path d="M128.2 38.1998C133.833 38.1998 138.4 33.6331 138.4 27.9998C138.4 22.3665 133.833 17.7998 128.2 17.7998C122.567 17.7998 118 22.3665 118 27.9998C118 33.6331 122.567 38.1998 128.2 38.1998Z" fill="#E3EF41" />
    <path fill-rule="evenodd" clip-rule="evenodd" d="M261.7 35.3999C260.352 35.3999 259.2 36.5522 259.2 37.8999V142.5C259.2 143.848 260.352 145 261.7 145H338C339.348 145 340.5 143.848 340.5 142.5V44.6999C340.5 44.1476 340.948 43.6999 341.5 43.6999C342.052 43.6999 342.5 44.1476 342.5 44.6999V142.5C342.5 144.952 340.452 147 338 147H261.7C259.248 147 257.2 144.952 257.2 142.5V37.8999C257.2 35.4476 259.248 33.3999 261.7 33.3999H331C331.552 33.3999 332 33.8476 332 34.3999C332 34.9522 331.552 35.3999 331 35.3999H261.7Z" fill="#091757" />
    <path fill-rule="evenodd" clip-rule="evenodd" d="M294.157 56.911C297.575 54.1364 302.407 52.508 308.607 53.8216L308.611 53.8224C313.34 54.8435 316.828 57.8225 318.663 62.2954C320.481 66.7291 320.653 72.5604 318.971 79.3399C317.223 86.4318 314.003 90.7383 310.449 93.1521C306.91 95.5561 303.125 96.0239 300.345 95.5878L300.344 95.5877C296.233 94.9386 292.283 92.4444 289.836 87.682C287.401 82.9458 286.492 76.0519 288.216 66.6201L288.217 66.6136L288.218 66.6136C288.809 63.4951 290.776 59.656 294.157 56.911ZM290.183 66.9831C288.508 76.1495 289.449 82.5545 291.614 86.7678C293.767 90.9553 297.167 93.0612 300.656 93.6121C302.976 93.9758 306.24 93.5935 309.326 91.4977C312.397 89.4116 315.376 85.5683 317.029 78.8607L317.029 78.8591C318.647 72.339 318.419 66.9706 316.812 63.0544C315.222 59.1779 312.261 56.6571 308.191 55.7778C302.592 54.5921 298.374 56.0637 295.418 58.4638C292.425 60.8929 290.692 64.302 290.183 66.9831Z" fill="#091757" />
    <path fill-rule="evenodd" clip-rule="evenodd" d="M296.399 71.1297C295.199 70.9771 293.97 71.3479 293.232 72.4549C292.926 72.9144 292.305 73.0386 291.845 72.7323C291.386 72.4259 291.262 71.805 291.568 71.3455C292.83 69.4525 294.901 68.9233 296.651 69.1457C297.527 69.257 298.369 69.5586 299.054 70.0109C299.729 70.4564 300.323 71.0983 300.56 71.9188C301.138 73.8556 300.243 75.7217 299.527 77.0302C299.381 77.2979 299.244 77.5381 299.118 77.7598C298.9 78.1422 298.714 78.4695 298.563 78.7877C298.451 79.0245 298.391 79.1938 298.365 79.3115C298.356 79.3542 298.353 79.381 298.352 79.3948C298.508 79.8515 298.789 80.1027 299.118 80.2329C299.475 80.3742 299.938 80.3884 300.406 80.2444C300.934 80.082 301.493 80.3782 301.656 80.9061C301.818 81.434 301.522 81.9936 300.994 82.156C300.162 82.412 299.225 82.4262 298.382 82.0925C297.516 81.7497 296.801 81.0568 296.454 80.0252C296.312 79.617 296.339 79.215 296.411 78.8866C296.483 78.5551 296.615 78.229 296.756 77.9315C296.937 77.5494 297.188 77.1063 297.433 76.6756C297.551 76.4682 297.667 76.2637 297.773 76.0702C298.506 74.73 298.961 73.5487 298.642 72.4875L298.638 72.4749L298.638 72.4749C298.574 72.2486 298.369 71.9553 297.952 71.6801C297.544 71.4106 296.998 71.2059 296.399 71.1297Z" fill="#091757" />
    <path d="M295.7 74.4002C296.308 74.4002 296.8 73.9077 296.8 73.3002C296.8 72.6927 296.308 72.2002 295.7 72.2002C295.093 72.2002 294.6 72.6927 294.6 73.3002C294.6 73.9077 295.093 74.4002 295.7 74.4002Z" fill="#091757" />
    <path d="M307.4 75.2C308.008 75.2 308.5 74.7075 308.5 74.1C308.5 73.4925 308.008 73 307.4 73C306.792 73 306.3 73.4925 306.3 74.1C306.3 74.7075 306.792 75.2 307.4 75.2Z" fill="#091757" />
    <path fill-rule="evenodd" clip-rule="evenodd" d="M307.198 72.1371C306.012 72.1054 305.064 72.5854 304.717 73.0767C304.398 73.5279 303.775 73.6355 303.323 73.317C302.872 72.9985 302.765 72.3745 303.083 71.9233C303.936 70.7146 305.638 70.0946 307.252 70.1379C308.93 70.1828 310.751 70.9416 311.857 72.7855C312.142 73.2591 311.988 73.8733 311.514 74.1575C311.041 74.4416 310.427 74.2881 310.142 73.8145C309.449 72.6584 308.32 72.1672 307.198 72.1371Z" fill="#091757" />
    <path fill-rule="evenodd" clip-rule="evenodd" d="M295.725 84.1388C296.256 83.9871 296.81 84.2946 296.962 84.8256C297.331 86.1201 298.577 87.1157 300.177 87.4037C301.752 87.6871 303.51 87.2447 304.75 85.8387C305.116 85.4246 305.748 85.3851 306.162 85.7505C306.576 86.1159 306.615 86.7479 306.25 87.162C304.49 89.156 301.998 89.7636 299.823 89.372C297.673 88.985 295.669 87.5806 295.038 85.3751C294.887 84.844 295.194 84.2906 295.725 84.1388Z" fill="#091757" />
    <path fill-rule="evenodd" clip-rule="evenodd" d="M300.258 61.4278C297.191 61.4996 293.834 62.7083 290.359 65.7522C289.943 66.116 289.312 66.0742 288.948 65.6588C288.584 65.2433 288.626 64.6115 289.041 64.2477C292.816 60.9415 296.609 59.5127 300.211 59.4283C303.799 59.3442 307.092 60.5966 309.882 62.4697C312.67 64.341 314.99 66.854 316.661 69.3683C318.319 71.8638 319.399 74.4538 319.595 76.5045C319.648 77.0542 319.245 77.5426 318.695 77.5953C318.146 77.6481 317.657 77.2451 317.605 76.6954C317.451 75.096 316.556 72.8235 314.995 70.4752C313.447 68.1458 311.305 65.8338 308.768 64.1302C306.233 62.4282 303.338 61.3556 300.258 61.4278Z" fill="#091757" />
    <path fill-rule="evenodd" clip-rule="evenodd" d="M305.545 93.2012C306.097 93.2263 306.524 93.6939 306.499 94.2456C306.35 97.5215 306.652 99.2455 307.63 100.515C308.649 101.839 310.533 102.857 314.162 104.268C317.832 105.695 325.116 109.131 331.398 115.246C337.698 121.38 343.011 130.238 342.599 142.434C342.581 142.986 342.118 143.418 341.566 143.4C341.014 143.381 340.582 142.918 340.601 142.366C340.989 130.863 336.002 122.521 330.002 116.679C323.984 110.82 316.968 107.505 313.438 106.132C309.867 104.744 307.451 103.562 306.045 101.735C304.598 99.8549 304.35 97.4789 304.501 94.1548C304.526 93.6031 304.994 93.1762 305.545 93.2012Z" fill="#091757" />
    <path fill-rule="evenodd" clip-rule="evenodd" d="M294.405 91.6445C294.932 91.4814 295.492 91.7769 295.655 92.3046C296.635 95.473 295.615 98.43 293.389 100.873C291.187 103.291 287.767 105.264 283.723 106.646L283.721 106.647C272.536 110.44 259.3 121.318 259.3 142.5C259.3 143.052 258.852 143.5 258.3 143.5C257.748 143.5 257.3 143.052 257.3 142.5C257.3 120.283 271.263 108.76 283.078 104.753C286.933 103.435 290.013 101.609 291.911 99.5264C293.785 97.4698 294.465 95.2268 293.745 92.8952C293.582 92.3675 293.877 91.8076 294.405 91.6445Z" fill="#091757" />
    <path fill-rule="evenodd" clip-rule="evenodd" d="M282.556 105.063C282.853 104.597 283.471 104.46 283.937 104.757C284.382 105.04 284.888 105.431 285.476 105.886C287.361 107.342 290.089 109.449 294.341 110.744C299.825 112.413 307.827 112.655 319.296 107.586C319.801 107.362 320.391 107.591 320.615 108.096C320.838 108.601 320.609 109.192 320.104 109.415C308.273 114.645 299.775 114.488 293.759 112.657C289.089 111.236 285.897 108.757 284.055 107.327C283.562 106.944 283.165 106.636 282.863 106.444C282.397 106.147 282.26 105.529 282.556 105.063Z" fill="#091757" />
    <path fill-rule="evenodd" clip-rule="evenodd" d="M314.941 131.434C315.475 131.291 316.023 131.608 316.166 132.142L319.566 144.842C319.709 145.375 319.392 145.923 318.859 146.066C318.325 146.209 317.777 145.892 317.634 145.359L314.234 132.659C314.091 132.125 314.408 131.577 314.941 131.434Z" fill="#091757" />
    <path fill-rule="evenodd" clip-rule="evenodd" d="M279.717 131.424C280.256 131.544 280.596 132.078 280.476 132.617L277.476 146.117C277.356 146.656 276.822 146.996 276.283 146.876C275.744 146.756 275.404 146.222 275.524 145.683L278.524 132.183C278.644 131.644 279.178 131.304 279.717 131.424Z" fill="#091757" />
    <path fill-rule="evenodd" clip-rule="evenodd" d="M316.932 42.5025C320.198 43.6042 323.231 45.8258 324.16 49.0207C325.052 52.085 324.365 54.5966 322.573 56.4042C320.842 58.1489 318.193 59.1271 315.326 59.492C314.778 59.5617 314.278 59.1741 314.208 58.6262C314.138 58.0784 314.526 57.5777 315.074 57.508C317.707 57.1728 319.858 56.3011 321.152 54.9958C322.385 53.7534 322.948 52.015 322.24 49.5793C321.569 47.2742 319.252 45.3958 316.293 44.3975C313.346 43.4036 310.084 43.3979 307.84 44.4979C305.881 45.4581 305.43 47.5591 305.634 49.8488C305.732 50.9567 305.981 52.0049 306.208 52.7833C306.321 53.1703 306.428 53.4853 306.505 53.7014C306.544 53.8093 306.575 53.8922 306.596 53.9466C306.607 53.9739 306.615 53.994 306.62 54.0065L306.625 54.0195L306.625 54.0209C306.625 54.0208 306.625 54.0211 306.625 54.0209C306.625 54.0207 306.625 54.0209 305.7 54.4L304.775 54.7791C304.984 55.2901 305.568 55.5347 306.079 55.3254C306.59 55.1161 306.834 54.5319 306.625 54.0209M305.7 54.4C304.775 54.7791 304.775 54.7794 304.775 54.7791L304.773 54.7753L304.77 54.7684L304.761 54.7457C304.754 54.7267 304.743 54.6999 304.73 54.6657C304.704 54.5974 304.667 54.4995 304.622 54.3756C304.534 54.1279 304.415 53.775 304.289 53.3448C304.038 52.4888 303.755 51.3058 303.641 50.0262C303.42 47.5409 303.819 44.2419 306.96 42.7021C309.816 41.3021 313.654 41.3964 316.932 42.5025" fill="#091757" />
    <path d="M296 57.0001C298.4 55.4001 301.2 54.6001 304.2 54.6001C305.5 54.6001 306.8 54.7001 308.2 55.0001C311.6 55.7001 314.4 57.6001 316.1 60.5001C318.2 63.9001 318.9 68.6001 318.3 74.1001C316.7 69.5001 312 63.4001 305.8 60.9001C302.2 59.5001 296.7 58.8001 290.7 63.3001C291.7 61.1001 293.5 58.7001 296 57.0001Z" fill="#091757" />
    <path d="M307.4 43.7999C310 42.4999 314 42.5999 317.4 44.0999C320.1 45.2999 321.9 47.0999 322.5 49.1999C323.1 51.1999 322.9 52.8999 322 54.2999C320.8 56.0999 318.4 57.2999 315.1 57.7999C313.3 55.9999 311 54.6999 308.4 54.1999C307.5 53.9999 306.7 53.8999 305.8 53.7999C305.4 52.5999 303.2 45.8999 307.4 43.7999Z" fill="#091757" />
    <path d="M341.6 44.6998C347.233 44.6998 351.8 40.1331 351.8 34.4998C351.8 28.8665 347.233 24.2998 341.6 24.2998C335.967 24.2998 331.4 28.8665 331.4 34.4998C331.4 40.1331 335.967 44.6998 341.6 44.6998Z" fill="#E3EF41" />
    <path fill-rule="evenodd" clip-rule="evenodd" d="M220.962 145.3H235.839L228.4 158.089L220.962 145.3ZM224.439 147.3L228.4 154.111L232.362 147.3H224.439Z" fill="#091757" />
    <path fill-rule="evenodd" clip-rule="evenodd" d="M-0.0296631 43.7998H14.8297L7.4 56.704L-0.0296631 43.7998ZM3.42966 45.7998L7.4 52.6957L11.3703 45.7998H3.42966Z" fill="#091757" />
    <path fill-rule="evenodd" clip-rule="evenodd" d="M341.6 28.3999C342.152 28.3999 342.6 28.8476 342.6 29.3999V39.5999C342.6 40.1522 342.152 40.5999 341.6 40.5999C341.048 40.5999 340.6 40.1522 340.6 39.5999V29.3999C340.6 28.8476 341.048 28.3999 341.6 28.3999Z" fill="#091757" />
    <path fill-rule="evenodd" clip-rule="evenodd" d="M335.5 34.5C335.5 33.9477 335.948 33.5 336.5 33.5H346.7C347.252 33.5 347.7 33.9477 347.7 34.5C347.7 35.0523 347.252 35.5 346.7 35.5H336.5C335.948 35.5 335.5 35.0523 335.5 34.5Z" fill="#091757" />
    <path fill-rule="evenodd" clip-rule="evenodd" d="M154.1 13.7002C154.1 11.2479 156.148 9.2002 158.6 9.2002H228C228.552 9.2002 229 9.64791 229 10.2002C229 10.7525 228.552 11.2002 228 11.2002H158.6C157.252 11.2002 156.1 12.3525 156.1 13.7002V118.2C156.1 119.548 157.252 120.7 158.6 120.7H235C236.348 120.7 237.5 119.548 237.5 118.2V21.1002C237.5 20.5479 237.948 20.1002 238.5 20.1002C239.052 20.1002 239.5 20.5479 239.5 21.1002V118.2C239.5 120.652 237.452 122.7 235 122.7H158.6C156.148 122.7 154.1 120.652 154.1 118.2V13.7002Z" fill="#091757" />
    <path fill-rule="evenodd" clip-rule="evenodd" d="M204.209 27.3946C199.103 26.861 193.877 27.7362 191.235 28.3719C185.744 29.7092 181.767 32.8042 179.648 37.4757C178.116 40.8526 177.523 45.1246 178.11 50.2662C182.236 49.9628 184.905 47.7128 186.595 45.4193C187.499 44.193 188.112 42.9642 188.5 42.04C188.693 41.5792 188.828 41.1979 188.914 40.9354C188.957 40.8043 188.988 40.7031 189.007 40.6369C189.017 40.6039 189.024 40.5796 189.028 40.5646L189.032 40.5494L189.032 40.548L189.32 39.4409L190.379 39.8746C201.895 44.5901 209.082 44.463 212.945 42.6223C214.852 41.7135 215.958 40.3889 216.45 38.9801C216.945 37.5608 216.844 35.9762 216.189 34.5117C214.057 29.8451 209.335 27.9304 204.209 27.3946ZM190.616 42.1254C190.539 42.3317 190.449 42.5625 190.344 42.8132C189.913 43.8421 189.226 45.2195 188.205 46.6057C186.294 49.1989 183.177 51.8566 178.388 52.2507C178.626 53.686 178.95 55.1834 179.366 56.7424L179.367 56.7455C183.766 73.462 196.165 78.9259 202.263 78.1094C206.818 77.4641 210.928 74.4298 213.486 68.6693C216.005 62.9964 217.004 54.6844 215.319 43.5458C214.861 43.8698 214.356 44.1653 213.805 44.4278C209.301 46.5738 201.753 46.5153 190.616 42.1254ZM216.959 42.0492C217.578 41.3131 218.038 40.4998 218.338 39.6387C219.018 37.6903 218.857 35.576 218.013 33.6914L218.01 33.6849C215.44 28.054 209.814 25.9696 204.416 25.4055C198.998 24.8392 193.525 25.7636 190.766 26.4278L190.763 26.4284C184.755 27.8913 180.232 31.3463 177.827 36.6494C175.437 41.9175 175.198 48.8718 177.433 57.256C182.034 74.7353 195.23 81.0721 202.533 80.0911L202.54 80.0902C207.885 79.3344 212.522 75.7688 215.314 69.4808C218.094 63.2199 219.056 54.2574 217.187 42.5425C217.157 42.3532 217.076 42.1847 216.959 42.0492Z" fill="#091757" />
    <path fill-rule="evenodd" clip-rule="evenodd" d="M207.568 48.1269C209.556 48.0133 211.859 48.6606 213.582 50.2692C213.986 50.646 214.008 51.2788 213.631 51.6826C213.254 52.0863 212.621 52.1082 212.218 51.7313C210.941 50.5399 209.194 50.0373 207.682 50.1236C206.103 50.2139 205.176 50.8863 204.957 51.5901C204.761 52.2552 204.817 53.141 205.104 54.2274C205.388 55.3008 205.865 56.4539 206.385 57.5993C206.566 57.9981 206.757 58.4039 206.944 58.8039C207.277 59.5135 207.601 60.2044 207.849 60.8035C208.047 61.2814 208.219 61.7525 208.324 62.1837C208.422 62.5892 208.496 63.0919 208.363 63.5679C208.184 64.2148 207.836 64.7308 207.337 65.0855C206.854 65.429 206.304 65.569 205.792 65.6096C204.798 65.6885 203.714 65.4085 202.902 65.1547C202.374 64.99 202.081 64.4291 202.245 63.902C202.41 63.3748 202.971 63.0811 203.498 63.2458C204.286 63.492 205.052 63.662 205.633 63.6159C205.909 63.594 206.077 63.5278 206.178 63.4557C206.264 63.3947 206.366 63.2857 206.436 63.0326C206.436 63.0354 206.435 63.0368 206.435 63.0367C206.434 63.0365 206.448 62.9321 206.38 62.6555C206.312 62.3722 206.184 62.0113 206.001 61.5689C205.768 61.0062 205.48 60.3935 205.165 59.72C204.973 59.3119 204.771 58.8814 204.564 58.4262C204.034 57.2591 203.499 55.981 203.171 54.7388C202.846 53.5122 202.689 52.1996 203.041 51.0153L203.044 51.0062L203.044 51.0062C203.627 49.1116 205.65 48.2365 207.568 48.1269Z" fill="#091757" />
    <path d="M208.8 54.1003C209.573 54.1003 210.2 53.4735 210.2 52.7003C210.2 51.9271 209.573 51.3003 208.8 51.3003C208.027 51.3003 207.4 51.9271 207.4 52.7003C207.4 53.4735 208.027 54.1003 208.8 54.1003Z" fill="#091757" />
    <path d="M194.3 55.1003C195.073 55.1003 195.7 54.4735 195.7 53.7003C195.7 52.9271 195.073 52.3003 194.3 52.3003C193.527 52.3003 192.9 52.9271 192.9 53.7003C192.9 54.4735 193.527 55.1003 194.3 55.1003Z" fill="#091757" />
    <path fill-rule="evenodd" clip-rule="evenodd" d="M194.358 49.4013C196.232 49.4859 198.012 50.2355 199.082 50.8241C199.566 51.0902 199.742 51.6983 199.476 52.1822C199.21 52.6661 198.602 52.8427 198.118 52.5765C197.188 52.0651 195.717 51.4647 194.267 51.3993C192.872 51.3363 191.563 51.7577 190.649 53.2282C190.358 53.6973 189.741 53.8411 189.272 53.5496C188.803 53.258 188.659 52.6414 188.951 52.1724C190.337 49.9428 192.428 49.3142 194.358 49.4013Z" fill="#091757" />
    <path fill-rule="evenodd" clip-rule="evenodd" d="M196.32 69.167C196.725 68.7915 197.358 68.8156 197.733 69.2206C199.438 71.06 201.209 71.5654 202.651 71.5135C204.155 71.4594 205.318 70.8033 205.767 70.3199C206.143 69.9152 206.776 69.8918 207.18 70.2676C207.585 70.6434 207.609 71.2761 207.233 71.6808C206.382 72.5975 204.695 73.4413 202.723 73.5122C200.691 73.5853 198.362 72.8407 196.267 70.5802C195.891 70.1751 195.915 69.5424 196.32 69.167Z" fill="#091757" />
    <path fill-rule="evenodd" clip-rule="evenodd" d="M189.994 74.1046C190.544 74.1565 190.947 74.6442 190.896 75.1941C190.378 80.6849 187.465 88.8147 179.098 92.4174C178.882 92.5121 178.656 92.6107 178.419 92.7134C172.395 95.3318 160.08 100.684 156.069 116.447C155.933 116.982 155.389 117.305 154.853 117.169C154.318 117.033 153.995 116.489 154.131 115.954C158.387 99.2263 171.524 93.5254 177.586 90.8944C177.836 90.786 178.074 90.6829 178.298 90.5844L178.305 90.5816L178.305 90.5816C185.735 87.3836 188.422 80.1147 188.904 75.0062C188.956 74.4564 189.444 74.0527 189.994 74.1046Z" fill="#091757" />
    <path fill-rule="evenodd" clip-rule="evenodd" d="M205.366 77.2093C205.913 77.1354 206.417 77.5191 206.491 78.0664C206.702 79.6312 207.855 81.9982 210.285 84.6351C212.693 87.247 216.289 90.0507 221.24 92.5023C231.186 97.3225 236.553 104.428 239.336 111.849C239.53 112.366 239.268 112.943 238.751 113.137C238.234 113.331 237.658 113.069 237.464 112.551C234.847 105.573 229.816 98.88 220.364 94.3002L220.356 94.2965L220.356 94.2965C215.209 91.7485 211.407 88.803 208.815 85.9905C206.245 83.2024 204.798 80.4694 204.509 78.3342C204.435 77.7869 204.819 77.2833 205.366 77.2093Z" fill="#091757" />
    <path fill-rule="evenodd" clip-rule="evenodd" d="M212.131 86.4532C212.599 86.7467 212.741 87.3638 212.447 87.8317C208.385 94.3098 196.886 98.7911 183.498 88.6989C183.057 88.3665 182.969 87.7395 183.301 87.2985C183.634 86.8574 184.261 86.7694 184.702 87.1019C197.314 96.6097 207.415 92.091 210.753 86.7691C211.046 86.3012 211.663 86.1598 212.131 86.4532Z" fill="#091757" />
    <path d="M235.5 121.2H159.2C157.5 121.2 156.2 119.9 156.2 118.2V116.2C160.2 100.2 172.8 94.8 178.9 92.2L179.5 91.9C181.6 91 183.3 89.8 184.7 88.5C190.6 92.8 195.7 94 199.6 94C200.8 94 201.8 93.9 202.8 93.7C206.7 93 210.2 90.9 212.3 88C214.7 90 217.6 92 221.3 93.8C229.7 97.9 235.5 104.1 238.6 112.3V118.2C238.5 119.8 237.1 121.2 235.5 121.2Z" fill="#091757" />
    <path d="M238.6 20.4C244.233 20.4 248.8 15.8333 248.8 10.2C248.8 4.5667 244.233 0 238.6 0C232.967 0 228.4 4.5667 228.4 10.2C228.4 15.8333 232.967 20.4 238.6 20.4Z" fill="#E3EF41" />
    <path fill-rule="evenodd" clip-rule="evenodd" d="M238.6 4.1001C239.152 4.1001 239.6 4.54781 239.6 5.1001V15.3001C239.6 15.8524 239.152 16.3001 238.6 16.3001C238.048 16.3001 237.6 15.8524 237.6 15.3001V5.1001C237.6 4.54781 238.048 4.1001 238.6 4.1001Z" fill="#091757" />
    <path fill-rule="evenodd" clip-rule="evenodd" d="M232.5 10.2002C232.5 9.64791 232.948 9.2002 233.5 9.2002H243.7C244.252 9.2002 244.7 9.64791 244.7 10.2002C244.7 10.7525 244.252 11.2002 243.7 11.2002H233.5C232.948 11.2002 232.5 10.7525 232.5 10.2002Z" fill="#091757" />
    <path fill-rule="evenodd" clip-rule="evenodd" d="M128.2 21.8999C128.752 21.8999 129.2 22.3476 129.2 22.8999V33.0999C129.2 33.6522 128.752 34.0999 128.2 34.0999C127.648 34.0999 127.2 33.6522 127.2 33.0999V22.8999C127.2 22.3476 127.648 21.8999 128.2 21.8999Z" fill="#091757" />
    <path fill-rule="evenodd" clip-rule="evenodd" d="M122.1 28C122.1 27.4477 122.548 27 123.1 27H133.3C133.852 27 134.3 27.4477 134.3 28C134.3 28.5523 133.852 29 133.3 29H123.1C122.548 29 122.1 28.5523 122.1 28Z" fill="#091757" />
    <path fill-rule="evenodd" clip-rule="evenodd" d="M43.8 31.1001C43.8 28.6478 45.8477 26.6001 48.3 26.6001H117.7C118.252 26.6001 118.7 27.0478 118.7 27.6001C118.7 28.1524 118.252 28.6001 117.7 28.6001H48.3C46.9523 28.6001 45.8 29.7524 45.8 31.1001V135.6C45.8 136.948 46.9523 138.1 48.3 138.1H124.6C125.948 138.1 127.1 136.948 127.1 135.6V38.4001C127.1 37.8478 127.548 37.4001 128.1 37.4001C128.652 37.4001 129.1 37.8478 129.1 38.4001V135.6C129.1 138.052 127.052 140.1 124.6 140.1H48.3C45.8477 140.1 43.8 138.052 43.8 135.6V31.1001Z" fill="#091757" />
    <path fill-rule="evenodd" clip-rule="evenodd" d="M76.4637 41.0101C81.2856 39.9679 87.4271 39.2141 92.1873 40.6422L92.1977 40.6453C97.0655 42.1632 100.819 45.0785 102.846 49.4818C104.309 52.6603 104.838 56.5373 104.315 61.0965C104.371 61.2235 104.402 61.3642 104.4 61.5121C104.397 61.7438 104.316 61.9562 104.181 62.1242C103.975 63.538 103.672 65.0145 103.267 66.5532C99.4714 81.1201 88.4821 86.5756 82.2631 85.6906C77.7673 85.0861 73.8541 82.0948 71.4997 76.8335C69.1562 71.5967 68.3439 64.1079 69.9126 54.3414C69.9324 54.2181 69.974 54.1037 70.0328 54.0015C67.4971 51.7673 66.9806 48.0552 67.2017 44.3406L67.2404 43.6913L67.8495 43.4634L68.2 44.4C67.8495 43.4634 67.8493 43.4635 67.8495 43.4634L67.8536 43.4619L67.8629 43.4585L67.8974 43.4457C67.9274 43.4347 67.9711 43.4187 68.028 43.3982C68.1418 43.3572 68.3082 43.298 68.5223 43.2239C68.9504 43.0758 69.5696 42.8683 70.3399 42.6281C71.8792 42.1483 74.0276 41.5367 76.4637 41.0101ZM69.1675 45.117C69.0404 48.9374 69.8729 51.7895 72.2423 53.1296C73.5276 53.8565 75.3991 54.2298 78.1106 53.9521C80.8214 53.6745 84.3005 52.7527 88.7268 50.9723L89.5003 50.6611L89.9451 51.3654L89.9472 51.3688L89.9576 51.3849C89.9674 51.4 89.9828 51.4238 90.0038 51.4556C90.0459 51.5193 90.1101 51.6151 90.1957 51.7386C90.367 51.9856 90.6233 52.3425 90.9573 52.773C91.6264 53.6354 92.6011 54.7848 93.8227 55.9342C96.0645 58.0435 99.0243 60.0471 102.375 60.4338C102.783 56.3533 102.263 52.9978 101.029 50.3182C99.2819 46.523 96.037 43.9388 91.6075 42.5563C87.3683 41.2865 81.6624 41.9326 76.8862 42.9649C74.5224 43.4759 72.4332 44.0705 70.9351 44.5375C70.1866 44.7709 69.587 44.9719 69.1761 45.114C69.1732 45.115 69.1704 45.116 69.1675 45.117ZM102.112 62.417C98.1486 61.9497 94.8082 59.6075 92.4522 57.3908C91.1364 56.1528 90.0923 54.9209 89.3771 53.9989C89.1158 53.6622 88.8976 53.3658 88.7252 53.1241C84.5427 54.7556 81.1134 55.655 78.3144 55.9417C75.6501 56.2146 73.4991 55.9377 71.8096 55.1537C70.3856 64.4371 71.2308 71.3362 73.3253 76.0166C75.4451 80.7537 78.8304 83.2122 82.5329 83.7089L82.5414 83.71C87.5231 84.4217 97.729 79.8766 101.332 66.0479L101.333 66.0459C101.665 64.7829 101.923 63.5735 102.112 62.417Z" fill="#091757" />
    <path fill-rule="evenodd" clip-rule="evenodd" d="M77.9443 60.8226C76.7259 60.7393 75.3139 61.1408 74.2925 62.1213C73.8941 62.5038 73.2611 62.4908 72.8786 62.0924C72.4961 61.694 72.509 61.061 72.9074 60.6785C74.3861 59.259 76.374 58.7105 78.0807 58.8272C79.7111 58.9387 81.4922 59.7224 81.9625 61.4287C82.2595 62.4591 82.1187 63.4739 81.8195 64.3769C81.5215 65.2764 81.0442 66.1305 80.5904 66.8719C80.4018 67.18 80.225 67.4575 80.0609 67.715C79.8035 68.119 79.5774 68.4736 79.3869 68.8197C79.239 69.0885 79.1487 69.2908 79.1032 69.44C79.0853 69.4986 79.0781 69.5369 79.0752 69.5584C79.455 70.5679 80.6326 71.3516 81.7414 71.5099C82.2881 71.5881 82.668 72.0946 82.5899 72.6413C82.5118 73.1881 82.0053 73.568 81.4586 73.4898C79.7946 73.2521 77.8028 72.0707 77.1513 70.1161L77.1416 70.0871L77.1337 70.0576C77.0162 69.6168 77.0881 69.1912 77.1901 68.8567C77.2943 68.5152 77.4594 68.1738 77.6349 67.8551C77.8514 67.4619 78.1416 67.0053 78.4287 66.5537C78.5858 66.3065 78.742 66.0608 78.8846 65.8279C79.3182 65.1193 79.6972 64.4234 79.921 63.7479C80.143 63.0781 80.1897 62.4957 80.0396 61.9787L80.0374 61.9709L80.0352 61.963C79.9021 61.4749 79.2363 60.9109 77.9443 60.8226Z" fill="#091757" />
    <path d="M77 63.8997C77.6075 63.8997 78.1 63.4072 78.1 62.7997C78.1 62.1922 77.6075 61.6997 77 61.6997C76.3925 61.6997 75.9 62.1922 75.9 62.7997C75.9 63.4072 76.3925 63.8997 77 63.8997Z" fill="#091757" />
    <path d="M89 64.7C89.6075 64.7 90.1 64.2075 90.1 63.6C90.1 62.9925 89.6075 62.5 89 62.5C88.3924 62.5 87.9 62.9925 87.9 63.6C87.9 64.2075 88.3924 64.7 89 64.7Z" fill="#091757" />
    <path fill-rule="evenodd" clip-rule="evenodd" d="M89.1294 61.7985C87.9666 61.8619 86.7678 62.3603 85.9678 62.7838C85.4797 63.0422 84.8746 62.856 84.6162 62.3679C84.3578 61.8798 84.544 61.2746 85.0321 61.0162C85.9321 60.5397 87.4333 59.8881 89.0205 59.8015C90.6692 59.7116 92.4663 60.242 93.6526 62.1774C93.9412 62.6483 93.7934 63.264 93.3225 63.5526C92.8516 63.8412 92.236 63.6934 91.9474 63.2226C91.2336 62.058 90.2307 61.7385 89.1294 61.7985Z" fill="#091757" />
    <path fill-rule="evenodd" clip-rule="evenodd" d="M77.7672 75.257C78.288 75.0732 78.8592 75.3464 79.043 75.8672C79.5227 77.2264 80.597 78.0661 81.8332 78.2482C83.0638 78.4294 84.5913 77.9726 85.9514 76.4369C86.3176 76.0235 86.9496 75.9852 87.363 76.3514C87.7764 76.7176 87.8147 77.3496 87.4486 77.763C85.7087 79.7274 83.5361 80.5205 81.5418 80.2268C79.5529 79.9339 77.8772 78.5735 77.157 76.5328C76.9732 76.012 77.2464 75.4408 77.7672 75.257Z" fill="#091757" />
    <path fill-rule="evenodd" clip-rule="evenodd" d="M92.6094 80.4041C93.1594 80.3541 93.6458 80.7594 93.6958 81.3094C94.0781 85.5143 96.2652 91.4875 102.402 94.1841C102.764 94.3429 103.178 94.5152 103.634 94.7049C109.046 96.9582 120.372 101.674 122.587 115.44C123.211 119.287 122.844 125.261 122.345 130.176C122.093 132.654 121.804 134.898 121.578 136.522C121.465 137.335 121.367 137.993 121.298 138.448C121.263 138.676 121.236 138.853 121.217 138.974L121.195 139.112L121.187 139.159C121.187 139.16 121.187 139.16 120.2 139L119.213 138.84L119.22 138.796L119.241 138.663C119.26 138.545 119.287 138.372 119.321 138.148C119.389 137.699 119.485 137.05 119.597 136.246C119.821 134.639 120.107 132.421 120.355 129.974C120.856 125.039 121.189 119.313 120.613 115.76L120.613 115.759C118.584 103.144 108.309 98.8365 102.861 96.5521C102.404 96.3604 101.981 96.183 101.599 96.0161L101.598 96.0155C94.5345 92.912 92.1218 86.0855 91.7041 81.4905C91.6541 80.9405 92.0594 80.4541 92.6094 80.4041ZM120.2 139L119.213 138.84C119.124 139.385 119.494 139.898 120.04 139.987C120.585 140.076 121.098 139.705 121.187 139.16L120.2 139Z" fill="#091757" />
    <path fill-rule="evenodd" clip-rule="evenodd" d="M79.928 83.0083C80.4757 83.079 80.8624 83.5803 80.7918 84.1281C80.7666 84.3234 80.7304 84.5224 80.684 84.7243C80.6222 84.9928 80.5419 85.2679 80.4438 85.548C80.316 85.9131 80.1572 86.2891 79.9683 86.673C79.7492 87.1184 79.4885 87.5765 79.1863 88.0435C78.9036 88.4801 78.584 88.9254 78.227 89.3761C77.8276 89.8804 77.3808 90.3921 76.8856 90.9068C76.1259 91.6965 75.2515 92.4941 74.2581 93.2832C73.1578 94.1571 71.9107 95.0212 70.5107 95.853C69.7069 96.3306 68.8525 96.7975 67.9464 97.2496C67.7776 97.3339 67.6069 97.4176 67.4344 97.5008C67.1675 97.6293 66.9036 97.7598 66.6438 97.8917C65.4345 98.5059 64.303 99.1563 63.2504 99.8391C61.9298 100.696 60.7339 101.603 59.664 102.553C58.5726 103.522 57.6128 104.536 56.7854 105.586C55.9319 106.669 55.2191 107.791 54.6479 108.944C54.086 110.078 53.6602 111.244 53.3722 112.434C52.9609 114.149 52.6701 118.099 52.4753 122.544C52.4105 124.022 52.3567 125.541 52.312 127.03C52.223 130.001 52.1706 132.851 52.1402 135.014C52.1236 136.191 52.1135 137.164 52.1076 137.843C52.1047 138.182 52.1028 138.448 52.1016 138.629L52.1 138.905C52.0974 139.457 51.6476 139.903 51.0954 139.9C50.5431 139.898 50.0974 139.448 50.1 138.895L50.1016 138.616C50.1028 138.434 50.1047 138.166 50.1077 137.825C50.1137 137.144 50.1237 136.167 50.1404 134.986C50.1709 132.816 50.2235 129.955 50.3129 126.97C50.3578 125.474 50.4119 123.945 50.4772 122.456C50.6693 118.073 50.9618 113.908 51.4276 111.967L51.428 111.965C51.7521 110.626 52.2298 109.32 52.8558 108.056C53.4919 106.772 54.2802 105.534 55.2145 104.348C56.12 103.199 57.1623 102.1 58.3359 101.058C59.4863 100.036 60.7633 99.0685 62.162 98.1612C63.277 97.4379 64.4698 96.7526 65.7383 96.1085C66.0107 95.9702 66.2866 95.8337 66.5659 95.6992M66.5659 95.6992C66.7302 95.62 66.8929 95.5402 67.0535 95.46C67.9168 95.0293 68.7282 94.5857 69.4892 94.1336C70.8148 93.346 71.9872 92.5328 73.0141 91.7171C73.9414 90.9805 74.7495 90.2425 75.4443 89.5202C75.8972 89.0495 76.3015 88.5859 76.6593 88.1343C76.9791 87.7306 77.2612 87.3369 77.5073 86.9567C77.7706 86.5499 77.992 86.1597 78.1738 85.7901C78.3306 85.4714 78.4572 85.1696 78.5561 84.8871C78.632 84.6705 78.6911 84.4664 78.7349 84.2759C78.7678 84.1328 78.7919 83.9981 78.8082 83.8721C78.8789 83.3244 79.3802 82.9377 79.928 83.0083" fill="#091757" />
    <path fill-rule="evenodd" clip-rule="evenodd" d="M74.6246 90.4733C75.1364 90.266 75.7195 90.5128 75.9268 91.0247C77.3522 94.5435 81.3899 97.1066 85.7617 97.5426C90.0743 97.9727 94.4684 96.3097 96.6986 91.6671C96.9378 91.1693 97.5352 90.9596 98.033 91.1988C98.5308 91.4379 98.7405 92.0354 98.5014 92.5332C95.8316 98.0907 90.5257 100.028 85.5633 99.5327C80.6601 99.0437 75.8478 96.1568 74.0731 91.7756C73.8658 91.2637 74.1127 90.6807 74.6246 90.4733Z" fill="#091757" />
    <path fill-rule="evenodd" clip-rule="evenodd" d="M102.298 94.5837C102.693 94.9691 102.702 95.6022 102.316 95.9977L90.8161 107.798C90.6143 108.005 90.3326 108.114 90.0439 108.098C89.7551 108.082 89.4875 107.942 89.3101 107.713L83.4735 100.196L78.3691 106.339C78.1816 106.565 77.9046 106.696 77.6113 106.7C77.318 106.703 77.038 106.577 76.8455 106.356L68.1455 96.3562C67.783 95.9395 67.8269 95.3079 68.2436 94.9454C68.6603 94.5829 69.2919 94.6268 69.6544 95.0434L77.5825 104.156L82.7309 97.9607C82.9246 97.7276 83.2135 97.5949 83.5165 97.5999C83.8196 97.605 84.104 97.7471 84.2898 97.9865L90.1854 105.579L100.884 94.6019C101.269 94.2063 101.902 94.1982 102.298 94.5837Z" fill="#091757" />
    <path fill-rule="evenodd" clip-rule="evenodd" d="M102.967 126.102C103.518 126.139 103.935 126.616 103.898 127.167L103.098 139.067C103.061 139.618 102.584 140.035 102.033 139.998C101.482 139.961 101.065 139.484 101.102 138.933L101.902 127.033C101.939 126.482 102.416 126.065 102.967 126.102Z" fill="#091757" />
    <path fill-rule="evenodd" clip-rule="evenodd" d="M63.5162 126.104C64.0666 126.057 64.5502 126.466 64.5965 127.016L65.5965 138.916C65.6427 139.467 65.2341 139.95 64.6837 139.997C64.1334 140.043 63.6497 139.634 63.6035 139.084L62.6035 127.184C62.5572 126.634 62.9659 126.15 63.5162 126.104Z" fill="#091757" />
    <path d="M84.1 98.5001C84.9 98.6001 85.7 98.7001 86.5 98.8001C86.6 98.8001 86.8 98.8001 86.9 98.8001C91.6 98.8001 95.4 96.6001 97.5 92.6001C98.5 93.5001 99.6 94.3001 100.9 94.9001L90 106.2L84.1 98.5001Z" fill="#091757" />
    <path d="M69.5 95.4999C71.5 94.2999 73.3 93.0999 74.7 91.8999C76.2 94.8999 79.2 97.1999 82.9 98.1999L77.5 104.7L69.5 95.4999Z" fill="#091757" />
    <path fill-rule="evenodd" clip-rule="evenodd" d="M83.9185 99.0072C84.4669 99.0726 84.8584 99.5703 84.7929 100.119C84.6936 100.951 84.5759 101.839 84.4489 102.797C83.5526 109.561 82.1901 119.842 83.4976 138.932C83.5354 139.483 83.1193 139.96 82.5683 139.998C82.0173 140.035 81.5401 139.619 81.5023 139.068C80.1812 119.78 81.5644 109.341 82.4644 102.549C82.5912 101.592 82.7083 100.708 82.807 99.8815C82.8725 99.3331 83.3702 98.9417 83.9185 99.0072Z" fill="#091757" />
  </g>
  <defs>
    <clipPath id="clip0_41_2065">
      <rect width="351.8" height="158.1" fill="white" />
    </clipPath>
  </defs>
</svg>
