<svg width="381" height="180" viewBox="0 0 381 180" fill="none" xmlns="http://www.w3.org/2000/svg">
  <g clip-path="url(#clip0_41_1940)">
    <path fill-rule="evenodd" clip-rule="evenodd" d="M249.858 149.339C257.554 148.239 263.472 147.718 271.564 148.237C272.583 148.302 273.595 148.387 274.602 148.491C276.817 148.718 279.004 149.032 281.171 149.407C285.416 150.142 289.59 151.115 293.74 152.141C294.984 152.448 296.223 152.76 297.461 153.071C299.416 153.562 301.37 154.053 303.34 154.528C307.239 155.467 311.159 156.331 315.159 156.976C319.339 157.651 323.601 158.086 328.007 158.119C332.887 158.156 337.949 157.699 343.273 156.523C349.192 155.216 355.448 153.018 362.146 149.609C362.639 149.358 363.241 149.554 363.491 150.046C363.742 150.538 363.546 151.14 363.054 151.391C356.213 154.872 349.799 157.131 343.705 158.476C338.223 159.687 333.011 160.157 327.992 160.119C323.464 160.085 319.097 159.637 314.841 158.951C310.769 158.293 306.793 157.417 302.872 156.472C300.895 155.996 298.921 155.5 296.956 155.006C295.72 154.695 294.487 154.386 293.26 154.082C289.123 153.06 285.004 152.1 280.829 151.377C278.701 151.009 276.56 150.702 274.398 150.48C273.415 150.379 272.428 150.296 271.436 150.233L271.5 149.235L271.436 150.233C263.53 149.726 257.76 150.23 250.145 151.318C248.972 151.495 247.816 151.687 246.676 151.891C241.768 152.768 237.15 153.868 232.666 154.971C232.029 155.128 231.394 155.285 230.761 155.441C224.789 156.918 219.007 158.347 213.137 159.16C207.951 159.879 202.675 160.12 197.089 159.494C196.54 159.432 196.145 158.937 196.206 158.388C196.268 157.84 196.763 157.444 197.311 157.506C202.697 158.11 207.802 157.88 212.863 157.179C218.623 156.382 224.301 154.978 230.291 153.497C230.92 153.342 231.552 153.185 232.188 153.029C236.678 151.924 241.349 150.811 246.324 149.922C247.482 149.715 248.657 149.52 249.851 149.34L249.858 149.339Z" fill="#091757" />
    <path fill-rule="evenodd" clip-rule="evenodd" d="M132 73.3999C130.352 73.3999 129 74.7522 129 76.3999V174.3C129 175.948 130.352 177.3 132 177.3H192.6C194.248 177.3 195.6 175.948 195.6 174.3V76.3999C195.6 74.7522 194.248 73.3999 192.6 73.3999H132ZM127 76.3999C127 73.6476 129.248 71.3999 132 71.3999H192.6C195.352 71.3999 197.6 73.6476 197.6 76.3999V174.3C197.6 177.052 195.352 179.3 192.6 179.3H132C129.248 179.3 127 177.052 127 174.3V76.3999Z" fill="#091757" />
    <path fill-rule="evenodd" clip-rule="evenodd" d="M148.164 82.5144C148.653 82.7709 148.842 83.3753 148.586 83.8644L143.186 94.1644C143.031 94.4588 142.741 94.6572 142.411 94.694C142.08 94.7307 141.753 94.601 141.538 94.3478L138.138 90.3478C137.78 89.9269 137.832 89.2958 138.252 88.9382C138.673 88.5805 139.304 88.6316 139.662 89.0525L142.102 91.9235L146.814 82.9358C147.071 82.4466 147.675 82.258 148.164 82.5144Z" fill="#091757" />
    <path fill-rule="evenodd" clip-rule="evenodd" d="M148.161 100.112C148.651 100.367 148.842 100.97 148.587 101.461L143.187 111.861C143.033 112.158 142.74 112.358 142.407 112.394C142.073 112.43 141.744 112.296 141.53 112.038L138.13 107.938C137.778 107.513 137.837 106.883 138.262 106.53C138.687 106.177 139.317 106.236 139.67 106.661L142.107 109.601L146.812 100.539C147.067 100.049 147.671 99.8577 148.161 100.112Z" fill="#091757" />
    <path fill-rule="evenodd" clip-rule="evenodd" d="M148.161 117.712C148.651 117.967 148.842 118.57 148.587 119.061L143.187 129.461C143.033 129.758 142.74 129.958 142.407 129.994C142.073 130.03 141.744 129.896 141.53 129.638L138.13 125.538C137.778 125.113 137.837 124.483 138.262 124.13C138.687 123.778 139.317 123.836 139.67 124.261L142.107 127.201L146.812 118.139C147.067 117.649 147.671 117.458 148.161 117.712Z" fill="#091757" />
    <path fill-rule="evenodd" clip-rule="evenodd" d="M148.161 135.312C148.651 135.567 148.842 136.171 148.587 136.661L143.187 147.061C143.034 147.356 142.743 147.556 142.413 147.594C142.082 147.631 141.754 147.501 141.538 147.248L138.138 143.248C137.78 142.827 137.832 142.196 138.252 141.838C138.673 141.48 139.304 141.531 139.662 141.952L142.098 144.818L146.812 135.739C147.067 135.249 147.671 135.058 148.161 135.312Z" fill="#091757" />
    <path fill-rule="evenodd" clip-rule="evenodd" d="M148.161 153.013C148.651 153.267 148.842 153.871 148.587 154.361L143.187 164.761C143.033 165.058 142.74 165.259 142.407 165.294C142.073 165.33 141.744 165.196 141.53 164.938L138.13 160.838C137.778 160.413 137.837 159.783 138.262 159.43C138.687 159.078 139.317 159.137 139.67 159.562L142.107 162.501L146.812 153.439C147.067 152.949 147.671 152.758 148.161 153.013Z" fill="#091757" />
    <path fill-rule="evenodd" clip-rule="evenodd" d="M151.4 88.5C151.4 87.9477 151.848 87.5 152.4 87.5H184.4C184.952 87.5 185.4 87.9477 185.4 88.5C185.4 89.0523 184.952 89.5 184.4 89.5H152.4C151.848 89.5 151.4 89.0523 151.4 88.5Z" fill="#091757" />
    <path fill-rule="evenodd" clip-rule="evenodd" d="M151.4 106C151.4 105.448 151.848 105 152.4 105H184.4C184.952 105 185.4 105.448 185.4 106C185.4 106.552 184.952 107 184.4 107H152.4C151.848 107 151.4 106.552 151.4 106Z" fill="#091757" />
    <path fill-rule="evenodd" clip-rule="evenodd" d="M151.4 123.5C151.4 122.948 151.848 122.5 152.4 122.5H184.4C184.952 122.5 185.4 122.948 185.4 123.5C185.4 124.052 184.952 124.5 184.4 124.5H152.4C151.848 124.5 151.4 124.052 151.4 123.5Z" fill="#091757" />
    <path fill-rule="evenodd" clip-rule="evenodd" d="M151.4 141C151.4 140.448 151.848 140 152.4 140H184.4C184.952 140 185.4 140.448 185.4 141C185.4 141.552 184.952 142 184.4 142H152.4C151.848 142 151.4 141.552 151.4 141Z" fill="#091757" />
    <path fill-rule="evenodd" clip-rule="evenodd" d="M151.4 158.5C151.4 157.948 151.848 157.5 152.4 157.5H184.4C184.952 157.5 185.4 157.948 185.4 158.5C185.4 159.052 184.952 159.5 184.4 159.5H152.4C151.848 159.5 151.4 159.052 151.4 158.5Z" fill="#091757" />
    <path fill-rule="evenodd" clip-rule="evenodd" d="M151.4 92.6001C151.4 92.0478 151.848 91.6001 152.4 91.6001H169.5C170.052 91.6001 170.5 92.0478 170.5 92.6001C170.5 93.1524 170.052 93.6001 169.5 93.6001H152.4C151.848 93.6001 151.4 93.1524 151.4 92.6001Z" fill="#091757" />
    <path fill-rule="evenodd" clip-rule="evenodd" d="M151.4 128C151.4 127.448 151.848 127 152.4 127H174.1C174.652 127 175.1 127.448 175.1 128C175.1 128.552 174.652 129 174.1 129H152.4C151.848 129 151.4 128.552 151.4 128Z" fill="#091757" />
    <path fill-rule="evenodd" clip-rule="evenodd" d="M47.5665 122.1H60.6335L54.1 133.398L47.5665 122.1ZM51.0335 124.1L54.1 129.403L57.1665 124.1H51.0335Z" fill="#091757" />
    <path fill-rule="evenodd" clip-rule="evenodd" d="M329.167 91.7002H342.115L335.709 103.013L329.167 91.7002ZM332.634 93.7002L335.691 98.9869L338.685 93.7002H332.634Z" fill="#091757" />
    <path fill-rule="evenodd" clip-rule="evenodd" d="M100.367 42.3999H113.434L106.9 53.6974L100.367 42.3999ZM103.834 44.3999L106.9 49.7024L109.967 44.3999H103.834Z" fill="#091757" />
    <path fill-rule="evenodd" clip-rule="evenodd" d="M45.3 26.3999C45.3 25.8476 45.7477 25.3999 46.3 25.3999H75.1C75.6523 25.3999 76.1 25.8476 76.1 26.3999V86.7999C76.1 87.3522 75.6523 87.7999 75.1 87.7999C74.5477 87.7999 74.1 87.3522 74.1 86.7999V27.3999H47.3V81.9999C47.3 82.5522 46.8523 82.9999 46.3 82.9999C45.7477 82.9999 45.3 82.5522 45.3 81.9999V26.3999Z" fill="#091757" />
    <path fill-rule="evenodd" clip-rule="evenodd" d="M59.7 42.0996C59.7 41.5473 60.1477 41.0996 60.7 41.0996H68.2C68.7523 41.0996 69.2 41.5473 69.2 42.0996C69.2 42.6519 68.7523 43.0996 68.2 43.0996H60.7C60.1477 43.0996 59.7 42.6519 59.7 42.0996Z" fill="#091757" />
    <path fill-rule="evenodd" clip-rule="evenodd" d="M59.7 34.1997C59.7 33.6474 60.1477 33.1997 60.7 33.1997H68.2C68.7523 33.1997 69.2 33.6474 69.2 34.1997C69.2 34.752 68.7523 35.1997 68.2 35.1997H60.7C60.1477 35.1997 59.7 34.752 59.7 34.1997Z" fill="#091757" />
    <path fill-rule="evenodd" clip-rule="evenodd" d="M59.7 49.8999C59.7 49.3476 60.1477 48.8999 60.7 48.8999H68.2C68.7523 48.8999 69.2 49.3476 69.2 49.8999C69.2 50.4522 68.7523 50.8999 68.2 50.8999H60.7C60.1477 50.8999 59.7 50.4522 59.7 49.8999Z" fill="#091757" />
    <path fill-rule="evenodd" clip-rule="evenodd" d="M59.7 57.7998C59.7 57.2475 60.1477 56.7998 60.7 56.7998H68.2C68.7523 56.7998 69.2 57.2475 69.2 57.7998C69.2 58.3521 68.7523 58.7998 68.2 58.7998H60.7C60.1477 58.7998 59.7 58.3521 59.7 57.7998Z" fill="#091757" />
    <path d="M75.1 86.7999V62.3999H85.8V92.8999" fill="#091757" />
    <path fill-rule="evenodd" clip-rule="evenodd" d="M74.1 61.3999H86.8V92.8999H84.8V63.3999H76.1V86.7999H74.1V61.3999Z" fill="#091757" />
    <path fill-rule="evenodd" clip-rule="evenodd" d="M277.618 142.91C277.724 142.368 278.248 142.013 278.791 142.119L298.891 146.019C299.433 146.124 299.787 146.649 299.682 147.191C299.577 147.733 299.052 148.087 298.51 147.982L278.41 144.082C277.867 143.977 277.513 143.452 277.618 142.91Z" fill="#091757" />
    <path d="M310 149.2L313.4 149.9C316.8 150.6 320.2 148.3 320.8 144.9C321.4 141.5 319.2 138.1 315.8 137.5L307.9 136L308.6 132.4C309.6 127.2 306.2 122.2 301 121.2L286.1 118.3C280.9 117.3 275.9 120.7 274.9 125.9L274.2 129.5L266.3 128C262.9 127.3 259.5 129.6 258.9 133C258.3 136.4 260.5 139.8 263.9 140.4L267.3 141.1" fill="#091757" />
    <path fill-rule="evenodd" clip-rule="evenodd" d="M273.918 125.71C275.023 119.971 280.545 116.214 286.289 117.318L286.291 117.319L301.189 120.218C301.189 120.218 301.19 120.218 301.19 120.218C306.93 121.323 310.687 126.845 309.582 132.589L309.073 135.205L315.98 136.517C319.962 137.223 322.473 141.175 321.785 145.074C321.086 149.033 317.146 151.692 313.198 150.88L309.798 150.18C309.257 150.068 308.909 149.539 309.021 148.999C309.132 148.458 309.661 148.109 310.202 148.221L313.602 148.921C316.454 149.508 319.314 147.568 319.815 144.726C320.327 141.828 318.441 138.982 315.626 138.485L315.613 138.483L307.713 136.983C307.452 136.933 307.221 136.781 307.072 136.561C306.923 136.341 306.868 136.07 306.918 135.809L307.618 132.211C307.618 132.211 307.618 132.211 307.618 132.211C308.513 127.556 305.471 123.078 300.811 122.182L300.809 122.182L285.911 119.282C285.911 119.282 285.91 119.282 285.91 119.282C281.255 118.387 276.778 121.43 275.882 126.089L275.882 126.091L275.182 129.691C275.077 130.231 274.554 130.585 274.014 130.483L266.113 128.983L266.098 128.98C263.246 128.392 260.386 130.333 259.885 133.174C259.373 136.073 261.259 138.919 264.074 139.415C264.083 139.417 264.092 139.419 264.102 139.421L267.502 140.121C268.043 140.232 268.391 140.761 268.279 141.302C268.168 141.843 267.639 142.191 267.098 142.08L263.712 141.382C259.735 140.672 257.228 136.723 257.915 132.826C258.613 128.87 262.549 126.211 266.494 127.019L273.408 128.332L273.918 125.711C273.918 125.711 273.918 125.711 273.918 125.71Z" fill="#091757" />
    <path d="M286.6 122.6L298.8 125C301.9 125.6 303.9 128.6 303.3 131.7L302.7 134.8L279.3 130.3L279.9 127.2C280.5 124 283.5 122 286.6 122.6Z" fill="#F7F7FA" />
    <path fill-rule="evenodd" clip-rule="evenodd" d="M286.409 123.581C283.854 123.088 281.381 124.729 280.883 127.384L280.882 127.39L280.882 127.39L280.472 129.507L301.908 133.629L302.318 131.51L303.3 131.7L302.318 131.51C302.815 128.945 301.161 126.475 298.61 125.982L298.607 125.981L286.41 123.582C286.41 123.582 286.409 123.582 286.409 123.581ZM278.918 127.013C279.621 123.27 283.146 120.913 286.79 121.618L286.793 121.619L286.793 121.619L298.99 124.018C298.991 124.018 298.991 124.018 298.992 124.018C302.64 124.726 304.985 128.255 304.282 131.89L303.682 134.99C303.577 135.532 303.053 135.886 302.511 135.782L279.111 131.282C278.85 131.232 278.62 131.08 278.472 130.86C278.323 130.64 278.268 130.371 278.318 130.11L278.918 127.013Z" fill="#091757" />
    <path fill-rule="evenodd" clip-rule="evenodd" d="M292.889 122.818C293.431 122.922 293.786 123.446 293.682 123.989L289.682 144.789C289.578 145.331 289.054 145.686 288.511 145.582C287.969 145.478 287.614 144.953 287.718 144.411L291.718 123.611C291.822 123.069 292.347 122.714 292.889 122.818Z" fill="#091757" />
    <path d="M272.9 147.7C275.882 147.7 278.3 145.283 278.3 142.3C278.3 139.318 275.882 136.9 272.9 136.9C269.918 136.9 267.5 139.318 267.5 142.3C267.5 145.283 269.918 147.7 272.9 147.7Z" fill="#F7F7FA" />
    <path fill-rule="evenodd" clip-rule="evenodd" d="M272.9 137.9C270.47 137.9 268.5 139.87 268.5 142.3C268.5 144.73 270.47 146.7 272.9 146.7C275.33 146.7 277.3 144.73 277.3 142.3C277.3 139.87 275.33 137.9 272.9 137.9ZM266.5 142.3C266.5 138.766 269.365 135.9 272.9 135.9C276.435 135.9 279.3 138.766 279.3 142.3C279.3 145.835 276.435 148.7 272.9 148.7C269.365 148.7 266.5 145.835 266.5 142.3Z" fill="#091757" />
    <path d="M304.2 153.7C307.182 153.7 309.6 151.283 309.6 148.3C309.6 145.318 307.182 142.9 304.2 142.9C301.218 142.9 298.8 145.318 298.8 148.3C298.8 151.283 301.218 153.7 304.2 153.7Z" fill="#F7F7FA" />
    <path fill-rule="evenodd" clip-rule="evenodd" d="M304.2 143.9C301.77 143.9 299.8 145.87 299.8 148.3C299.8 150.73 301.77 152.7 304.2 152.7C306.63 152.7 308.6 150.73 308.6 148.3C308.6 145.87 306.63 143.9 304.2 143.9ZM297.8 148.3C297.8 144.766 300.665 141.9 304.2 141.9C307.735 141.9 310.6 144.766 310.6 148.3C310.6 151.835 307.735 154.7 304.2 154.7C300.665 154.7 297.8 151.835 297.8 148.3Z" fill="#091757" />
    <path fill-rule="evenodd" clip-rule="evenodd" d="M30.6694 85.0765C25.4999 85.3573 20.3292 85.6381 15.3123 85.7001C14.7601 85.7069 14.3069 85.2647 14.3001 84.7125C14.2932 84.1603 14.7354 83.7071 15.2876 83.7002C20.2754 83.6387 25.3573 83.3622 30.4863 83.0831C33.6791 82.9094 36.8902 82.7347 40.1082 82.6103C48.4482 82.2877 56.7493 82.3091 64.5402 83.6139C72.34 84.9202 79.662 87.518 86.0222 92.3708C92.3873 97.2272 97.727 104.295 101.633 114.441C110.358 136.946 121.716 146.761 128.505 150.737C128.982 151.016 129.142 151.629 128.863 152.106C128.584 152.582 127.971 152.742 127.495 152.463C120.284 148.24 108.642 138.055 99.7676 115.162L99.7668 115.159C95.973 105.306 90.8377 98.5606 84.809 93.9608C78.7755 89.3573 71.785 86.8551 64.2098 85.5864C56.6257 84.3162 48.4893 84.2876 40.1855 84.6088C37.0382 84.7305 33.854 84.9035 30.6694 85.0765Z" fill="#091757" />
    <path fill-rule="evenodd" clip-rule="evenodd" d="M210.5 26.8C210.5 11.9477 222.448 0 237.3 0C252.155 0 264.1 12.0502 264.1 26.8C264.1 34.0964 260.756 40.3343 260.19 41.3573C257.847 46.289 254.134 51.7632 251.03 55.9802C249.471 58.0992 248.057 59.9128 247.032 61.1972C246.519 61.8395 246.104 62.3499 245.816 62.7002C245.672 62.8755 245.56 63.0107 245.483 63.1025L245.396 63.2071L245.373 63.2342L245.366 63.2431C245.366 63.2433 245.365 63.2439 244.6 62.6L245.365 63.2439L245.065 63.6H229.413L229.112 63.2163L229.9 62.6C229.112 63.2163 229.113 63.2165 229.112 63.2163L229.112 63.2155L229.08 63.1746L228.987 63.0552C228.906 62.9503 228.786 62.7957 228.633 62.5956C228.326 62.1953 227.883 61.6129 227.335 60.8821C226.241 59.4209 224.732 57.365 223.068 54.9855C219.749 50.2388 215.784 44.158 213.297 38.9296L213.296 38.927C211.54 35.2091 210.5 31.164 210.5 26.8ZM230.39 61.6H244.131C244.173 61.5488 244.22 61.4922 244.27 61.4306C244.553 61.0868 244.962 60.5839 245.468 59.9497C246.481 58.6809 247.879 56.8883 249.42 54.7948C252.51 50.5951 256.139 45.2324 258.396 40.4715L258.41 40.4425L258.426 40.4144C258.909 39.5448 262.1 33.6328 262.1 26.8C262.1 13.1498 251.045 2 237.3 2C223.552 2 212.5 13.0523 212.5 26.8C212.5 30.8355 213.46 34.5901 215.104 38.0718C217.516 43.1431 221.401 49.1116 224.707 53.8395C226.356 56.1975 227.852 58.2354 228.936 59.6835C229.478 60.4074 229.917 60.9836 230.22 61.3783C230.283 61.4601 230.339 61.5341 230.39 61.6Z" fill="#091757" />
    <path fill-rule="evenodd" clip-rule="evenodd" d="M239.216 0.732019C239.475 0.243917 240.08 0.0577119 240.568 0.316119C247.816 4.1535 252.8 14.3901 252.8 26.0999C252.8 33.274 250.729 39.3971 250.295 40.68C250.278 40.73 250.263 40.7726 250.252 40.8077C248.679 45.827 246.18 51.4009 244.087 55.7002C243.037 57.8557 242.085 59.7001 241.395 61.0061C241.05 61.6592 240.77 62.178 240.577 62.5342C240.48 62.7123 240.404 62.8498 240.353 62.943L240.294 63.0494L240.279 63.0768L240.274 63.0859C240.274 63.0861 240.273 63.0868 239.4 62.5999L238.527 62.113L238.545 62.0799L238.601 61.9779C238.651 61.8876 238.725 61.7533 238.82 61.5785C239.01 61.2288 239.286 60.7172 239.627 60.0719C240.309 58.781 241.25 56.9566 242.288 54.8246C244.369 50.5515 246.818 45.0794 248.346 40.2011L248.348 40.1924L248.351 40.1837C248.363 40.1479 248.378 40.1038 248.396 40.0517C248.818 38.8017 250.8 32.9386 250.8 26.0999C250.8 14.8097 245.984 5.44631 239.632 2.0837C239.144 1.82529 238.958 1.22012 239.216 0.732019ZM239.4 62.5999L238.527 62.113C238.258 62.5954 238.431 63.2045 238.913 63.4734C239.396 63.7423 240.005 63.5684 240.274 63.0859L239.4 62.5999Z" fill="#091757" />
    <path fill-rule="evenodd" clip-rule="evenodd" d="M235.284 0.732019C235.542 1.22012 235.356 1.82529 234.868 2.0837C228.516 5.44631 223.7 14.8097 223.7 26.0999C223.7 32.9386 225.682 38.8017 226.104 40.0517C226.122 40.1038 226.137 40.1479 226.149 40.1837L226.152 40.1924L226.154 40.2011C227.682 45.0794 230.131 50.5515 232.212 54.8246C233.25 56.9566 234.191 58.781 234.873 60.0719C235.214 60.7172 235.49 61.2288 235.68 61.5785C235.775 61.7533 235.849 61.8876 235.899 61.9779L235.955 62.0799L235.973 62.1127L235.1 62.5999C234.227 63.0868 234.226 63.0867 234.226 63.0865L234.221 63.0768L234.206 63.0494L234.147 62.943C234.096 62.8498 234.02 62.7123 233.923 62.5342C233.73 62.178 233.45 61.6592 233.105 61.0061C232.415 59.7001 231.463 57.8557 230.413 55.7002C228.32 51.4009 225.821 45.827 224.249 40.8077C224.237 40.7726 224.222 40.73 224.205 40.68C223.771 39.3971 221.7 33.274 221.7 26.0999C221.7 14.3901 226.684 4.1535 233.932 0.316119C234.42 0.0577119 235.025 0.243917 235.284 0.732019ZM235.587 63.4734C235.104 63.7423 234.495 63.5689 234.226 63.0865L235.1 62.5999L235.973 62.1127C236.242 62.5952 236.069 63.2045 235.587 63.4734Z" fill="#091757" />
    <path fill-rule="evenodd" clip-rule="evenodd" d="M229 70H245.7V75.9125L245.7 75.925C245.586 80.4528 241.857 84.2 237.3 84.2C232.639 84.2 229 80.4433 229 75.9V70ZM231 72V75.9C231 79.3567 233.761 82.2 237.3 82.2C240.739 82.2 243.607 79.3538 243.7 75.8871V72H231Z" fill="#091757" />
    <path fill-rule="evenodd" clip-rule="evenodd" d="M229.9 61.6001C230.452 61.6001 230.9 62.0478 230.9 62.6001V70.9001C230.9 71.4524 230.452 71.9001 229.9 71.9001C229.348 71.9001 228.9 71.4524 228.9 70.9001V62.6001C228.9 62.0478 229.348 61.6001 229.9 61.6001Z" fill="#091757" />
    <path fill-rule="evenodd" clip-rule="evenodd" d="M244.6 61.6001C245.152 61.6001 245.6 62.0478 245.6 62.6001V70.9001C245.6 71.4524 245.152 71.9001 244.6 71.9001C244.048 71.9001 243.6 71.4524 243.6 70.9001V62.6001C243.6 62.0478 244.048 61.6001 244.6 61.6001Z" fill="#091757" />
    <path d="M258.9 40.3001L258.8 40.5001C254.5 49.5001 245.3 60.7001 244.2 62.0001H239.8C241.1 59.6001 246.7 49.0001 249.5 40.4001L249.6 40.2001C251.6 34.1001 252 29.1001 252 26.0001C252 15.3001 247.8 5.8001 241.4 1.6001C253.4 3.7001 262.5 14.1001 262.5 26.7001C262.5 29.6001 261.8 34.4001 258.9 40.3001Z" fill="#091757" />
    <path d="M367 105.3C359.5 105.3 353.5 111.4 353.5 118.8C353.5 130.5 366.5 139.7 367 140.3C367 140.3 380.5 129.8 380.5 118.8C380.5 111.4 374.5 105.3 367 105.3ZM367 124.4C363.7 124.4 361.1 121.8 361.1 118.5C361.1 115.2 363.7 112.6 367 112.6C370.3 112.6 372.9 115.2 372.9 118.5C372.9 121.8 370.2 124.4 367 124.4Z" fill="#E3EF41" />
    <path fill-rule="evenodd" clip-rule="evenodd" d="M367 144.7C365.067 144.7 363.5 146.267 363.5 148.2C363.5 150.133 365.067 151.7 367 151.7C368.933 151.7 370.5 150.133 370.5 148.2C370.5 146.267 368.933 144.7 367 144.7ZM361.5 148.2C361.5 145.162 363.962 142.7 367 142.7C370.038 142.7 372.5 145.162 372.5 148.2C372.5 151.237 370.038 153.7 367 153.7C363.962 153.7 361.5 151.237 361.5 148.2Z" fill="#091757" />
    <path d="M232.1 110.2C224.6 110.2 218.6 116.3 218.6 123.7C218.6 135.4 231.6 144.6 232.1 145.2C232.1 145.2 245.6 134.7 245.6 123.7C245.7 116.3 239.6 110.2 232.1 110.2ZM232.1 129.4C228.8 129.4 226.2 126.8 226.2 123.5C226.2 120.2 228.8 117.6 232.1 117.6C235.4 117.6 238 120.2 238 123.5C238 126.7 235.4 129.4 232.1 129.4Z" fill="#E3EF41" />
    <path d="M232.1 157.6C234.585 157.6 236.6 155.585 236.6 153.1C236.6 150.615 234.585 148.6 232.1 148.6C229.615 148.6 227.6 150.615 227.6 153.1C227.6 155.585 229.615 157.6 232.1 157.6Z" fill="#F7F7FA" />
    <path fill-rule="evenodd" clip-rule="evenodd" d="M232.1 149.6C230.167 149.6 228.6 151.167 228.6 153.1C228.6 155.033 230.167 156.6 232.1 156.6C234.033 156.6 235.6 155.033 235.6 153.1C235.6 151.167 234.033 149.6 232.1 149.6ZM226.6 153.1C226.6 150.063 229.062 147.6 232.1 147.6C235.138 147.6 237.6 150.063 237.6 153.1C237.6 156.138 235.138 158.6 232.1 158.6C229.062 158.6 226.6 156.138 226.6 153.1Z" fill="#091757" />
    <path d="M13.5 41.1001C6.1 41.1001 0 47.1001 0 54.6001C0 66.3001 13 75.5001 13.5 76.1001C13.5 76.1001 27 65.6001 27 54.6001C27.1 47.1001 21 41.1001 13.5 41.1001ZM13.5 60.2001C10.2 60.2001 7.6 57.6001 7.6 54.3001C7.6 51.0001 10.2 48.4001 13.5 48.4001C16.8 48.4001 19.4 51.0001 19.4 54.3001C19.4 57.6001 16.8 60.2001 13.5 60.2001Z" fill="#E3EF41" />
    <path d="M13.5 88.5C15.9853 88.5 18 86.4853 18 84C18 81.5147 15.9853 79.5 13.5 79.5C11.0147 79.5 9 81.5147 9 84C9 86.4853 11.0147 88.5 13.5 88.5Z" fill="#F7F7FA" />
    <path fill-rule="evenodd" clip-rule="evenodd" d="M13.5 80.5C11.567 80.5 10 82.067 10 84C10 85.933 11.567 87.5 13.5 87.5C15.433 87.5 17 85.933 17 84C17 82.067 15.433 80.5 13.5 80.5ZM8 84C8 80.9624 10.4624 78.5 13.5 78.5C16.5376 78.5 19 80.9624 19 84C19 87.0376 16.5376 89.5 13.5 89.5C10.4624 89.5 8 87.0376 8 84Z" fill="#091757" />
  </g>
  <defs>
    <clipPath id="clip0_41_1940">
      <rect width="380.5" height="179.3" fill="white" />
    </clipPath>
  </defs>
</svg>
