<svg width="381.000000" height="180.000000" viewBox="0 0 381 180" fill="none" xmlns="http://www.w3.org/2000/svg">
	<path id="Vector" d="M362.6 150.5C323.5 170.4 298.9 149.7 268.29 149.1C238.3 148.5 220.4 161.1 197.2 158.5" stroke="#091757" strokeOpacity="1.000000" strokeWidth="2.000000" strokeLinecap="round"/>
	<path id="Vector" d="M132 178.3C129.8 178.3 128 176.5 128 174.3L128 76.39C128 74.19 129.8 72.39 132 72.39L192.6 72.39C194.8 72.39 196.6 74.19 196.6 76.39L196.6 174.3C196.6 176.5 194.8 178.3 192.6 178.3L132 178.3Z" stroke="#091757" strokeOpacity="1.000000" strokeWidth="2.000000"/>
	<path id="Vector" d="M138.89 89.69L142.3 93.69L147.7 83.39" stroke="#091757" strokeOpacity="1.000000" strokeWidth="2.000000" strokeLinejoin="round" strokeLinecap="round"/>
	<path id="Vector" d="M138.89 107.3L142.3 111.4L147.7 101" stroke="#091757" strokeOpacity="1.000000" strokeWidth="2.000000" strokeLinejoin="round" strokeLinecap="round"/>
	<path id="Vector" d="M138.89 124.9L142.3 129L147.7 118.6" stroke="#091757" strokeOpacity="1.000000" strokeWidth="2.000000" strokeLinejoin="round" strokeLinecap="round"/>
	<path id="Vector" d="M138.89 142.6L142.3 146.6L147.7 136.2" stroke="#091757" strokeOpacity="1.000000" strokeWidth="2.000000" strokeLinejoin="round" strokeLinecap="round"/>
	<path id="Vector" d="M138.89 160.2L142.3 164.3L147.7 153.89" stroke="#091757" strokeOpacity="1.000000" strokeWidth="2.000000" strokeLinejoin="round" strokeLinecap="round"/>
	<path id="Vector" d="M152.39 88.5L184.4 88.5" stroke="#091757" strokeOpacity="1.000000" strokeWidth="2.000000" strokeLinejoin="round" strokeLinecap="round"/>
	<path id="Vector" d="M152.39 106L184.4 106" stroke="#091757" strokeOpacity="1.000000" strokeWidth="2.000000" strokeLinejoin="round" strokeLinecap="round"/>
	<path id="Vector" d="M152.39 123.5L184.4 123.5" stroke="#091757" strokeOpacity="1.000000" strokeWidth="2.000000" strokeLinejoin="round" strokeLinecap="round"/>
	<path id="Vector" d="M152.39 141L184.4 141" stroke="#091757" strokeOpacity="1.000000" strokeWidth="2.000000" strokeLinejoin="round" strokeLinecap="round"/>
	<path id="Vector" d="M152.39 158.5L184.4 158.5" stroke="#091757" strokeOpacity="1.000000" strokeWidth="2.000000" strokeLinejoin="round" strokeLinecap="round"/>
	<path id="Vector" d="M152.39 92.6L169.5 92.6" stroke="#091757" strokeOpacity="1.000000" strokeWidth="2.000000" strokeLinejoin="round" strokeLinecap="round"/>
	<path id="Vector" d="M152.39 128L174.1 128" stroke="#091757" strokeOpacity="1.000000" strokeWidth="2.000000" strokeLinejoin="round" strokeLinecap="round"/>
	<path id="Vector" d="M58.9 123.1L49.3 123.1L54.1 131.39L58.9 123.1Z" stroke="#091757" strokeOpacity="1.000000" strokeWidth="2.000000"/>
	<path id="Vector" d="M340.4 92.7L330.9 92.7L335.7 101L340.4 92.7Z" stroke="#091757" strokeOpacity="1.000000" strokeWidth="2.000000"/>
	<path id="Vector" d="M111.7 43.39L102.1 43.39L106.9 51.69L111.7 43.39Z" stroke="#091757" strokeOpacity="1.000000" strokeWidth="2.000000"/>
	<path id="Vector" d="M75.1 86.79L75.1 26.39L46.3 26.39L46.3 82" stroke="#091757" strokeOpacity="1.000000" strokeWidth="2.000000" strokeLinejoin="round" strokeLinecap="round"/>
	<path id="Vector" d="M68.19 42.1L60.7 42.1" stroke="#091757" strokeOpacity="1.000000" strokeWidth="2.000000" strokeLinecap="round"/>
	<path id="Vector" d="M68.19 34.2L60.7 34.2" stroke="#091757" strokeOpacity="1.000000" strokeWidth="2.000000" strokeLinecap="round"/>
	<path id="Vector" d="M68.19 49.89L60.7 49.89" stroke="#091757" strokeOpacity="1.000000" strokeWidth="2.000000" strokeLinecap="round"/>
	<path id="Vector" d="M68.19 57.79L60.7 57.79" stroke="#091757" strokeOpacity="1.000000" strokeWidth="2.000000" strokeLinecap="round"/>
	<path id="Vector" d="M75.1 86.79L75.1 62.39L85.8 62.39L85.8 92.89" fill="#091757" fill-opacity="1.000000" fill-rule="nonzero"/>
	<path id="Vector" d="M75.1 86.79L75.1 62.39L85.8 62.39L85.8 92.89" stroke="#091757" strokeOpacity="1.000000" strokeWidth="2.000000"/>
	<path id="Vector" d="M278.6 143.1L298.7 147" stroke="#091757" strokeOpacity="1.000000" strokeWidth="2.000000" strokeLinejoin="round" strokeLinecap="round"/>
	<path id="Vector" d="M310 149.2L313.4 149.89C316.79 150.6 320.2 148.3 320.79 144.89C321.4 141.5 319.2 138.1 315.79 137.5L307.9 136L308.6 132.39C309.6 127.2 306.2 122.2 301 121.2L286.1 118.3C280.9 117.3 275.9 120.7 274.9 125.9L274.2 129.5L266.29 128C262.9 127.3 259.5 129.6 258.9 133C258.29 136.39 260.5 139.8 263.9 140.39L267.29 141.1M309.82 150.16L309.79 150.17C309.25 150.06 308.9 149.54 309.02 148.99C309.13 148.45 309.65 148.1 310.2 148.22L310.21 148.24L309.82 150.16ZM267.47 140.13L267.5 140.12C268.04 140.23 268.39 140.75 268.27 141.3C268.16 141.85 267.64 142.19 267.09 142.08L267.08 142.05L267.47 140.13Z" fill="#091757" fill-opacity="1.000000" fill-rule="nonzero"/>
	<path id="Vector" d="M310 149.2L313.4 149.89C316.79 150.6 320.2 148.3 320.79 144.89C321.4 141.5 319.2 138.1 315.79 137.5L307.9 136L308.6 132.39C309.6 127.2 306.2 122.2 301 121.2L286.1 118.3C280.9 117.3 275.9 120.7 274.9 125.9L274.2 129.5L266.29 128C262.9 127.3 259.5 129.6 258.9 133C258.29 136.39 260.5 139.8 263.9 140.39L267.29 141.1" stroke="#091757" strokeOpacity="1.000000" strokeWidth="2.000000" strokeLinejoin="round" strokeLinecap="round"/>
	<path id="Vector" d="M286.6 122.6L298.79 125C301.9 125.6 303.9 128.6 303.29 131.7L302.7 134.8L279.29 130.3L279.9 127.2C280.5 124 283.5 122 286.6 122.6Z" fill="#F7F7FA" fill-opacity="1.000000" fill-rule="nonzero"/>
	<path id="Vector" d="M298.79 125C301.9 125.6 303.9 128.6 303.29 131.7L302.7 134.8L279.29 130.3L279.9 127.2C280.5 124 283.5 122 286.6 122.6L298.79 125Z" stroke="#091757" strokeOpacity="1.000000" strokeWidth="2.000000" strokeLinejoin="round"/>
	<path id="Vector" d="M292.7 123.8L288.7 144.6" stroke="#091757" strokeOpacity="1.000000" strokeWidth="2.000000" strokeLinejoin="round" strokeLinecap="round"/>
	<path id="Vector" d="M272.9 147.7C275.88 147.7 278.29 145.28 278.29 142.3C278.29 139.31 275.88 136.89 272.9 136.89C269.91 136.89 267.5 139.31 267.5 142.3C267.5 145.28 269.91 147.7 272.9 147.7Z" fill="#F7F7FA" fill-opacity="1.000000" fill-rule="nonzero"/>
	<path id="Vector" d="M272.9 147.7C269.91 147.7 267.5 145.28 267.5 142.3C267.5 139.31 269.91 136.89 272.9 136.89C275.88 136.89 278.29 139.31 278.29 142.3C278.29 145.28 275.88 147.7 272.9 147.7Z" stroke="#091757" strokeOpacity="1.000000" strokeWidth="2.000000" strokeLinejoin="round"/>
	<path id="Vector" d="M304.2 153.7C307.18 153.7 309.6 151.28 309.6 148.3C309.6 145.31 307.18 142.89 304.2 142.89C301.21 142.89 298.79 145.31 298.79 148.3C298.79 151.28 301.21 153.7 304.2 153.7Z" fill="#F7F7FA" fill-opacity="1.000000" fill-rule="nonzero"/>
	<path id="Vector" d="M304.2 153.7C301.21 153.7 298.79 151.28 298.79 148.3C298.79 145.31 301.21 142.89 304.2 142.89C307.18 142.89 309.6 145.31 309.6 148.3C309.6 151.28 307.18 153.7 304.2 153.7Z" stroke="#091757" strokeOpacity="1.000000" strokeWidth="2.000000" strokeLinejoin="round"/>
	<path id="Vector" d="M15.3 84.7C47.7 84.3 85.3 74.8 100.7 114.8C109.5 137.5 121 147.5 128 151.6" stroke="#091757" strokeOpacity="1.000000" strokeWidth="2.000000" strokeLinecap="round"/>
	<path id="Vector" d="M237.3 1C223 1 211.5 12.5 211.5 26.79C211.5 31 212.5 34.89 214.2 38.5C219.1 48.79 229.9 62.6 229.9 62.6L244.6 62.6C244.6 62.6 254.7 50.6 259.29 40.89C259.79 40 263.1 33.89 263.1 26.79C263.1 12.6 251.6 1 237.3 1Z" stroke="#091757" strokeOpacity="1.000000" strokeWidth="2.000000"/>
	<path id="Vector" d="M239.4 62.6C239.4 62.6 246.2 50.4 249.3 40.5C249.6 39.6 251.8 33.4 251.8 26.1C251.8 14.6 246.9 4.8 240.1 1.2" stroke="#091757" strokeOpacity="1.000000" strokeWidth="2.000000" strokeLinecap="round"/>
	<path id="Vector" d="M235.1 62.6C235.1 62.6 228.3 50.4 225.2 40.5C224.9 39.6 222.7 33.4 222.7 26.1C222.7 14.6 227.6 4.8 234.4 1.2" stroke="#091757" strokeOpacity="1.000000" strokeWidth="2.000000" strokeLinecap="round"/>
	<path id="Vector" d="M230 75.89L230 71L244.7 71L244.7 75.89C244.6 79.89 241.3 83.2 237.3 83.2C233.2 83.2 230 79.89 230 75.89Z" stroke="#091757" strokeOpacity="1.000000" strokeWidth="2.000000"/>
	<path id="Vector" d="M229.9 62.6L229.9 70.89" stroke="#091757" strokeOpacity="1.000000" strokeWidth="2.000000" strokeLinecap="round"/>
	<path id="Vector" d="M244.6 62.6L244.6 70.89" stroke="#091757" strokeOpacity="1.000000" strokeWidth="2.000000" strokeLinecap="round"/>
	<path id="Vector" d="M258.9 40.3L258.79 40.5C254.5 49.5 245.3 60.7 244.2 62L239.8 62C241.1 59.6 246.7 49 249.5 40.39L249.6 40.2C251.6 34.1 252 29.1 252 26C252 15.3 247.8 5.8 241.4 1.6C253.4 3.7 262.5 14.1 262.5 26.7C262.5 29.6 261.79 34.39 258.9 40.3Z" fill="#091757" fill-opacity="1.000000" fill-rule="nonzero"/>
	<path id="Vector" d="M367 105.3C359.5 105.3 353.5 111.4 353.5 118.8C353.5 130.5 366.5 139.7 367 140.3C367 140.3 380.5 129.8 380.5 118.8C380.5 111.4 374.5 105.3 367 105.3ZM367 124.4C363.7 124.4 361.1 121.8 361.1 118.5C361.1 115.2 363.7 112.6 367 112.6C370.3 112.6 372.9 115.2 372.9 118.5C372.9 121.8 370.2 124.4 367 124.4Z" fill="#E3EF41" fill-opacity="1.000000" fill-rule="nonzero"/>
	<path id="Vector" d="M367 152.7C364.51 152.7 362.5 150.68 362.5 148.2C362.5 145.71 364.51 143.7 367 143.7C369.48 143.7 371.5 145.71 371.5 148.2C371.5 150.68 369.48 152.7 367 152.7Z" stroke="#091757" strokeOpacity="1.000000" strokeWidth="2.000000"/>
	<path id="Vector" d="M232.1 110.2C224.6 110.2 218.6 116.3 218.6 123.7C218.6 135.39 231.6 144.6 232.1 145.2C232.1 145.2 245.6 134.7 245.6 123.7C245.7 116.3 239.6 110.2 232.1 110.2ZM232.1 129.39C228.8 129.39 226.2 126.8 226.2 123.5C226.2 120.2 228.8 117.6 232.1 117.6C235.4 117.6 238 120.2 238 123.5C238 126.7 235.4 129.39 232.1 129.39Z" fill="#E3EF41" fill-opacity="1.000000" fill-rule="nonzero"/>
	<path id="Vector" d="M232.1 157.6C234.58 157.6 236.6 155.58 236.6 153.1C236.6 150.61 234.58 148.6 232.1 148.6C229.61 148.6 227.6 150.61 227.6 153.1C227.6 155.58 229.61 157.6 232.1 157.6Z" fill="#F7F7FA" fill-opacity="1.000000" fill-rule="nonzero"/>
	<path id="Vector" d="M232.1 157.6C229.61 157.6 227.6 155.58 227.6 153.1C227.6 150.61 229.61 148.6 232.1 148.6C234.58 148.6 236.6 150.61 236.6 153.1C236.6 155.58 234.58 157.6 232.1 157.6Z" stroke="#091757" strokeOpacity="1.000000" strokeWidth="2.000000"/>
	<path id="Vector" d="M13.5 41.1C6.1 41.1 0 47.1 0 54.6C0 66.3 13 75.5 13.5 76.1C13.5 76.1 27 65.6 27 54.6C27.1 47.1 21 41.1 13.5 41.1ZM13.5 60.2C10.2 60.2 7.6 57.6 7.6 54.3C7.6 51 10.2 48.39 13.5 48.39C16.79 48.39 19.4 51 19.4 54.3C19.4 57.6 16.79 60.2 13.5 60.2Z" fill="#E3EF41" fill-opacity="1.000000" fill-rule="nonzero"/>
	<path id="Vector" d="M13.5 88.5C15.98 88.5 18 86.48 18 84C18 81.51 15.98 79.5 13.5 79.5C11.01 79.5 9 81.51 9 84C9 86.48 11.01 88.5 13.5 88.5Z" fill="#F7F7FA" fill-opacity="1.000000" fill-rule="nonzero"/>
	<path id="Vector" d="M13.5 88.5C11.01 88.5 9 86.48 9 84C9 81.51 11.01 79.5 13.5 79.5C15.98 79.5 18 81.51 18 84C18 86.48 15.98 88.5 13.5 88.5Z" stroke="#091757" strokeOpacity="1.000000" strokeWidth="2.000000"/>
</svg>
