<svg width="30.000000" height="30.000000" viewBox="0 0 30 30" fill="none" xmlns="http://www.w3.org/2000/svg">
	<defs>
		<clipPath id="clip2236_2973">
			<rect id="f 1" width="30.000000" height="30.000000" fill="white" fillOpacity="0"/>
		</clipPath>
	</defs>
	<rect id="f 1" width="30.000000" height="30.000000" fill="#FFFFFF" fillOpacity="0"/>
	<g clip-path="url(#clip2236_2973)">
		<path id="Vector" d="M30 15C30 23.28 23.28 30 15 30C6.71 30 0 23.28 0 15C0 6.71 6.71 0 15 0C23.28 0 30 6.71 30 15Z" fill="#3C5A9A" fill-opacity="1.000000" fill-rule="evenodd"/>
		<path id="Vector" d="M19.87 4.6L16.55 4.6C14.58 4.6 12.38 5.43 12.38 8.29C12.39 9.28 12.38 10.24 12.38 11.31L10.1 11.31L10.1 14.94L12.45 14.94L12.45 25.39L16.78 25.39L16.78 14.87L19.63 14.87L19.89 11.3L16.7 11.3C16.7 11.3 16.71 9.71 16.7 9.25C16.7 8.12 17.88 8.19 17.95 8.19C18.51 8.19 19.59 8.19 19.87 8.19L19.87 4.6L19.87 4.6Z" fill="#FFFFFF" fill-opacity="1.000000" fill-rule="nonzero"/>
	</g>
</svg>