<svg width="21.481445" height="20.000000" viewBox="0 0 22 20" fill="none"
	xmlns="http://www.w3.org/2000/svg"
	xmlns:xlink="http://www.w3.org/1999/xlink">
	<path id="Vector" d="M1.7 10.46L10.74 20L19.77 10.46C22.04 8.06 22.04 4.19 19.77 1.79C17.5 -0.6 13.83 -0.6 11.56 1.79L10.74 2.66L9.91 1.79C7.64 -0.6 3.97 -0.6 1.7 1.79C-0.57 4.19 -0.57 8.07 1.7 10.46Z" fill="#091757" fill-opacity="0" fill-rule="nonzero"/>
	<path id="Vector" d="M9.32 1.25C7.04 -0.59 3.78 -0.41 1.7 1.79C-0.57 4.19 -0.57 8.07 1.7 10.46L9.36 18.54L10.74 20L12.11 18.54L19.77 10.46C22.04 8.06 22.04 4.19 19.77 1.79C17.69 -0.41 14.43 -0.59 12.15 1.25C11.94 1.41 11.75 1.59 11.56 1.79L10.74 2.66L9.91 1.79C9.72 1.59 9.53 1.41 9.32 1.25ZM10.74 17.09L18.32 9.08Q18.55 8.84 18.73 8.57Q19.01 8.18 19.18 7.71Q19.29 7.43 19.36 7.13Q19.48 6.64 19.48 6.12Q19.48 5.61 19.36 5.12Q19.29 4.82 19.18 4.54Q19.01 4.07 18.73 3.68Q18.55 3.41 18.32 3.17Q17.9 2.72 17.39 2.44Q17.23 2.35 17.07 2.28Q16.71 2.13 16.33 2.06Q16 2 15.67 2Q15.33 2 15 2.06Q14.63 2.13 14.27 2.28Q14.1 2.35 13.94 2.44Q13.43 2.72 13.01 3.17L10.74 5.57L8.46 3.17Q8.04 2.72 7.53 2.44Q7.37 2.35 7.2 2.28Q6.84 2.13 6.47 2.06Q6.14 2 5.8 2Q5.47 2 5.14 2.06Q4.76 2.13 4.4 2.28Q4.24 2.35 4.08 2.44Q3.57 2.72 3.15 3.17Q2.92 3.4 2.74 3.67Q2.47 4.07 2.29 4.54Q2.18 4.82 2.11 5.11Q2 5.6 2 6.13Q2 6.65 2.11 7.14Q2.18 7.43 2.29 7.71Q2.47 8.19 2.75 8.59Q2.93 8.85 3.15 9.08L10.74 17.09Z" fill="#091757" fill-opacity="1.000000" fill-rule="evenodd"/>
</svg>
