<svg width="32.000000" height="31.000000" viewBox="0 0 32 31" fill="none" xmlns="http://www.w3.org/2000/svg">
    <rect
        id="Account icon"
        width="32.209473"
        height="30"
        transform="translate(-0.209473 -0.250000)"
        fill="#FFFFFF"
        fillOpacity="0"
    />
    <path
        id="Account icon"
        d="M15.89 -0.25C8.49 -0.25 2.49 5.75 2.49 13.05C2.49 20.35 8.49 26.35 15.79 26.35C23.09 26.35 29.09 20.35 29.09 13.05C29.09 5.75 23.19 -0.25 15.89 -0.25ZM15.89 24.45C9.59 24.45 4.59 19.35 4.59 13.14C4.59 6.94 9.59 1.75 15.89 1.75C22.19 1.75 27.19 6.85 27.19 13.05C27.19 19.25 22.09 24.45 15.89 24.45ZM11.59 11.35C12.59 11.35 13.49 10.55 13.49 9.44C13.49 8.35 12.69 7.55 11.59 7.55C10.49 7.55 9.69 8.44 9.69 9.44C9.69 10.45 10.59 11.35 11.59 11.35ZM21.99 9.44C21.99 10.55 21.09 11.35 20.09 11.35C19.09 11.35 18.19 10.55 18.19 9.44C18.19 8.35 18.99 7.55 20.09 7.55C21.19 7.55 21.99 8.35 21.99 9.44ZM20.19 15.75C20.49 15.35 21.09 15.14 21.59 15.45C22.09 15.75 22.29 16.35 21.89 16.85C20.59 18.95 18.29 20.25 15.79 20.25C13.29 20.25 10.99 19.04 9.69 16.85C9.39 16.35 9.59 15.75 9.99 15.45C10.49 15.14 11.09 15.25 11.39 15.75C12.29 17.35 13.99 18.25 15.79 18.25C17.59 18.25 19.19 17.35 20.19 15.75ZM-0.01 28.55C1.09 27.14 2.49 25.85 3.99 24.75C4.39 24.45 4.99 24.55 5.39 24.85C5.79 25.35 5.59 25.95 5.19 26.25C3.89 27.25 2.69 28.45 1.59 29.75C1.39 30.05 1.09 30.14 0.79 30.14C0.59 30.14 0.39 30.05 0.19 29.95C-0.31 29.64 -0.31 28.95 -0.01 28.55ZM31.79 28.55C30.59 27.05 29.29 25.85 27.79 24.75C27.39 24.45 26.69 24.55 26.39 24.95C26.09 25.35 26.19 26.05 26.59 26.35C27.99 27.35 29.19 28.45 30.19 29.85C30.39 30.05 30.69 30.25 30.99 30.25C31.19 30.25 31.39 30.14 31.59 30.05C32.09 29.64 32.09 28.95 31.79 28.55Z"
        fill="#091757"
        fillOpacity="1.000000"
        fillRule="evenodd"
    />
</svg>