<svg width="126.000000" height="127.000000" viewBox="0 0 126 127" fill="none" xmlns="http://www.w3.org/2000/svg">
	<path id="Vector" d="M105.9 108.8L104 110.7L97.7 104.4C97.1 103.8 96.7 103.2 96.6 102.5C96.39 101.8 96.5 101.1 96.7 100.4C96.89 99.7 97.3 99 98 98.4C98.5 97.9 99.1 97.5 99.8 97.2C100.4 96.9 101.1 96.9 101.7 97C102.4 97.1 103 97.5 103.6 98.1L101.7 100C101.5 99.8 101.2 99.6 100.9 99.5C100.6 99.4 100.4 99.4 100.1 99.5C99.8 99.6 99.6 99.7 99.39 99.9C99.2 100.1 99 100.4 99 100.7C98.89 101 99 101.2 99.1 101.5C99.2 101.8 99.39 102.1 99.7 102.4L105.9 108.8Z" fill="#091757" fillOpacity="1.000000" fillRule="nonzero"/>
	<path id="Vector" d="M87.1 114.6C86.39 113.4 85.89 112.3 85.89 111.2C85.8 110.1 86 109.1 86.5 108.1C87 107.2 87.7 106.4 88.7 105.8C89.7 105.2 90.7 104.9 91.7 104.8C92.7 104.8 93.7 105 94.7 105.6C95.7 106.2 96.5 107 97.3 108.2C98 109.4 98.5 110.5 98.5 111.6C98.6 112.7 98.39 113.7 97.89 114.6C97.39 115.5 96.7 116.3 95.7 116.9C94.7 117.5 93.7 117.8 92.7 117.9C91.7 117.9 90.6 117.7 89.7 117.1C88.7 116.7 87.89 115.8 87.1 114.6ZM89.39 113.2C89.89 114 90.39 114.5 91 114.9C91.6 115.3 92.1 115.5 92.7 115.5C93.3 115.5 93.89 115.3 94.39 115C95 114.7 95.39 114.2 95.6 113.7C95.8 113.2 95.89 112.6 95.8 111.9C95.7 111.2 95.39 110.5 94.89 109.7C94.39 108.9 93.89 108.4 93.3 108C92.7 107.6 92.2 107.4 91.6 107.4C91 107.4 90.39 107.6 89.89 107.9C89.3 108.3 88.89 108.7 88.7 109.2C88.5 109.7 88.39 110.3 88.5 111C88.7 111.7 89 112.4 89.39 113.2Z" fill="#091757" fillOpacity="1.000000" fillRule="nonzero"/>
	<path id="Vector" d="M84.3 122.5L79.5 110.6L82 109.6L86.8 121.5L84.3 122.5Z" fill="#091757" fillOpacity="1.000000" fillRule="nonzero"/>
	<path id="Vector" d="M69.89 126.3L67.19 113.7L69.5 113.2L76.59 119.9L76.69 119.9L75 112L77.69 111.4L80.39 124L78.09 124.5L71 117.8L70.89 117.8L72.59 125.7L69.89 126.3Z" fill="#091757" fillOpacity="1.000000" fillRule="nonzero"/>
	<path id="Vector" d="M53.9 116.8C54.4 116.9 54.8 117.1 55.2 117.4C55.6 117.7 55.9 118.1 56 118.5C56.2 119 56.2 119.4 56.2 119.9C56.1 120.4 55.9 120.8 55.6 121.2C55.3 121.6 54.9 121.9 54.5 122C54 122.2 53.6 122.2 53.1 122.2C52.6 122.1 52.2 121.9 51.8 121.6C51.4 121.3 51.1 120.9 51 120.5C50.8 120.1 50.8 119.6 50.8 119.1C50.9 118.6 51.1 118.2 51.4 117.8C51.7 117.4 52.1 117.1 52.5 117C52.9 116.7 53.3 116.7 53.9 116.8Z" fill="#091757" fillOpacity="1.000000" fillRule="nonzero"/>
	<path id="Vector" d="M31.39 118.7L29 117.4L33.2 109.5C33.6 108.8 34.1 108.2 34.7 107.9C35.3 107.5 36 107.4 36.7 107.4C37.39 107.4 38.2 107.6 39 108C39.7 108.4 40.2 108.8 40.7 109.3C41.1 109.8 41.39 110.4 41.39 111.1C41.5 111.8 41.3 112.5 40.89 113.2L38.5 111.9C38.7 111.6 38.7 111.3 38.7 111C38.7 110.7 38.6 110.5 38.5 110.3C38.39 110.1 38.1 109.9 37.89 109.7C37.6 109.5 37.3 109.5 37 109.5C36.7 109.5 36.5 109.6 36.2 109.8C36 110 35.7 110.3 35.6 110.6L31.39 118.7Z" fill="#091757" fillOpacity="1.000000" fillRule="nonzero"/>
	<path id="Vector" d="M20.29 102.4C21.2 101.3 22.2 100.6 23.2 100.2C24.2 99.79 25.3 99.69 26.3 99.89C27.3 100.1 28.3 100.6 29.1 101.3C30 102 30.6 102.9 30.9 103.9C31.2 104.9 31.3 105.9 31.1 107C30.9 108.1 30.3 109.2 29.4 110.2C28.5 111.3 27.5 112 26.5 112.4C25.5 112.8 24.4 112.9 23.4 112.7C22.4 112.5 21.4 112 20.6 111.3C19.7 110.6 19.1 109.7 18.79 108.7C18.4 107.7 18.4 106.7 18.6 105.6C18.79 104.6 19.4 103.5 20.29 102.4ZM22.4 104.2C21.8 104.9 21.4 105.6 21.2 106.2C21 106.8 21 107.5 21.1 108C21.3 108.6 21.6 109.1 22.1 109.5C22.6 109.9 23.1 110.2 23.7 110.3C24.3 110.4 24.9 110.3 25.5 110C26.1 109.7 26.7 109.2 27.3 108.5C27.9 107.8 28.3 107.1 28.5 106.5C28.7 105.9 28.7 105.2 28.6 104.7C28.4 104.1 28.1 103.6 27.6 103.2C27.1 102.8 26.6 102.5 26 102.4C25.4 102.3 24.8 102.4 24.2 102.7C23.6 103 23 103.5 22.4 104.2Z" fill="#091757" fillOpacity="1.000000" fillRule="nonzero"/>
	<path id="Vector" d="M12 102.1L22 94L23.7 96.1L13.7 104.2L12 102.1Z" fill="#091757" fillOpacity="1.000000" fillRule="nonzero"/>
	<path id="Vector" d="M4.1 89.5L15.3 83.2L16.4 85.2L12.1 94L12.1 94.1L19.2 90.2L20.5 92.6L9.3 98.8L8.1 96.7L12.4 87.9L12.3 87.8L5.3 91.7L4.1 89.5Z" fill="#091757" fillOpacity="1.000000" fillRule="nonzero"/>
	<path id="Vector" d="M8.5 71.3C8.6 71.8 8.5 72.3 8.3 72.7C8.1 73.1 7.8 73.5 7.5 73.8C7.1 74.1 6.7 74.3 6.2 74.4C5.7 74.5 5.2 74.4 4.8 74.2C4.4 74 4 73.7 3.7 73.4C3.3 73 3.1 72.6 3 72.1C2.9 71.6 3 71.1 3.2 70.7C3.4 70.3 3.7 69.9 4 69.6C4.4 69.3 4.8 69.1 5.3 69C5.8 68.9 6.3 69 6.7 69.2C7.1 69.4 7.5 69.7 7.8 70C8.2 70.3 8.4 70.8 8.5 71.3Z" fill="#091757" fillOpacity="1.000000" fillRule="nonzero"/>
	<path id="Vector" d="M0 50.39L0.5 47.79L9.3 49.39C10.1 49.59 10.8 49.89 11.3 50.29C11.8 50.79 12.2 51.39 12.39 52.09C12.6 52.79 12.6 53.59 12.5 54.39C12.39 55.19 12.1 55.79 11.7 56.39C11.3 57 10.8 57.39 10.2 57.59C9.6 58 8.8 58 8 57.89L8.5 55.19C8.8 55.29 9.1 55.19 9.39 55.19C9.69 55.19 9.89 55 10 54.79C10.2 54.59 10.3 54.29 10.3 54C10.39 53.69 10.3 53.39 10.2 53.09C10.1 52.79 9.89 52.59 9.69 52.5C9.39 52.29 9.1 52.19 8.69 52.09L0 50.39Z" fill="#091757" fillOpacity="1.000000" fillRule="nonzero"/>
	<path id="Vector" d="M12.29 35C13.59 35.6 14.59 36.29 15.29 37.19C16 38.1 16.39 39 16.5 40.1C16.59 41.1 16.39 42.19 16 43.19C15.5 44.19 14.89 45.1 14.09 45.69C13.29 46.29 12.29 46.69 11.2 46.79C10.09 46.89 8.89 46.69 7.59 46.1C6.29 45.5 5.29 44.79 4.59 43.89C3.79 43 3.39 42 3.29 41C3.19 40 3.39 38.89 3.79 37.89C4.29 36.89 4.89 36 5.69 35.39C6.5 34.79 7.5 34.39 8.59 34.29C9.79 34.19 11 34.39 12.29 35ZM11.2 37.5C10.39 37.1 9.59 37 8.89 37C8.19 37 7.59 37.19 7.09 37.5C6.59 37.79 6.19 38.29 6 38.89C5.69 39.5 5.69 40.1 5.79 40.69C5.89 41.29 6.19 41.79 6.59 42.29C7.09 42.79 7.69 43.19 8.5 43.6C9.29 44 10.09 44.1 10.79 44.19C11.5 44.19 12.09 44 12.59 43.69C13.09 43.39 13.5 42.89 13.7 42.29C14 41.69 14 41.1 13.89 40.5C13.79 39.89 13.5 39.39 13.09 38.89C12.7 38.29 12 37.89 11.2 37.5Z" fill="#091757" fillOpacity="1.000000" fillRule="nonzero"/>
	<path id="Vector" d="M10.2 26.89L20.89 34.1L19.39 36.39L8.69 29.1L10.2 26.89Z" fill="#091757" fillOpacity="1.000000" fillRule="nonzero"/>
	<path id="Vector" d="M19.89 15.7L29.2 24.6L27.59 26.3L17.89 24.8L17.79 24.9L23.59 30.5L21.7 32.5L12.39 23.6L14 21.9L23.7 23.5L23.79 23.4L18 17.8L19.89 15.7Z" fill="#091757" fillOpacity="1.000000" fillRule="nonzero"/>
	<path id="Vector" d="M38.59 14.5C38.09 14.69 37.7 14.79 37.2 14.79C36.7 14.79 36.3 14.59 35.89 14.29C35.5 14 35.2 13.69 35 13.19C34.8 12.69 34.7 12.29 34.7 11.79C34.7 11.29 34.89 10.89 35.2 10.5C35.5 10.09 35.8 9.79 36.3 9.59C36.8 9.39 37.2 9.29 37.7 9.29C38.2 9.29 38.59 9.5 39 9.79C39.39 10.09 39.7 10.39 39.89 10.89C40.09 11.39 40.2 11.79 40.2 12.29C40.2 12.79 40 13.19 39.7 13.59C39.39 14 39 14.29 38.59 14.5Z" fill="#091757" fillOpacity="1.000000" fillRule="nonzero"/>
	<path id="Vector" d="M56.1 0.29L58.7 0L59.7 8.89C59.8 9.7 59.7 10.5 59.4 11.1C59.1 11.7 58.6 12.29 58 12.7C57.4 13.1 56.6 13.39 55.8 13.39C55 13.5 54.3 13.39 53.7 13.2C53 13 52.5 12.6 52.1 12.1C51.7 11.6 51.4 10.89 51.3 10.1L54 9.79C54 10.1 54.1 10.39 54.3 10.6C54.5 10.79 54.7 11 54.9 11.1C55.1 11.2 55.4 11.2 55.7 11.2C56 11.2 56.3 11.1 56.5 10.89C56.7 10.7 56.9 10.5 57 10.2C57.1 9.89 57.1 9.6 57.1 9.2L56.1 0.29Z" fill="#091757" fillOpacity="1.000000" fillRule="nonzero"/>
	<path id="Vector" d="M74.39 7.5C74.19 8.89 73.79 10 73.19 11C72.59 11.89 71.79 12.6 70.79 13C69.79 13.39 68.79 13.6 67.69 13.39C66.59 13.3 65.59 12.89 64.69 12.3C63.89 11.7 63.2 10.89 62.79 9.8C62.39 8.8 62.29 7.6 62.39 6.2C62.59 4.8 62.99 3.7 63.59 2.7C64.19 1.8 64.99 1.1 65.99 0.7C66.99 0.3 67.99 0.1 69.09 0.3C70.19 0.39 71.19 0.8 72.09 1.39C72.89 2 73.59 2.8 73.99 3.89C74.39 4.89 74.49 6.1 74.39 7.5ZM71.59 7.2C71.69 6.3 71.69 5.5 71.49 4.89C71.29 4.3 70.99 3.7 70.49 3.39C70.09 3 69.49 2.8 68.79 2.7C68.09 2.6 67.59 2.7 66.99 3C66.49 3.3 65.99 3.7 65.69 4.3C65.39 4.89 65.09 5.6 64.99 6.5C64.89 7.39 64.89 8.2 65.09 8.8C65.29 9.39 65.59 10 66.09 10.3C66.49 10.7 67.09 10.89 67.79 11C68.49 11.1 68.99 11 69.59 10.7C70.09 10.39 70.59 10 70.89 9.39C71.29 8.8 71.49 8.1 71.59 7.2Z" fill="#091757" fillOpacity="1.000000" fillRule="nonzero"/>
	<path id="Vector" d="M81.5 3.09L77.8 15.39L75.19 14.59L78.89 2.29L81.5 3.09Z" fill="#091757" fillOpacity="1.000000" fillRule="nonzero"/>
	<path id="Vector" d="M95.1 9.09L89.3 20.59L87.2 19.5L85.8 9.79L85.7 9.79L82.2 17L79.8 15.79L85.6 4.29L87.7 5.39L89 15.09L89.1 15.19L92.7 8L95.1 9.09Z" fill="#091757" fillOpacity="1.000000" fillRule="nonzero"/>
	<path id="Vector" d="M101.7 26.59C101.4 26.19 101.1 25.79 101 25.29C100.9 24.79 100.9 24.39 101.1 23.89C101.2 23.39 101.5 23 101.9 22.69C102.3 22.39 102.7 22.09 103.2 22C103.7 21.89 104.1 21.89 104.6 22.09C105.1 22.19 105.5 22.5 105.8 22.89C106.1 23.29 106.4 23.69 106.5 24.19C106.6 24.69 106.6 25.09 106.4 25.59C106.3 26.09 106 26.5 105.6 26.79C105.2 27.09 104.8 27.39 104.3 27.5C103.8 27.59 103.4 27.59 102.9 27.39C102.4 27.19 102 27 101.7 26.59Z" fill="#091757" fillOpacity="1.000000" fillRule="nonzero"/>
	<path id="Vector" d="M120.4 39.1L121.5 41.6L113.3 45.2C112.5 45.5 111.8 45.6 111.1 45.6C110.4 45.5 109.8 45.2 109.2 44.8C108.6 44.3 108.2 43.7 107.8 42.89C107.5 42.2 107.3 41.5 107.3 40.8C107.3 40.1 107.5 39.5 107.9 38.89C108.3 38.3 108.8 37.89 109.6 37.6L110.7 40.1C110.4 40.2 110.2 40.39 110 40.6C109.8 40.8 109.7 41.1 109.7 41.3C109.7 41.6 109.7 41.8 109.9 42.1C110 42.39 110.2 42.6 110.4 42.8C110.6 43 110.9 43 111.2 43C111.5 43 111.8 42.89 112.2 42.8L120.4 39.1Z" fill="#091757" fillOpacity="1.000000" fillRule="nonzero"/>
	<path id="Vector" d="M118.9 58.79C117.5 59.1 116.3 59 115.2 58.7C114.1 58.39 113.3 57.79 112.6 57C111.9 56.2 111.5 55.2 111.3 54.1C111.1 53 111.2 51.89 111.5 50.89C111.8 49.89 112.5 49.1 113.3 48.39C114.2 47.7 115.3 47.2 116.7 47C118.1 46.7 119.3 46.79 120.4 47.1C121.5 47.39 122.3 48 123 48.79C123.7 49.6 124.1 50.6 124.3 51.7C124.5 52.79 124.4 53.89 124.1 54.89C123.8 55.89 123.2 56.7 122.3 57.39C121.4 58 120.3 58.5 118.9 58.79ZM118.4 56.1C119.3 55.89 120 55.7 120.6 55.29C121.2 54.89 121.6 54.5 121.8 53.89C122 53.39 122.1 52.79 122 52.1C121.9 51.5 121.6 50.89 121.2 50.5C120.8 50.1 120.3 49.79 119.6 49.6C118.9 49.39 118.2 49.5 117.3 49.6C116.4 49.79 115.7 50 115.1 50.39C114.5 50.79 114.1 51.2 113.9 51.79C113.7 52.29 113.6 52.89 113.7 53.6C113.8 54.2 114.1 54.79 114.5 55.2C114.9 55.6 115.4 55.89 116.1 56.1C116.8 56.2 117.5 56.2 118.4 56.1Z" fill="#091757" fillOpacity="1.000000" fillRule="nonzero"/>
	<path id="Vector" d="M125.2 64.2L112.4 64.29L112.4 61.6L125.2 61.5L125.2 64.2Z" fill="#091757" fillOpacity="1.000000" fillRule="nonzero"/>
	<path id="Vector" d="M123.5 79L110.8 76.89L111.2 74.59L120.1 70.39L120.1 70.29L112.1 69L112.5 66.29L125.2 68.39L124.8 70.79L115.9 74.89L115.9 75L123.9 76.29L123.5 79Z" fill="#091757" fillOpacity="1.000000" fillRule="nonzero"/>
	<path id="Vector" d="M108.7 90.5C109 90.1 109.3 89.7 109.7 89.5C110.1 89.3 110.6 89.1 111.1 89.1C111.6 89.1 112 89.2 112.5 89.5C112.9 89.8 113.3 90.1 113.5 90.5C113.7 90.89 113.9 91.39 113.9 91.89C113.9 92.39 113.8 92.8 113.5 93.3C113.2 93.7 112.9 94.1 112.5 94.3C112.1 94.5 111.6 94.7 111.1 94.7C110.6 94.7 110.2 94.6 109.7 94.3C109.3 94 108.9 93.7 108.7 93.3C108.5 92.89 108.3 92.39 108.3 91.89C108.3 91.39 108.5 90.89 108.7 90.5Z" fill="#091757" fillOpacity="1.000000" fillRule="nonzero"/>
	<path id="Vector" d="M62.6 105.4C39.23 105.4 20.29 86.46 20.29 63.09C20.29 39.73 39.23 20.79 62.6 20.79C85.96 20.79 104.9 39.73 104.9 63.09C104.9 86.46 85.96 105.4 62.6 105.4Z" stroke="#091757" stroke-opacity="1.000000" stroke-width="2.000000"/>
</svg>
