<svg width="15.000000" height="16.786133" viewBox="0 0 15 16.7861" fill="none" xmlns="http://www.w3.org/2000/svg" xmlns:xlink="http://www.w3.org/1999/xlink">
	<path id="Vector" d="M3.87 7.07L3.87 4.31C3.87 2.43 5.56 1 7.5 1C9.55 1 11.12 2.54 11.12 4.31L11.12 7.07" stroke="#575B75" stroke-opacity="1.000000" stroke-width="2.000000" stroke-linecap="round"/>
	<path id="Vector" d="M13.79 5.96L1.2 5.96C0.48 5.96 0 6.4 0 7.07L0 15.68C0 16.34 0.48 16.78 1.2 16.78L13.79 16.78C14.51 16.78 15 16.34 15 15.68L15 7.07C15 6.51 14.51 5.96 13.79 5.96ZM8.7 12.37C8.7 13.03 8.22 13.47 7.5 13.47C6.77 13.47 6.29 13.03 6.29 12.37L6.29 10.49C6.29 9.83 6.77 9.38 7.5 9.38C8.22 9.38 8.7 9.83 8.7 10.49L8.7 12.37Z" fill="#575B75" fill-opacity="1.000000" fill-rule="nonzero"/>
</svg>
