<svg width="107" height="20" viewBox="0 0 107 20" fill="none" xmlns="http://www.w3.org/2000/svg">
  <path d="M7.71994 6.41699H7.63693C7.47091 6.08365 7.30489 5.83366 7.05586 5.50032C6.80683 5.16699 6.47479 4.91699 6.05974 4.66699C5.64469 4.50033 5.06361 4.41699 4.48254 4.41699C3.65244 4.41699 2.90535 4.66699 2.24127 5.08366C1.57719 5.50032 0.996121 6.16699 0.581071 7.00032C0.16602 7.75032 0 8.83365 0 10.0836C0 11.3336 0.16602 12.3336 0.581071 13.0836C0.996121 13.917 1.49418 14.5003 2.15826 14.8336C2.82234 15.2503 3.56943 15.417 4.39953 15.417C4.9806 15.417 5.47866 15.3336 5.89372 15.167C6.30877 15.0003 6.64081 14.7503 6.88984 14.5003C7.13887 14.2503 7.3879 13.917 7.47091 13.667H7.63693V15.667C7.63693 16.417 7.3879 17.0003 6.97285 17.3336C6.5578 17.667 5.97673 17.8336 5.31264 17.8336C4.89759 17.8336 4.48254 17.7503 4.1505 17.667C3.81846 17.5836 3.56943 17.417 3.40341 17.167C3.23739 17.0003 3.07137 16.7503 2.98836 16.5836L0.16602 17.0003C0.33204 17.5836 0.581071 18.0836 0.996121 18.5836C1.41117 19.0836 1.99224 19.417 2.65632 19.667C3.56943 19.8336 4.39953 20.0003 5.39566 20.0003C6.47479 20.0003 7.3879 19.8336 8.218 19.5003C9.0481 19.167 9.62917 18.667 10.1272 18.0836C10.6253 17.417 10.7913 16.667 10.7913 15.7503V4.50033H7.71994V6.41699ZM7.47091 11.7503C7.30489 12.2503 7.05586 12.5836 6.64081 12.8336C6.30877 13.0836 5.89372 13.167 5.39566 13.167C4.89759 13.167 4.48254 13.0003 4.1505 12.7503C3.81846 12.5003 3.56943 12.167 3.40341 11.667C3.23739 11.167 3.15438 10.667 3.15438 10.0003C3.15438 9.33365 3.23739 8.83365 3.40341 8.33365C3.56943 7.91698 3.81846 7.50032 4.1505 7.25032C4.48254 7.00032 4.9806 6.83365 5.47866 6.83365C5.97673 6.83365 6.39178 7.00032 6.72382 7.25032C7.05586 7.50032 7.30489 7.83365 7.47091 8.33365C7.63693 8.83365 7.71994 9.41698 7.71994 10.0003C7.80295 10.667 7.63693 11.2503 7.47091 11.7503Z" fill="#A4A7BC" />
  <path d="M21.0845 5.08301C20.2544 4.58301 19.3413 4.33301 18.1792 4.33301C17.1001 4.33301 16.1039 4.58301 15.2738 5.08301C14.4437 5.58301 13.8627 6.24967 13.3646 7.083C12.9496 7.91633 12.7005 8.91633 12.7005 10.083C12.7005 11.2497 12.9496 12.2497 13.3646 13.083C13.7797 13.9163 14.4437 14.583 15.2738 15.083C16.1039 15.583 17.0171 15.833 18.1792 15.833C19.2583 15.833 20.2544 15.583 21.0845 15.083C21.9146 14.583 22.4957 13.9163 22.9938 13.083C23.4088 12.2497 23.6579 11.2497 23.6579 10.083C23.6579 8.91633 23.4088 7.91633 22.9938 7.083C22.4957 6.24967 21.9146 5.58301 21.0845 5.08301ZM20.2544 11.833C20.0884 12.333 19.8394 12.7497 19.5074 12.9997C19.1753 13.2497 18.7603 13.4163 18.2622 13.4163C17.7641 13.4163 17.3491 13.2497 16.934 12.9997C16.602 12.7497 16.353 12.333 16.187 11.833C16.0209 11.333 15.9379 10.7497 15.9379 10.083C15.9379 9.41633 16.0209 8.833 16.187 8.333C16.353 7.833 16.602 7.49967 16.934 7.16634C17.2661 6.833 17.6811 6.74967 18.2622 6.74967C18.7603 6.74967 19.1753 6.91634 19.5074 7.16634C19.8394 7.49967 20.0884 7.833 20.2544 8.333C20.4205 8.833 20.5035 9.41633 20.5035 10.083C20.5035 10.7497 20.4205 11.333 20.2544 11.833Z" fill="#A4A7BC" />
  <path d="M41.09 11.9167H41.007L39.2638 4.5H36.1924L34.3662 12H34.2832L32.623 4.5H29.4686L32.54 15.5833H35.6943L37.6036 8.66666H37.7696L39.6788 15.5833H42.9162L45.9046 4.5H42.8332L41.09 11.9167Z" fill="#A4A7BC" />
  <path d="M49.0589 0C48.6439 0 48.2288 0.166666 47.8968 0.416666C47.5648 0.749999 47.3987 1.08333 47.3987 1.5C47.3987 1.91666 47.5648 2.33333 47.8968 2.58333C48.2288 2.91666 48.6439 2.99999 49.0589 2.99999C49.474 2.99999 49.889 2.83333 50.2211 2.58333C50.5531 2.25 50.7191 1.91666 50.7191 1.5C50.7191 1.08333 50.5531 0.749999 50.2211 0.416666C49.889 0.166666 49.557 0 49.0589 0Z" fill="#A4A7BC" />
  <path d="M50.6361 4.5H47.5648V15.5833H50.6361V4.5Z" fill="#A4A7BC" />
  <path d="M58.2731 13.2503C58.1071 13.2503 58.024 13.2503 57.858 13.2503C57.692 13.2503 57.443 13.2503 57.277 13.167C57.1109 13.0836 57.0279 13.0003 56.9449 12.8336C56.8619 12.667 56.7789 12.417 56.7789 12.167V6.83365H58.9372V4.50032H56.8619V1.91699H53.7905V4.58365H52.2964V6.91698H53.7905V12.667C53.7905 13.417 53.9566 14.0003 54.2056 14.5003C54.5376 15.0003 54.9527 15.3336 55.5338 15.5836C56.1148 15.8336 56.6959 15.917 57.443 15.917C57.858 15.917 58.1901 15.8336 58.4391 15.8336C58.6881 15.7503 58.9372 15.7503 59.1032 15.667L58.6051 13.417C58.5221 13.167 58.4391 13.2503 58.2731 13.2503Z" fill="#A4A7BC" />
  <path d="M69.5624 4.91633C68.9814 4.583 68.3173 4.41633 67.5702 4.41633C66.7401 4.41633 66.076 4.583 65.4949 4.99967C64.9139 5.333 64.4988 5.91633 64.2498 6.49966H64.0838V0.833008H61.0954V15.583H64.1668V9.16632C64.1668 8.66632 64.2498 8.24966 64.4158 7.91633C64.5818 7.58299 64.8309 7.33299 65.1629 7.16633C65.4949 6.99966 65.827 6.91633 66.242 6.91633C66.9061 6.91633 67.3212 7.08299 67.7362 7.49966C68.0682 7.91633 68.2343 8.41633 68.2343 9.08299V15.583H71.3056V8.49966C71.3056 7.66633 71.1396 6.91633 70.8076 6.24966C70.5586 5.66633 70.0605 5.24967 69.5624 4.91633Z" fill="#A4A7BC" />
  <path d="M90.979 4.41699C90.1489 4.41699 89.4849 4.58366 88.9038 5.00032C88.3227 5.41699 87.9077 5.91699 87.6586 6.50032H87.5756C87.4096 5.83366 87.0776 5.33366 86.4965 5.00032C85.9984 4.58366 85.3344 4.41699 84.5873 4.41699C83.8402 4.41699 83.1761 4.58366 82.678 5.00032C82.18 5.33366 81.7649 5.91699 81.5159 6.50032H81.3499V4.50033H78.4445V15.5836H81.5159V8.91698C81.5159 8.50032 81.5989 8.16698 81.7649 7.83365C81.9309 7.50032 82.097 7.25032 82.429 7.08365C82.678 6.91699 83.0101 6.83365 83.3421 6.83365C83.8402 6.83365 84.2552 7.00032 84.5873 7.33365C84.9193 7.66699 85.0853 8.08365 85.0853 8.66698V15.5836H88.0737V8.83365C88.0737 8.25032 88.2397 7.75032 88.5717 7.41699C88.9038 7.08365 89.3188 6.91699 89.8999 6.91699C90.398 6.91699 90.813 7.08365 91.1451 7.41699C91.4771 7.75032 91.6431 8.16698 91.6431 8.83365V15.667H94.7145V8.16698C94.7145 7.00032 94.3825 6.00032 93.7184 5.41699C92.8883 4.75032 92.0582 4.41699 90.979 4.41699Z" fill="#A4A7BC" />
  <path d="M107 10.833V9.99966C107 9.083 106.834 8.24967 106.585 7.49967C106.336 6.833 105.921 6.24967 105.506 5.74967C105.008 5.24967 104.51 4.91634 103.846 4.66634C103.182 4.41634 102.517 4.33301 101.77 4.33301C100.691 4.33301 99.7781 4.58301 98.948 5.08301C98.1179 5.58301 97.5369 6.24967 97.1218 7.083C96.7068 7.91633 96.4577 8.91633 96.4577 10.083C96.4577 11.2497 96.7068 12.2497 97.1218 13.083C97.5369 13.9163 98.2009 14.583 99.031 15.083C99.8612 15.583 100.857 15.7497 101.936 15.7497C102.85 15.7497 103.68 15.583 104.344 15.333C105.008 15.083 105.589 14.6663 106.087 14.1663C106.502 13.6663 106.834 13.083 107 12.4163L104.178 12.2497C104.095 12.4997 103.929 12.7497 103.68 12.9163C103.514 13.083 103.265 13.2497 102.933 13.333C102.683 13.4163 102.351 13.4997 102.019 13.4997C101.521 13.4997 101.023 13.4163 100.691 13.1663C100.359 12.9163 100.027 12.6663 99.8612 12.2497C99.6951 11.833 99.5291 11.4163 99.5291 10.833H107ZM100.608 6.99967C100.94 6.74967 101.355 6.66634 101.853 6.66634C102.268 6.66634 102.683 6.74967 103.016 6.99967C103.348 7.16634 103.597 7.49967 103.846 7.833C104.095 8.16633 104.095 8.583 104.095 8.99967H99.4461C99.4461 8.583 99.5291 8.24967 99.7781 7.91633C99.9442 7.49967 100.276 7.24967 100.608 6.99967Z" fill="#A4A7BC" />
</svg>