<svg width="127.800110" height="24.000000" viewBox="0 0 127.8 24" fill="none" xmlns="http://www.w3.org/2000/svg" xmlns:xlink="http://www.w3.org/1999/xlink">
	<path id="Vector" d="M7.39 16.1C7.2 16.1 7.1 16.1 6.89 16.1C6.6 16.1 6.39 16.1 6.2 16C6 15.9 5.89 15.8 5.79 15.6C5.7 15.4 5.6 15.1 5.6 14.8L5.6 8.3L8.1 8.3L8.1 5.5L5.6 5.5L5.6 2.3L1.79 2.3L1.79 5.5L0 5.5L0 8.3L1.79 8.3L1.79 15.3C1.79 16.2 2 16.9 2.39 17.5C2.79 18.1 3.29 18.5 4 18.79C4.7 19.1 5.5 19.2 6.39 19.2C6.89 19.2 7.29 19.1 7.6 19.1C7.89 19 8.2 19 8.39 18.9L7.79 16C7.7 16 7.5 16.1 7.39 16.1Z" fill="#091757" fill-opacity="1.000000" fill-rule="nonzero"/>
	<path id="Vector" d="M17.5 5.3C16.7 5.3 16.1 5.5 15.5 5.9C14.9 6.3 14.5 7 14.3 7.8L14.2 7.8L14.2 5.5L10.6 5.5L10.6 19L14.3 19L14.3 11.4C14.3 10.9 14.4 10.4 14.7 9.9C14.9 9.5 15.3 9.2 15.7 8.9C16.1 8.7 16.6 8.5 17.2 8.5C17.5 8.5 17.7 8.5 18 8.6C18.3 8.6 18.6 8.7 18.7 8.7L18.7 5.4C18.5 5.4 18.3 5.3 18.1 5.3C17.9 5.3 17.7 5.3 17.5 5.3Z" fill="#091757" fill-opacity="1.000000" fill-rule="nonzero"/>
	<path id="Vector" d="M22.5 0C21.9 0 21.5 0.19 21.1 0.59C20.7 1 20.5 1.4 20.5 1.9C20.5 2.4 20.7 2.9 21.1 3.19C21.5 3.59 22 3.8 22.5 3.8C23 3.8 23.5 3.59 23.9 3.19C24.3 2.8 24.5 2.4 24.5 1.9C24.5 1.4 24.3 0.9 23.9 0.59C23.5 0.19 23 0 22.5 0Z" fill="#091757" fill-opacity="1.000000" fill-rule="nonzero"/>
	<path id="Vector" d="M20.6 5.5L24.3 5.5L24.3 18.9L20.6 18.9L20.6 5.5Z" fill="#091757" fill-opacity="1.000000" fill-rule="evenodd"/>
	<path id="Vector" d="M37.79 6.09C36.89 5.59 35.99 5.3 34.99 5.3C34.19 5.3 33.59 5.4 33.09 5.69C32.59 6 32.19 6.3 31.89 6.59C31.59 7 31.29 7.3 31.19 7.69L31.09 7.69L31.09 1L27.39 1L27.39 19L31.09 19L31.09 16.79L31.29 16.79C31.49 17.2 31.69 17.5 31.99 17.9C32.29 18.29 32.69 18.6 33.19 18.79C33.69 19 34.29 19.2 34.99 19.2C35.99 19.2 36.89 18.9 37.79 18.4C38.59 17.9 39.29 17.1 39.79 16.1C40.29 15.1 40.49 13.8 40.49 12.3C40.49 10.8 40.29 9.5 39.79 8.5C39.29 7.4 38.59 6.59 37.79 6.09ZM36.39 14.3C36.19 14.9 35.89 15.4 35.39 15.7C34.99 16 34.49 16.2 33.89 16.2C33.29 16.2 32.79 16 32.39 15.7C31.99 15.4 31.69 14.9 31.39 14.3C31.09 13.7 30.99 13 30.99 12.2C30.99 11.4 31.09 10.7 31.29 10.1C31.49 9.5 31.79 9.09 32.29 8.69C32.69 8.4 33.19 8.19 33.79 8.19C34.39 8.19 34.89 8.4 35.29 8.69C35.69 9 35.99 9.5 36.29 10.1C36.49 10.7 36.59 11.4 36.59 12.1C36.69 13 36.59 13.7 36.39 14.3Z" fill="#091757" fill-opacity="1.000000" fill-rule="nonzero"/>
	<path id="Vector" d="M53.39 7C52.79 6.4 52.19 6 51.39 5.7C50.59 5.4 49.79 5.3 48.89 5.3C47.59 5.3 46.39 5.6 45.49 6.2C44.49 6.8 43.79 7.6 43.19 8.6C42.69 9.6 42.39 10.9 42.39 12.2C42.39 13.6 42.69 14.8 43.19 15.9C43.69 16.9 44.49 17.7 45.49 18.29C46.49 18.9 47.69 19.1 49.09 19.1C50.19 19.1 51.19 18.9 51.99 18.6C52.79 18.29 53.49 17.79 54.09 17.2C54.59 16.6 54.99 15.9 55.19 15L51.79 14.8C51.69 15.1 51.49 15.4 51.19 15.7C50.99 15.9 50.69 16.1 50.29 16.2C49.99 16.29 49.59 16.4 49.19 16.4C48.59 16.4 47.99 16.29 47.59 16C47.09 15.7 46.79 15.4 46.49 14.9C46.29 14.4 46.09 13.8 46.09 13.2L55.29 13.2L55.29 12.2C55.29 11.1 55.09 10.1 54.79 9.2C54.49 8.3 53.99 7.6 53.39 7ZM46.09 10.9C46.09 10.4 46.19 10 46.49 9.6C46.69 9.2 47.09 8.8 47.49 8.6C47.89 8.3 48.39 8.2 48.99 8.2C49.49 8.2 49.99 8.3 50.39 8.6C50.79 8.9 51.09 9.2 51.39 9.6C51.59 10 51.79 10.5 51.79 11L46.09 11L46.09 10.9Z" fill="#091757" fill-opacity="1.000000" fill-rule="nonzero"/>
	<path id="Vector" d="M74.5 6.1C73.69 5.6 72.8 5.3 71.8 5.3C71 5.3 70.4 5.4 69.9 5.7C69.4 6 69 6.3 68.6 6.7C68.3 7.1 68.1 7.4 67.9 7.8L67.69 7.8L67.69 5.5L64 5.5L64 24L67.69 24L67.69 16.79L67.8 16.79C68 17.2 68.19 17.5 68.5 17.9C68.8 18.29 69.19 18.6 69.69 18.79C70.19 19 70.8 19.2 71.5 19.2C72.5 19.2 73.4 18.9 74.3 18.4C75.1 17.9 75.8 17.1 76.3 16.1C76.8 15.1 77 13.8 77 12.3C77 10.8 76.8 9.5 76.3 8.5C75.8 7.5 75.3 6.6 74.5 6.1ZM73.1 14.3C72.9 14.9 72.6 15.4 72.1 15.7C71.69 16 71.19 16.2 70.6 16.2C70 16.2 69.5 16 69.1 15.7C68.69 15.4 68.4 14.9 68.1 14.3C67.9 13.7 67.8 13 67.8 12.2C67.8 11.4 67.9 10.7 68.1 10.1C68.3 9.5 68.6 9.1 69.1 8.7C69.5 8.4 70 8.2 70.6 8.2C71.19 8.2 71.69 8.4 72.19 8.7C72.6 9 72.9 9.5 73.19 10.1C73.4 10.7 73.5 11.4 73.5 12.1C73.4 13 73.3 13.7 73.1 14.3Z" fill="#091757" fill-opacity="1.000000" fill-rule="nonzero"/>
	<path id="Vector" d="M79.7 1L83.4 1L83.4 18.9L79.7 18.9L79.7 1Z" fill="#091757" fill-opacity="1.000000" fill-rule="evenodd"/>
	<path id="Vector" d="M96.1 6.4C95.6 6 95 5.8 94.3 5.6C93.6 5.4 92.9 5.3 92.2 5.3C91.1 5.3 90.2 5.5 89.4 5.8C88.6 6.1 87.9 6.6 87.4 7.2C86.9 7.8 86.5 8.5 86.4 9.3L89.8 9.6C89.9 9.2 90.2 8.8 90.6 8.5C91 8.2 91.5 8.1 92.2 8.1C92.8 8.1 93.3 8.3 93.7 8.6C94 8.9 94.2 9.3 94.2 9.9L94.2 10C94.2 10.3 94.1 10.5 93.9 10.6C93.7 10.7 93.3 10.9 92.9 10.9C92.4 11 91.8 11 91 11.1C90.3 11.2 89.7 11.3 89.1 11.4C88.5 11.6 88 11.8 87.5 12.1C87 12.4 86.7 12.8 86.4 13.3C86.1 13.8 86 14.4 86 15.2C86 16.1 86.2 16.79 86.6 17.4C87 18 87.5 18.4 88.2 18.7C88.9 19 89.6 19.2 90.5 19.2C91.2 19.2 91.8 19.1 92.3 18.9C92.8 18.7 93.2 18.5 93.6 18.2C94 17.9 94.3 17.5 94.5 17.1L94.6 17.1L94.6 19L98.1 19L98.1 9.9C98.1 9.1 97.9 8.4 97.6 7.8C97 7.2 96.6 6.8 96.1 6.4ZM94.1 14.1C94.1 14.6 94 15 93.7 15.4C93.5 15.8 93.1 16.1 92.7 16.29C92.3 16.5 91.8 16.6 91.2 16.6C90.6 16.6 90.2 16.5 89.8 16.2C89.4 15.9 89.2 15.5 89.2 15C89.2 14.7 89.3 14.4 89.5 14.1C89.7 13.9 89.9 13.7 90.3 13.5C90.6 13.4 91 13.3 91.4 13.2C91.6 13.2 91.8 13.1 92.1 13.1C92.4 13.1 92.6 13 92.9 13C93.2 13 93.4 12.9 93.6 12.8C93.8 12.7 94 12.7 94.1 12.6L94.1 14.1Z" fill="#091757" fill-opacity="1.000000" fill-rule="nonzero"/>
	<path id="Vector" d="M110.9 5.9C110.2 5.5 109.4 5.3 108.5 5.3C107.5 5.3 106.7 5.5 106 6C105.3 6.5 104.8 7.1 104.5 7.9L104.3 7.9L104.3 5.5L100.7 5.5L100.7 19L104.4 19L104.4 11.2C104.4 10.6 104.5 10.1 104.7 9.7C104.9 9.3 105.2 9 105.6 8.8C106 8.6 106.4 8.5 106.9 8.5C107.6 8.5 108.2 8.7 108.7 9.2C109.1 9.7 109.3 10.3 109.3 11.1L109.3 19L113 19L113 10.4C113 9.4 112.8 8.5 112.4 7.7C112 6.9 111.6 6.4 110.9 5.9Z" fill="#091757" fill-opacity="1.000000" fill-rule="nonzero"/>
	<path id="Vector" d="M126.6 12.4C126 11.8 125 11.4 123.7 11.1L121.3 10.6C120.7 10.5 120.2 10.3 120 10.1C119.7 9.9 119.6 9.6 119.6 9.3C119.6 8.9 119.8 8.6 120.2 8.3C120.6 8.1 121.1 7.9 121.7 7.9C122.1 7.9 122.5 8 122.8 8.1C123.1 8.2 123.4 8.4 123.6 8.7C123.8 8.9 123.9 9.2 124 9.5L127.4 9.3C127.2 8.1 126.7 7.1 125.7 6.4C124.7 5.7 123.4 5.3 121.7 5.3C120.5 5.3 119.5 5.5 118.7 5.8C117.8 6.1 117.2 6.6 116.7 7.2C116.2 7.8 116 8.6 116 9.4C116 10.4 116.3 11.2 117 11.9C117.7 12.6 118.6 13 119.9 13.3L122.2 13.8C122.8 13.9 123.2 14.1 123.5 14.3C123.8 14.5 123.9 14.8 123.9 15.1C123.9 15.5 123.7 15.8 123.3 16.1C122.9 16.4 122.4 16.5 121.7 16.5C121 16.5 120.5 16.4 120.1 16.1C119.7 15.8 119.4 15.4 119.3 14.9L115.6 15.1C115.8 16.4 116.4 17.4 117.5 18.1C118.6 18.79 120 19.2 121.8 19.2C123 19.2 124 19 124.9 18.6C125.8 18.2 126.5 17.7 127 17C127.5 16.29 127.8 15.66 127.8 14.7C127.5 13.5 127.2 13 126.6 12.4Z" fill="#091757" fill-opacity="1.000000" fill-rule="nonzero"/>
</svg>
