<svg width="104.000000" height="19.000000" viewBox="0 0 104 19" fill="none" xmlns="http://www.w3.org/2000/svg" xmlns:xlink="http://www.w3.org/1999/xlink">
	<path id="Vector" d="M18.3 0C17.82 0 17.49 0.15 17.17 0.47C16.84 0.79 16.68 1.1 16.68 1.5C16.68 1.9 16.84 2.29 17.17 2.53C17.49 2.84 17.9 3 18.3 3C18.71 3 19.12 2.84 19.44 2.53C19.77 2.21 19.93 1.9 19.93 1.5C19.93 1.1 19.77 0.71 19.44 0.47C19.12 0.15 18.71 0 18.3 0ZM30.76 4.82C30.02 4.43 29.29 4.19 28.48 4.19C27.83 4.19 27.34 4.27 26.93 4.51C26.52 4.75 26.2 4.98 25.95 5.22C25.71 5.54 25.47 5.77 25.38 6.09L25.3 6.09L25.3 0.79L22.29 0.79L22.29 15.04L25.3 15.04L25.3 13.29L25.47 13.29C25.63 13.61 25.79 13.85 26.04 14.17C26.28 14.48 26.61 14.72 27.01 14.88C27.42 15.04 27.91 15.2 28.48 15.2C29.29 15.2 30.02 14.96 30.76 14.56C31.41 14.17 31.98 13.53 32.38 12.74C32.79 11.95 32.95 10.92 32.95 9.73C32.95 8.54 32.79 7.52 32.38 6.72C31.98 5.85 31.41 5.22 30.76 4.82ZM67.86 0.79L64.85 0.79L64.85 14.96L67.86 14.96L67.86 0.79ZM6.02 12.74L5.61 12.74C5.37 12.74 5.2 12.74 5.04 12.66C4.88 12.58 4.8 12.5 4.71 12.34C4.63 12.19 4.55 11.95 4.55 11.71L4.55 6.57L6.59 6.57L6.59 4.35L4.55 4.35L4.55 1.82L1.46 1.82L1.46 4.35L0 4.35L0 6.57L1.46 6.57L1.46 12.11C1.46 12.82 1.62 13.37 1.95 13.85C2.27 14.32 2.68 14.64 3.25 14.88C3.82 15.12 4.47 15.2 5.2 15.2C5.61 15.2 5.94 15.12 6.18 15.12C6.42 15.04 6.67 15.04 6.83 14.96L6.34 12.66C6.26 12.66 6.1 12.74 6.02 12.74ZM14.24 4.19C13.59 4.19 13.1 4.35 12.61 4.67C12.12 4.98 11.79 5.54 11.63 6.17L11.55 6.17L11.55 4.35L8.62 4.35L8.62 15.04L11.63 15.04L11.63 9.02C11.63 8.62 11.71 8.23 11.96 7.83C12.12 7.52 12.45 7.28 12.77 7.04C13.1 6.88 13.5 6.72 13.99 6.72C14.24 6.72 14.4 6.72 14.64 6.8C14.89 6.8 15.13 6.88 15.21 6.88L15.21 4.27C15.05 4.27 14.89 4.19 14.72 4.19L14.24 4.19ZM43.45 5.54C42.96 5.06 42.47 4.75 41.82 4.51C41.17 4.27 40.52 4.19 39.79 4.19C38.73 4.19 37.75 4.43 37.02 4.9C36.21 5.38 35.64 6.01 35.15 6.8C34.74 7.59 34.5 8.62 34.5 9.65C34.5 10.76 34.74 11.71 35.15 12.58C35.56 13.37 36.21 14.01 37.02 14.48C37.84 14.96 38.81 15.12 39.95 15.12C40.85 15.12 41.66 14.96 42.31 14.72C42.96 14.48 43.53 14.09 44.02 13.61C44.43 13.14 44.75 12.58 44.92 11.87L42.15 11.71C42.07 11.95 41.9 12.19 41.66 12.42C41.5 12.58 41.25 12.74 40.93 12.82C40.68 12.9 40.36 12.98 40.03 12.98C39.54 12.98 39.06 12.9 38.73 12.66C38.32 12.42 38.08 12.19 37.84 11.79C37.67 11.4 37.51 10.92 37.51 10.45L45 10.45L45 9.65C45 8.78 44.83 7.99 44.59 7.28C44.35 6.57 43.94 6.01 43.45 5.54ZM60.62 4.82C59.97 4.43 59.24 4.19 58.42 4.19C57.77 4.19 57.28 4.27 56.88 4.51C56.47 4.75 56.15 4.98 55.82 5.3C55.58 5.62 55.41 5.85 55.25 6.17L55.09 6.17L55.09 4.35L52.08 4.35L52.08 19L55.09 19L55.09 13.29L55.17 13.29C55.33 13.61 55.49 13.85 55.74 14.17C55.98 14.48 56.31 14.72 56.71 14.88C57.12 15.04 57.61 15.2 58.18 15.2C58.99 15.2 59.73 14.96 60.46 14.56C61.11 14.17 61.68 13.53 62.09 12.74C62.49 11.95 62.66 10.92 62.66 9.73C62.66 8.54 62.49 7.52 62.09 6.72C61.68 5.93 61.27 5.22 60.62 4.82ZM78.2 5.06C77.79 4.75 77.3 4.59 76.73 4.43C76.16 4.27 75.59 4.19 75.02 4.19C74.13 4.19 73.4 4.35 72.75 4.59C72.1 4.82 71.53 5.22 71.12 5.7C70.71 6.17 70.39 6.72 70.3 7.36L73.07 7.59C73.15 7.28 73.4 6.96 73.72 6.72C74.05 6.49 74.46 6.41 75.02 6.41C75.51 6.41 75.92 6.57 76.25 6.8C76.49 7.04 76.65 7.36 76.65 7.83L76.65 7.91C76.65 8.15 76.57 8.31 76.41 8.39C76.25 8.47 75.92 8.62 75.59 8.62C75.19 8.7 74.7 8.7 74.05 8.78C73.48 8.86 72.99 8.94 72.5 9.02C72.01 9.18 71.61 9.34 71.2 9.57C70.79 9.81 70.55 10.13 70.3 10.52C70.06 10.92 69.98 11.4 69.98 12.03C69.98 12.74 70.14 13.29 70.47 13.77C70.79 14.25 71.2 14.56 71.77 14.8C72.34 15.04 72.91 15.2 73.64 15.2C74.21 15.2 74.7 15.12 75.11 14.96C75.51 14.8 75.84 14.64 76.16 14.4C76.49 14.17 76.73 13.85 76.9 13.53L76.98 13.53L76.98 15.04L79.83 15.04L79.83 7.83C79.83 7.2 79.66 6.65 79.42 6.17C78.93 5.7 78.61 5.38 78.2 5.06ZM90.24 4.67C89.67 4.35 89.02 4.19 88.29 4.19C87.48 4.19 86.82 4.35 86.25 4.75C85.69 5.14 85.28 5.62 85.03 6.25L84.87 6.25L84.87 4.35L81.94 4.35L81.94 15.04L84.95 15.04L84.95 8.86C84.95 8.39 85.03 7.99 85.2 7.67C85.36 7.36 85.6 7.12 85.93 6.96C86.25 6.8 86.58 6.72 86.99 6.72C87.56 6.72 88.05 6.88 88.45 7.28C88.78 7.67 88.94 8.15 88.94 8.78L88.94 15.04L91.95 15.04L91.95 8.23C91.95 7.44 91.79 6.72 91.46 6.09C91.14 5.46 90.81 5.06 90.24 4.67ZM103.02 9.81C102.53 9.34 101.72 9.02 100.66 8.78L98.71 8.39C98.22 8.31 97.81 8.15 97.65 7.99C97.4 7.83 97.32 7.59 97.32 7.36C97.32 7.04 97.48 6.8 97.81 6.57C98.14 6.41 98.54 6.25 99.03 6.25C99.36 6.25 99.68 6.33 99.93 6.41C100.17 6.49 100.41 6.65 100.58 6.88C100.74 7.04 100.82 7.28 100.9 7.52L103.67 7.36C103.51 6.41 103.1 5.62 102.29 5.06C101.47 4.51 100.41 4.19 99.03 4.19C98.05 4.19 97.24 4.35 96.59 4.59C95.86 4.82 95.37 5.22 94.96 5.7C94.56 6.17 94.39 6.8 94.39 7.44C94.39 8.23 94.64 8.86 95.21 9.42C95.78 9.97 96.51 10.29 97.57 10.52L99.44 10.92C99.93 11 100.25 11.16 100.5 11.32C100.74 11.47 100.82 11.71 100.82 11.95C100.82 12.27 100.66 12.5 100.33 12.74C100.01 12.98 99.6 13.06 99.03 13.06C98.46 13.06 98.05 12.98 97.73 12.74C97.4 12.5 97.16 12.19 97.08 11.79L94.07 11.95C94.23 12.98 94.72 13.77 95.61 14.32C96.51 14.88 97.65 15.2 99.11 15.2C100.09 15.2 100.9 15.04 101.64 14.72C102.37 14.4 102.94 14.01 103.34 13.45C103.75 12.9 104 12.34 104 11.63C103.75 10.92 103.51 10.29 103.02 9.81ZM19.77 4.35L16.76 4.35L16.76 14.96L19.77 14.96L19.77 4.35ZM29.62 11.32C29.45 11.79 29.21 12.19 28.8 12.42C28.48 12.66 28.07 12.82 27.58 12.82C27.09 12.82 26.69 12.66 26.36 12.42C26.04 12.19 25.79 11.79 25.55 11.32C25.3 10.84 25.22 10.29 25.22 9.65C25.22 9.02 25.3 8.47 25.47 7.99C25.63 7.52 25.87 7.2 26.28 6.88C26.61 6.65 27.01 6.49 27.5 6.49C27.99 6.49 28.4 6.65 28.72 6.88C29.05 7.12 29.29 7.52 29.53 7.99C29.7 8.47 29.78 9.02 29.78 9.57C29.8 9.77 29.81 9.94 29.81 10.11C29.81 10.58 29.74 10.97 29.62 11.32ZM37.51 8.62C37.51 8.23 37.59 7.91 37.84 7.59C38 7.28 38.32 6.96 38.65 6.8C38.97 6.57 39.38 6.49 39.87 6.49C40.28 6.49 40.68 6.57 41.01 6.8C41.33 7.04 41.58 7.28 41.82 7.59C41.99 7.91 42.15 8.31 42.15 8.7L37.51 8.7L37.51 8.62ZM59.48 11.32C59.32 11.79 59.07 12.19 58.67 12.42C58.34 12.66 57.94 12.82 57.45 12.82C56.96 12.82 56.55 12.66 56.23 12.42C55.9 12.19 55.66 11.79 55.41 11.32C55.25 10.84 55.17 10.29 55.17 9.65C55.17 9.02 55.25 8.47 55.41 7.99C55.58 7.52 55.82 7.2 56.23 6.88C56.55 6.65 56.96 6.49 57.45 6.49C57.94 6.49 58.34 6.65 58.75 6.88C59.07 7.12 59.32 7.52 59.56 7.99C59.73 8.47 59.81 9.02 59.81 9.57C59.73 10.29 59.64 10.84 59.48 11.32ZM76.57 11.16C76.57 11.55 76.49 11.87 76.25 12.19C76.08 12.5 75.76 12.74 75.43 12.9C75.11 13.06 74.7 13.14 74.21 13.14C73.72 13.14 73.4 13.06 73.07 12.82C72.75 12.58 72.58 12.27 72.58 11.87C72.58 11.63 72.66 11.4 72.83 11.16C72.99 11 73.15 10.84 73.48 10.68C73.72 10.6 74.05 10.52 74.37 10.45C74.54 10.45 74.7 10.37 74.94 10.37C75.19 10.37 75.35 10.29 75.59 10.29C75.84 10.29 76 10.21 76.16 10.13C76.33 10.05 76.49 10.05 76.57 9.97L76.57 11.16Z" fill="#A4A7BC" fill-opacity="1.000000" fill-rule="evenodd"/>
</svg>
