<svg width="175.000000" height="25.000000" viewBox="0 0 175 25" fill="none" xmlns="http://www.w3.org/2000/svg" xmlns:xlink="http://www.w3.org/1999/xlink">
	<defs/>
	<path id="Vector" d="M9.29 7.7L9.2 7.7C9 7.3 8.79 7 8.5 6.6C8.2 6.2 7.79 5.9 7.29 5.6C6.79 5.4 6.09 5.3 5.4 5.3C4.4 5.3 3.5 5.6 2.7 6.1C1.9 6.6 1.2 7.4 0.7 8.4C0.2 9.3 0 10.6 0 12.1C0 13.6 0.2 14.8 0.7 15.7C1.2 16.7 1.79 17.4 2.59 17.79C3.4 18.29 4.29 18.5 5.29 18.5C6 18.5 6.59 18.4 7.09 18.2C7.59 18 8 17.7 8.29 17.4C8.59 17.1 8.9 16.7 9 16.4L9.2 16.4L9.2 18.79C9.2 19.7 8.9 20.4 8.4 20.8C7.9 21.2 7.2 21.4 6.4 21.4C5.9 21.4 5.4 21.3 5 21.2C4.59 21.1 4.29 20.9 4.09 20.6C3.9 20.4 3.7 20.1 3.59 19.9L0.2 20.4C0.4 21.1 0.7 21.7 1.2 22.3C1.7 22.9 2.4 23.3 3.2 23.6C4.29 23.8 5.29 24 6.5 24C7.79 24 8.9 23.8 9.9 23.4C10.9 23 11.6 22.4 12.2 21.7C12.8 20.9 13 20 13 18.9L13 5.4L9.29 5.4L9.29 7.7ZM9 14.1C8.79 14.7 8.5 15.1 8 15.4C7.59 15.7 7.09 15.8 6.5 15.8C5.9 15.8 5.4 15.6 5 15.3C4.59 15 4.29 14.6 4.09 14C3.9 13.4 3.79 12.8 3.79 12C3.79 11.2 3.9 10.6 4.09 10C4.29 9.5 4.59 9 5 8.7C5.4 8.4 6 8.2 6.59 8.2C7.2 8.2 7.7 8.4 8.09 8.7C8.5 9 8.79 9.4 9 10C9.2 10.6 9.29 11.3 9.29 12C9.4 12.8 9.2 13.5 9 14.1Z" fill="#091757" fill-opacity="1.000000" fill-rule="evenodd"/>
	<path id="Vector" d="M25.4 6.09C24.4 5.49 23.3 5.19 21.9 5.19C20.6 5.19 19.4 5.49 18.4 6.09C17.4 6.69 16.7 7.49 16.1 8.49C15.6 9.49 15.3 10.7 15.3 12.1C15.3 13.49 15.6 14.7 16.1 15.7C16.6 16.7 17.4 17.49 18.4 18.1C19.4 18.7 20.5 18.99 21.9 18.99C23.2 18.99 24.4 18.7 25.4 18.1C26.4 17.49 27.1 16.7 27.7 15.7C28.2 14.7 28.5 13.49 28.5 12.1C28.5 10.7 28.2 9.49 27.7 8.49C27.1 7.49 26.4 6.69 25.4 6.09ZM24.4 14.2C24.2 14.79 23.9 15.29 23.5 15.6C23.1 15.9 22.6 16.1 22 16.1C21.4 16.1 20.9 15.9 20.4 15.6C20 15.29 19.7 14.79 19.5 14.2C19.29 13.6 19.2 12.9 19.2 12.1C19.2 11.29 19.29 10.6 19.5 9.99C19.7 9.39 20 8.99 20.4 8.59C20.8 8.19 21.3 8.09 22 8.09C22.6 8.09 23.1 8.29 23.5 8.59C23.9 8.99 24.2 9.39 24.4 9.99C24.6 10.6 24.7 11.29 24.7 12.1C24.7 12.9 24.6 13.6 24.4 14.2Z" fill="#091757" fill-opacity="1.000000" fill-rule="evenodd"/>
	<path id="Vector" d="M49.5 14.3L49.4 14.3L47.3 5.4L43.6 5.4L41.4 14.4L41.3 14.4L39.3 5.4L35.5 5.4L39.2 18.7L43 18.7L45.3 10.4L45.5 10.4L47.8 18.7L51.7 18.7L55.3 5.4L51.6 5.4L49.5 14.3Z" fill="#091757" fill-opacity="1.000000" fill-rule="evenodd"/>
	<path id="Vector" d="M59.1 0C58.6 0 58.1 0.2 57.7 0.5C57.3 0.9 57.1 1.29 57.1 1.79C57.1 2.29 57.3 2.79 57.7 3.09C58.1 3.5 58.6 3.59 59.1 3.59C59.6 3.59 60.1 3.4 60.5 3.09C60.9 2.7 61.1 2.29 61.1 1.79C61.1 1.29 60.9 0.9 60.5 0.5C60.1 0.2 59.7 0 59.1 0Z" fill="#091757" fill-opacity="1.000000" fill-rule="evenodd"/>
	<path id="Vector" d="M57.3 5.4L61 5.4L61 18.7L57.3 18.7L57.3 5.4Z" fill="#091757" fill-opacity="1.000000" fill-rule="evenodd"/>
	<path id="Vector" d="M70.19 15.9C70 15.9 69.9 15.9 69.69 15.9C69.5 15.9 69.19 15.9 69 15.8C68.8 15.7 68.69 15.6 68.6 15.4C68.5 15.2 68.4 14.9 68.4 14.6L68.4 8.2L71 8.2L71 5.4L68.5 5.4L68.5 2.3L64.8 2.3L64.8 5.5L63 5.5L63 8.3L64.8 8.3L64.8 15.2C64.8 16.1 65 16.79 65.3 17.4C65.69 18 66.19 18.4 66.9 18.7C67.6 19 68.3 19.1 69.19 19.1C69.69 19.1 70.1 19 70.4 19C70.69 18.9 71 18.9 71.19 18.79L70.6 16.1C70.5 15.8 70.4 15.9 70.19 15.9Z" fill="#091757" fill-opacity="1.000000" fill-rule="evenodd"/>
	<path id="Vector" d="M83.8 5.9C83.1 5.5 82.3 5.29 81.4 5.29C80.4 5.29 79.6 5.5 78.9 6C78.19 6.4 77.69 7.09 77.4 7.79L77.19 7.79L77.19 1L73.6 1L73.6 18.7L77.3 18.7L77.3 11C77.3 10.4 77.4 9.9 77.6 9.5C77.8 9.09 78.1 8.79 78.5 8.59C78.9 8.4 79.3 8.29 79.8 8.29C80.6 8.29 81.1 8.5 81.6 9C82 9.5 82.2 10.1 82.2 10.9L82.2 18.7L85.9 18.7L85.9 10.2C85.9 9.2 85.7 8.29 85.3 7.5C85 6.79 84.4 6.29 83.8 5.9Z" fill="#091757" fill-opacity="1.000000" fill-rule="evenodd"/>
	<path id="Vector" d="M109.6 5.3C108.6 5.3 107.8 5.5 107.1 6C106.4 6.5 105.9 7.1 105.6 7.8L105.5 7.8C105.3 7 104.9 6.4 104.2 6C103.6 5.5 102.8 5.3 101.9 5.3C101 5.3 100.2 5.5 99.6 6C99 6.4 98.5 7.1 98.2 7.8L98 7.8L98 5.4L94.5 5.4L94.5 18.7L98.2 18.7L98.2 10.7C98.2 10.2 98.3 9.8 98.5 9.4C98.7 9 98.9 8.7 99.3 8.5C99.6 8.3 100 8.2 100.4 8.2C101 8.2 101.5 8.4 101.9 8.8C102.3 9.2 102.5 9.7 102.5 10.4L102.5 18.7L106.1 18.7L106.1 10.6C106.1 9.9 106.3 9.3 106.7 8.9C107.1 8.5 107.6 8.3 108.3 8.3C108.9 8.3 109.4 8.5 109.8 8.9C110.2 9.3 110.4 9.8 110.4 10.6L110.4 18.79L114.1 18.79L114.1 9.8C114.1 8.4 113.7 7.2 112.9 6.5C111.9 5.7 110.9 5.3 109.6 5.3Z" fill="#091757" fill-opacity="1.000000" fill-rule="evenodd"/>
	<path id="Vector" d="M128.89 12.99L128.89 11.99C128.89 10.9 128.7 9.89 128.39 8.99C128.1 8.19 127.6 7.49 127.1 6.89C126.5 6.29 125.9 5.89 125.1 5.59C124.3 5.29 123.5 5.19 122.6 5.19C121.3 5.19 120.2 5.49 119.2 6.09C118.2 6.69 117.5 7.49 117 8.49C116.5 9.49 116.2 10.7 116.2 12.1C116.2 13.49 116.5 14.7 117 15.7C117.5 16.7 118.3 17.49 119.3 18.1C120.3 18.7 121.5 18.9 122.8 18.9C123.9 18.9 124.9 18.7 125.7 18.4C126.5 18.1 127.2 17.6 127.8 16.99C128.3 16.4 128.7 15.7 128.89 14.9L125.5 14.7C125.4 14.99 125.2 15.29 124.9 15.49C124.7 15.7 124.4 15.9 124 15.99C123.7 16.1 123.3 16.2 122.9 16.2C122.3 16.2 121.7 16.1 121.3 15.79C120.9 15.49 120.5 15.2 120.3 14.7C120.1 14.2 119.9 13.7 119.9 12.99L128.89 12.99ZM121.2 8.39C121.6 8.09 122.1 7.99 122.7 7.99C123.2 7.99 123.7 8.09 124.1 8.39C124.5 8.59 124.8 8.99 125.1 9.39C125.4 9.79 125.4 10.29 125.4 10.79L119.8 10.79C119.8 10.29 119.9 9.89 120.2 9.49C120.4 8.99 120.8 8.69 121.2 8.39Z" fill="#091757" fill-opacity="1.000000" fill-rule="evenodd"/>
</svg>