<svg width="129" height="24" viewBox="0 0 129 24" fill="none" xmlns="http://www.w3.org/2000/svg">
  <path d="M9.3 7.70005H9.2C9 7.30005 8.8 7.00005 8.5 6.60005C8.2 6.20005 7.8 5.90005 7.3 5.60005C6.8 5.40005 6.1 5.30005 5.4 5.30005C4.4 5.30005 3.5 5.60005 2.7 6.10005C1.9 6.60005 1.2 7.40005 0.7 8.40005C0.2 9.30005 0 10.6 0 12.1C0 13.6 0.2 14.8 0.7 15.7C1.2 16.7 1.8 17.4 2.6 17.8C3.4 18.3 4.3 18.5 5.3 18.5C6 18.5 6.6 18.4 7.1 18.2C7.6 18 8 17.7 8.3 17.4C8.6 17.1 8.9 16.7 9 16.4H9.2V18.8C9.2 19.7 8.9 20.4 8.4 20.8C7.9 21.2 7.2 21.4 6.4 21.4C5.9 21.4 5.4 21.3 5 21.2C4.6 21.1 4.3 20.9 4.1 20.6C3.9 20.4 3.7 20.1 3.6 19.9L0.2 20.4C0.4 21.1 0.7 21.7 1.2 22.3C1.7 22.9 2.4 23.3 3.2 23.6C4.3 23.8 5.3 24 6.5 24C7.8 24 8.9 23.8 9.9 23.4C10.9 23 11.6 22.4001 12.2 21.7001C12.8 20.9001 13 20 13 18.9V5.40005H9.3V7.70005ZM9 14.1C8.8 14.7 8.5 15.1 8 15.4C7.6 15.7 7.1 15.8 6.5 15.8C5.9 15.8 5.4 15.6 5 15.3C4.6 15 4.3 14.6 4.1 14C3.9 13.4 3.8 12.8 3.8 12C3.8 11.2 3.9 10.6 4.1 10C4.3 9.50005 4.6 9.00005 5 8.70005C5.4 8.40005 6 8.20005 6.6 8.20005C7.2 8.20005 7.7 8.40005 8.1 8.70005C8.5 9.00005 8.8 9.40005 9 10C9.2 10.6 9.3 11.3 9.3 12C9.4 12.8 9.2 13.5 9 14.1Z" fill="#091757" />
  <path d="M25.3998 6.09995C24.3998 5.49995 23.2998 5.19995 21.8998 5.19995C20.5998 5.19995 19.3998 5.49995 18.3998 6.09995C17.3998 6.69995 16.6998 7.49995 16.0998 8.49995C15.5998 9.49995 15.2998 10.7 15.2998 12.1C15.2998 13.5 15.5998 14.7 16.0998 15.7C16.5998 16.7 17.3998 17.5 18.3998 18.1C19.3998 18.7 20.4998 19 21.8998 19C23.1998 19 24.3998 18.7 25.3998 18.1C26.3998 17.5 27.0998 16.7 27.6998 15.7C28.1998 14.7 28.4998 13.5 28.4998 12.1C28.4998 10.7 28.1998 9.49995 27.6998 8.49995C27.0998 7.49995 26.3998 6.69995 25.3998 6.09995ZM24.3998 14.2C24.1998 14.8 23.8998 15.3 23.4998 15.6C23.0998 15.9 22.5998 16.1 21.9998 16.1C21.3998 16.1 20.8998 15.9 20.3998 15.6C19.9998 15.3 19.6998 14.8 19.4998 14.2C19.2998 13.6 19.1998 12.9 19.1998 12.1C19.1998 11.3 19.2998 10.6 19.4998 9.99995C19.6998 9.39995 19.9998 8.99995 20.3998 8.59995C20.7998 8.19995 21.2998 8.09995 21.9998 8.09995C22.5998 8.09995 23.0998 8.29995 23.4998 8.59995C23.8998 8.99995 24.1998 9.39995 24.3998 9.99995C24.5998 10.6 24.6998 11.3 24.6998 12.1C24.6998 12.9 24.5998 13.6 24.3998 14.2Z" fill="#091757" />
  <path d="M49.5 14.2999H49.4L47.3 5.3999H43.6L41.4 14.3999H41.3L39.3 5.3999H35.5L39.2 18.6999H43L45.3 10.3999H45.5L47.8 18.6999H51.7L55.3 5.3999H51.6L49.5 14.2999Z" fill="#091757" />
  <path d="M59.1001 0C58.6001 0 58.1001 0.2 57.7001 0.5C57.3001 0.9 57.1001 1.3 57.1001 1.8C57.1001 2.3 57.3001 2.8 57.7001 3.1C58.1001 3.5 58.6001 3.6 59.1001 3.6C59.6001 3.6 60.1001 3.4 60.5001 3.1C60.9001 2.7 61.1001 2.3 61.1001 1.8C61.1001 1.3 60.9001 0.9 60.5001 0.5C60.1001 0.2 59.7001 0 59.1001 0Z" fill="#091757" />
  <path d="M60.9998 5.3999H57.2998V18.6999H60.9998V5.3999Z" fill="#091757" />
  <path d="M70.2 15.9C70 15.9 69.9 15.9 69.7 15.9C69.5 15.9 69.2 15.9 69 15.8C68.8 15.7 68.7 15.6 68.6 15.4C68.5 15.2 68.4 14.9 68.4 14.6V8.20005H71V5.40005H68.5V2.30005H64.8V5.50005H63V8.30005H64.8V15.2C64.8 16.1 65 16.8 65.3 17.4C65.7 18 66.2 18.4001 66.9 18.7001C67.6 19 68.3 19.1 69.2 19.1C69.7 19.1 70.1 19 70.4 19C70.7 18.9 71 18.9 71.2 18.8L70.6 16.1C70.5 15.8 70.4 15.9 70.2 15.9Z" fill="#091757" />
  <path d="M83.8001 5.9C83.1001 5.5 82.3001 5.3 81.4001 5.3C80.4001 5.3 79.6001 5.5 78.9001 6C78.2001 6.4 77.7001 7.1 77.4001 7.8H77.2001V1H73.6001V18.7H77.3001V11C77.3001 10.4 77.4001 9.9 77.6001 9.5C77.8001 9.1 78.1001 8.8 78.5001 8.6C78.9001 8.4 79.3001 8.3 79.8001 8.3C80.6001 8.3 81.1001 8.5 81.6001 9C82.0001 9.5 82.2001 10.1 82.2001 10.9V18.7H85.9001V10.2C85.9001 9.2 85.7001 8.3 85.3001 7.5C85.0001 6.8 84.4001 6.3 83.8001 5.9Z" fill="#091757" />
  <path d="M109.6 5.30005C108.6 5.30005 107.8 5.50005 107.1 6.00005C106.4 6.50005 105.9 7.10005 105.6 7.80005H105.5C105.3 7.00005 104.9 6.40005 104.2 6.00005C103.6 5.50005 102.8 5.30005 101.9 5.30005C101 5.30005 100.2 5.50005 99.6 6.00005C99 6.40005 98.5 7.10005 98.2 7.80005H98V5.40005H94.5V18.7H98.2V10.7C98.2 10.2 98.3 9.80005 98.5 9.40005C98.7 9.00005 98.9 8.70005 99.3 8.50005C99.6 8.30005 100 8.20005 100.4 8.20005C101 8.20005 101.5 8.40005 101.9 8.80005C102.3 9.20005 102.5 9.70005 102.5 10.4V18.7H106.1V10.6C106.1 9.90005 106.3 9.30005 106.7 8.90005C107.1 8.50005 107.6 8.30005 108.3 8.30005C108.9 8.30005 109.4 8.50005 109.8 8.90005C110.2 9.30005 110.4 9.80005 110.4 10.6V18.8H114.1V9.80005C114.1 8.40005 113.7 7.20005 112.9 6.50005C111.9 5.70005 110.9 5.30005 109.6 5.30005Z" fill="#091757" />
  <path d="M128.9 13V12C128.9 10.9 128.7 9.89995 128.4 8.99995C128.1 8.19995 127.6 7.49995 127.1 6.89995C126.5 6.29995 125.9 5.89995 125.1 5.59995C124.3 5.29995 123.5 5.19995 122.6 5.19995C121.3 5.19995 120.2 5.49995 119.2 6.09995C118.2 6.69995 117.5 7.49995 117 8.49995C116.5 9.49995 116.2 10.7 116.2 12.1C116.2 13.5 116.5 14.7 117 15.7C117.5 16.7 118.3 17.5 119.3 18.1C120.3 18.7 121.5 18.9 122.8 18.9C123.9 18.9 124.9 18.7 125.7 18.4C126.5 18.1 127.2 17.6 127.8 17C128.3 16.4 128.7 15.7 128.9 14.9L125.5 14.7C125.4 15 125.2 15.3 124.9 15.5C124.7 15.7 124.4 15.9 124 16C123.7 16.1 123.3 16.2 122.9 16.2C122.3 16.2 121.7 16.1 121.3 15.8C120.9 15.5 120.5 15.2 120.3 14.7C120.1 14.2 119.9 13.7 119.9 13H128.9ZM121.2 8.39995C121.6 8.09995 122.1 7.99995 122.7 7.99995C123.2 7.99995 123.7 8.09995 124.1 8.39995C124.5 8.59995 124.8 8.99995 125.1 9.39995C125.4 9.79995 125.4 10.3 125.4 10.8H119.8C119.8 10.3 119.9 9.89995 120.2 9.49995C120.4 8.99995 120.8 8.69995 121.2 8.39995Z" fill="#091757" />
</svg>