<svg width="358.000000" height="156.000000" viewBox="0 0 358 156" fill="none" xmlns="http://www.w3.org/2000/svg">
	<path id="Vector" d="M140 68.2C140.7 68.2 141.3 68 141.8 67.5C142.3 67 142.5 66.4 142.5 65.7C142.5 65.3 142.39 65 142.3 64.7C142.2 64.4 142 64.1 141.8 63.9C141.6 63.7 141.3 63.5 141 63.4C140.7 63.3 140.39 63.2 140 63.2C139.6 63.2 139.3 63.3 139 63.4C138.7 63.5 138.39 63.7 138.2 63.9C138 64.1 137.8 64.4 137.7 64.7C137.6 65 137.5 65.3 137.5 65.7C137.5 66.4 137.7 67 138.2 67.5C138.6 68 139.2 68.2 140 68.2ZM139.3 65C139.5 64.8 139.7 64.7 140 64.7C140.3 64.7 140.5 64.8 140.7 65C140.89 65.2 141 65.4 141 65.7C141 66 140.89 66.2 140.7 66.4C140.5 66.6 140.3 66.7 140 66.7C139.7 66.7 139.5 66.6 139.3 66.4C139.1 66.2 139 66 139 65.7C139 65.4 139.1 65.2 139.3 65Z" fill="#091757" fill-opacity="1.000000" fill-rule="nonzero"/>
	<path id="Vector" d="M167.4 68.2C168.1 68.2 168.7 68 169.2 67.5C169.7 67 169.9 66.4 169.9 65.7C169.9 65.3 169.8 65 169.7 64.7C169.6 64.4 169.4 64.1 169.2 63.9C169 63.7 168.7 63.5 168.4 63.4C168.1 63.3 167.8 63.2 167.4 63.2C167 63.2 166.7 63.3 166.4 63.4C166.1 63.5 165.8 63.7 165.6 63.9C165.4 64.1 165.2 64.4 165.1 64.7C165 65 164.9 65.3 164.9 65.7C164.9 66.4 165.1 67 165.6 67.5C166.1 68 166.7 68.2 167.4 68.2ZM166.8 65C167 64.8 167.2 64.7 167.5 64.7C167.8 64.7 168 64.8 168.2 65C168.4 65.2 168.5 65.4 168.5 65.7C168.5 66 168.4 66.2 168.2 66.4C168 66.6 167.8 66.7 167.5 66.7C167.2 66.7 167 66.6 166.8 66.4C166.6 66.2 166.5 66 166.5 65.7C166.5 65.4 166.6 65.2 166.8 65Z" fill="#091757" fill-opacity="1.000000" fill-rule="nonzero"/>
	<path id="Vector" d="M204.8 78.7C204.6 78.5 204.3 78.3 204 78.3C203.8 78.3 203.6 78.4 203.4 78.5C203.2 78.6 203.1 78.8 203 79C202.8 79.5 202.5 80.1 202.1 80.9C201.7 81.7 201.2 82.5 200.6 83.2C200 84 199.4 84.6 198.7 85.2C198 85.8 197.3 86 196.6 86C196.2 86 195.9 85.9 195.6 85.7C195.4 85.5 195.2 85.3 195 85C194.9 84.7 194.8 84.3 194.7 83.9C194.7 83.5 194.6 83.1 194.6 82.6C194.6 82.2 194.6 81.9 194.6 81.5C194.6 81.1 194.7 80.7 194.7 80.3C194.7 79.9 194.8 79.5 194.8 79.2C194.8 78.9 194.8 78.6 194.8 78.3C194.8 77.3 194.6 76.4 194.1 75.7C193.6 75 192.9 74.6 191.9 74.6C191.4 74.6 190.9 74.7 190.3 75C189.7 75.3 189.2 75.8 188.7 76.4C188.2 77.1 187.6 77.8 187.1 78.5C186.6 79.3 186.1 80 185.7 80.8C185.3 81.6 184.8 82.3 184.4 83C184 83.7 183.7 84.4 183.4 85C183.5 84.5 183.5 83.8 183.6 83C183.7 82.2 183.7 81.4 183.8 80.6C183.9 79.8 183.9 79 184 78.3C184 77.6 184.1 77.1 184.1 76.7C184.1 76.3 184.1 75.8 184 75.4C183.9 75 183.8 74.6 183.6 74.2C183.4 73.8 183.2 73.6 182.9 73.3C182.6 73.1 182.2 73 181.8 73C181.1 73 180.3 73.5 179.6 74.4C178.9 75.3 178.1 76.8 177.2 78.8L177.2 78.9C176.6 80 176.1 81 175.5 81.9C174.9 82.8 174.3 83.7 173.7 84.3C173.1 85 172.5 85.5 172 85.9C171.4 86.3 170.9 86.5 170.4 86.5C170.1 86.5 169.7 86.4 169.4 86.3C169.1 86.2 168.7 86 168.4 85.6C168.1 85.3 167.8 84.8 167.6 84.2C167.4 83.6 167.3 82.8 167.3 81.8C167.3 81.1 167.3 80.3 167.4 79.4C167.4 78.5 167.5 77.7 167.6 76.9C167.7 76.1 167.7 75.5 167.8 74.9C167.8 74.3 167.9 74 167.9 73.9C167.9 73.6 167.8 73.4 167.6 73.2C167.4 73 167.2 72.9 166.9 72.9C166.6 72.9 166.3 73 166.1 73.2C165.9 73.4 165.8 73.6 165.7 73.9C165.5 75.5 165.4 77.1 165.3 78.7C165 79.3 164.7 79.9 164.4 80.3C164.1 80.8 163.7 81.2 163.3 81.5C162.89 81.8 162.39 82 161.89 82.2C161.39 82.4 160.8 82.4 160.2 82.4C160.1 82.4 159.89 82.4 159.8 82.4C159.7 82.4 159.6 82.4 159.5 82.4C159.6 81.7 159.7 81.1 159.7 80.5C159.7 79.4 159.6 78.4 159.39 77.5C159.2 76.7 158.89 76 158.6 75.5C158.3 75 157.89 74.6 157.39 74.3C157 74.1 156.5 73.9 156 73.9C155.2 73.9 154.5 74.2 154 74.9C153.5 75.6 153.2 76.4 153.2 77.5C153.2 78.8 153.6 80 154.3 81.1C155 82.2 155.89 83 157 83.6C156.6 84.4 156.1 85 155.39 85.5C154.7 86 153.8 86.2 152.7 86.2C152.1 86.2 151.6 86.1 151.1 85.9C150.6 85.7 150.2 85.4 149.8 85C149.39 84.6 149.2 84.2 149 83.6C148.8 83.1 148.7 82.5 148.7 81.9C148.7 81.2 148.8 80.6 149 80C149.2 79.4 149.39 79 149.7 78.5C150 78.1 150.3 77.7 150.6 77.5C150.89 77.2 151.3 77 151.6 76.9C151.89 76.7 152.1 76.6 152.3 76.4C152.5 76.2 152.6 76 152.6 75.7C152.6 75.4 152.5 75.2 152.39 75C152.2 74.8 152 74.7 151.7 74.7C151.39 74.7 151 74.8 150.39 75.1C149.8 75.4 149.3 75.8 148.7 76.4C148.2 76.9 147.8 77.5 147.39 78.2C147.2 78.3 147.1 78.5 147 78.7C146.7 79.4 146.2 80.2 145.7 81C145.2 81.8 144.5 82.6 143.8 83.5C143.1 84.3 142.39 85.2 141.7 86C141 86.8 140.3 87.6 139.6 88.4C139.6 86 139.6 83.9 139.7 82.1C139.8 80.3 139.8 78.8 139.89 77.6C140 76.4 140 75.5 140.1 74.9C140.2 74.3 140.2 73.9 140.2 73.8C140.2 73.5 140.1 73.2 139.89 73C139.7 72.8 139.5 72.7 139.2 72.7C138.89 72.7 138.7 72.8 138.5 73C138.3 73.2 138.2 73.4 138.1 73.7C138 74.7 137.89 75.8 137.8 77.1C137.7 78.4 137.6 79.8 137.6 81.2C137.6 82.7 137.5 84.2 137.5 85.8C137.5 87.4 137.5 89 137.5 90.6C136 92.3 134.7 93.9 133.6 95.6C132.5 97.2 131.6 98.8 130.89 100.4C130.2 101.9 129.7 103.4 129.39 104.8C129.1 106.2 128.89 107.4 128.89 108.6C128.89 109.6 129 110.6 129.3 111.4C129.5 112.2 129.89 112.9 130.3 113.5C130.7 114.1 131.2 114.5 131.8 114.8C132.39 115.1 133 115.2 133.7 115.2C135.7 115.2 137.2 114 138.2 111.5C139.2 109 139.7 105.2 139.7 100C139.7 98.7 139.7 97.3 139.7 95.9C139.7 94.5 139.6 93 139.6 91.5C140.3 90.7 141.2 89.7 142.1 88.8C143 87.8 143.89 86.8 144.8 85.8C145.5 85 146.1 84.2 146.7 83.4C146.8 83.8 146.89 84.1 147 84.5C147.3 85.3 147.7 85.9 148.3 86.5C148.8 87.1 149.5 87.5 150.2 87.8C150.89 88.1 151.7 88.3 152.6 88.3C153.3 88.3 154 88.2 154.7 88C155.3 87.8 155.89 87.5 156.39 87.2C156.89 86.8 157.39 86.4 157.8 85.9C158.2 85.4 158.5 84.9 158.8 84.3C159.2 84.4 159.6 84.4 160 84.4C160.89 84.4 161.7 84.3 162.39 84.1C163.1 83.9 163.8 83.6 164.3 83.2C164.7 83 165 82.7 165.3 82.4C165.3 83.2 165.4 83.9 165.6 84.6C165.8 85.4 166.1 86.1 166.6 86.7C167 87.3 167.6 87.8 168.2 88.1C168.8 88.5 169.6 88.6 170.4 88.6C171.1 88.6 171.7 88.4 172.3 88.1C172.9 87.8 173.5 87.4 174.1 86.8C174.7 86.3 175.2 85.7 175.7 85.1C176.2 84.5 176.7 83.8 177.1 83.1C177.5 82.4 177.9 81.8 178.3 81.2C178.7 80.6 178.9 80.1 179.1 79.6C179.8 78 180.3 76.8 180.8 76.2C181.3 75.6 181.5 75.2 181.7 75.1C181.8 75.2 181.9 75.5 181.9 75.9C181.9 76.3 182 76.8 182 77.2C182 77.6 182 78 181.9 78.5C181.9 79 181.8 79.6 181.8 80.2C181.7 80.8 181.7 81.4 181.6 82C181.5 82.6 181.5 83.2 181.4 83.7C181.3 84.2 181.3 84.7 181.3 85.1C181.3 85.5 181.2 85.7 181.2 85.9C181.2 86.5 181.4 87 181.7 87.3C182 87.6 182.5 87.8 183 87.8C183.4 87.8 183.8 87.7 184.2 87.4C184.6 87.1 184.9 86.6 185.3 85.8C185.5 85.4 185.7 84.9 186.1 84.2C186.4 83.6 186.8 82.9 187.2 82.2C187.6 81.5 188 80.8 188.4 80.1C188.8 79.4 189.3 78.8 189.7 78.2C190.1 77.6 190.5 77.2 190.9 76.8C191.3 76.5 191.6 76.3 191.9 76.3C192 76.3 192.2 76.4 192.4 76.6C192.6 76.8 192.7 77.2 192.7 77.8C192.7 78.2 192.7 78.5 192.7 78.9C192.7 79.3 192.6 79.7 192.6 80.1C192.6 80.5 192.5 80.9 192.5 81.2C192.5 81.6 192.5 81.9 192.5 82.2C192.5 82.9 192.6 83.5 192.7 84.2C192.8 84.8 193 85.4 193.3 86C193.6 86.5 194 87 194.5 87.3C195 87.6 195.7 87.8 196.6 87.8C197.3 87.8 198.1 87.6 198.8 87.2C199.5 86.8 200.1 86.4 200.7 85.8C201.3 85.2 201.8 84.6 202.3 83.9C202.8 83.2 203.2 82.6 203.6 82C204 81.4 204.3 80.9 204.5 80.4C204.7 79.9 204.9 79.6 204.9 79.5C205 79.4 205 79.2 205 79.1C205.1 79.2 205 79 204.8 78.7ZM137.6 105.4C137.5 106.8 137.3 108.1 137.1 109C136.89 110 136.6 110.8 136.3 111.3C136 111.9 135.7 112.3 135.39 112.6C135.1 112.9 134.8 113.1 134.5 113.2C134.2 113.3 134 113.3 133.8 113.3C133.3 113.3 132.8 113.2 132.5 112.9C132.2 112.6 131.89 112.3 131.7 111.8C131.5 111.4 131.39 110.9 131.3 110.3C131.2 109.8 131.2 109.2 131.2 108.7C131.2 107.8 131.3 106.8 131.6 105.6C131.8 104.5 132.2 103.3 132.7 102C133.2 100.7 133.89 99.4 134.7 98.1C135.5 96.7 136.5 95.3 137.7 93.9C137.7 95 137.7 96.1 137.8 97C137.8 98 137.8 98.9 137.8 99.9C137.8 102.2 137.8 103.9 137.6 105.4ZM157.7 81.8C157.3 81.6 157 81.3 156.7 80.9C156.39 80.6 156.2 80.2 156 79.8C155.8 79.4 155.7 79 155.6 78.6C155.5 78.2 155.5 77.8 155.5 77.5C155.5 76.9 155.6 76.6 155.8 76.4C156 76.2 156.1 76.1 156.2 76.1C156.5 76.1 156.7 76.2 156.89 76.5C157.1 76.8 157.3 77.1 157.39 77.6C157.5 78 157.6 78.5 157.7 79C157.8 79.5 157.8 80 157.8 80.5C157.8 81 157.8 81.4 157.7 81.8Z" fill="#091757" fill-opacity="1.000000" fill-rule="nonzero"/>
	<path id="Vector" d="M267.7 53.89C274.29 53.89 279.7 59.29 279.7 65.89L279.7 90.39C279.7 97 274.29 102.4 267.7 102.4L66.6 102.4C60 102.4 54.6 97 54.6 90.39L54.6 65.89C54.6 59.29 60 53.89 66.6 53.89L267.7 53.89ZM267.7 51.89L66.6 51.89C58.9 51.89 52.6 58.19 52.6 65.89L52.6 90.39C52.6 98.1 58.9 104.4 66.6 104.4L267.7 104.4C275.4 104.4 281.7 98.1 281.7 90.39L281.7 65.89C281.7 58.1 275.4 51.89 267.7 51.89Z" fill="#091757" fill-opacity="1.000000" fill-rule="nonzero"/>
	<path id="Vector" d="M235.5 109.3L213.8 93.2C213.3 92.8 212.6 93.2 212.6 93.8L214.1 120.8C214.1 121.5 215 121.7 215.4 121.2L220.5 114.4C220.8 114 221.5 114 221.7 114.5L227.2 126.4C227.4 126.8 227.8 126.9 228.2 126.7L232.7 124.3C233.1 124.1 233.2 123.6 233 123.3L226 112.2C225.7 111.7 226 111.1 226.6 111.1L235.1 110.6C235.8 110.6 236.1 109.7 235.5 109.3Z" fill="#E3EF41" fill-opacity="1.000000" fill-rule="nonzero"/>
	<path id="Vector" d="M228.8 51.9C221.56 51.9 215.7 46.03 215.7 38.8C215.7 31.56 221.56 25.7 228.8 25.7C236.03 25.7 241.9 31.56 241.9 38.8C241.9 46.03 236.03 51.9 228.8 51.9Z" stroke="#091757" strokeOpacity="1.000000" strokeWidth="2.000000" strokeLinejoin="round"/>
	<path id="Vector" d="M178.1 51.9C170.86 51.9 165 46.03 165 38.8C165 31.56 170.86 25.7 178.1 25.7C185.33 25.7 191.2 31.56 191.2 38.8C191.2 46.03 185.33 51.9 178.1 51.9Z" stroke="#091757" strokeOpacity="1.000000" strokeWidth="2.000000" strokeLinejoin="round"/>
	<path id="Vector" d="M228.8 38.79L215.2 8.79" stroke="#091757" strokeOpacity="1.000000" strokeWidth="2.000000" strokeLinejoin="round" strokeLinecap="round"/>
	<path id="Vector" d="M203.4 38.79L189.7 8.79" stroke="#091757" strokeOpacity="1.000000" strokeWidth="2.000000" strokeLinejoin="round" strokeLinecap="round"/>
	<path id="Vector" d="M194.1 18.29L219.5 18.29L203.4 38.79" stroke="#091757" strokeOpacity="1.000000" strokeWidth="2.000000" strokeLinejoin="round" strokeLinecap="round"/>
	<path id="Vector" d="M194.1 18.29L178.1 38.79" stroke="#091757" strokeOpacity="1.000000" strokeWidth="2.000000" strokeLinejoin="round" strokeLinecap="round"/>
	<path id="Vector" d="M203.4 38.79L178.4 38.79" stroke="#091757" strokeOpacity="1.000000" strokeWidth="2.000000" strokeLinejoin="round" strokeLinecap="round"/>
	<path id="Vector" d="M195.1 8.2L182.2 8.2" stroke="#091757" strokeOpacity="1.000000" strokeWidth="2.000000" strokeLinejoin="round" strokeLinecap="round"/>
	<path id="Vector" d="M205.5 2.89C207.4 6.1 210.9 8.19 214.8 8.19C218.8 8.19 222.2 6.1 224.1 2.89" stroke="#091757" strokeOpacity="1.000000" strokeWidth="2.000000" strokeLinejoin="round" strokeLinecap="round"/>
	<path id="Vector" d="M318.1 43.39L318.1 9.79L297.9 19L297.9 34.19L318.1 43.39Z" stroke="#091757" strokeOpacity="1.000000" strokeWidth="2.000000" strokeLinejoin="round"/>
	<path id="Vector" d="M289.4 47.3L289.4 34.1L294.4 34.1L294.4 47.3C294.4 48.7 293.29 49.8 291.9 49.8C290.5 49.8 289.4 48.7 289.4 47.3Z" stroke="#091757" strokeOpacity="1.000000" strokeWidth="2.000000" strokeLinejoin="round"/>
	<path id="Vector" d="M297.9 19L287.7 19C284.79 19 282.4 21.39 282.4 24.29L282.4 28.7C282.4 31.6 284.79 34 287.7 34L297.9 34" stroke="#091757" strokeOpacity="1.000000" strokeWidth="2.000000" strokeLinejoin="round" strokeLinecap="round"/>
	<path id="Vector" d="M321.79 26.6L326.7 26.6" stroke="#091757" strokeOpacity="1.000000" strokeWidth="2.000000" strokeLinejoin="round" strokeLinecap="round"/>
	<path id="Vector" d="M322.1 20.7L326.4 18.5" stroke="#091757" strokeOpacity="1.000000" strokeWidth="2.000000" strokeLinejoin="round" strokeLinecap="round"/>
	<path id="Vector" d="M326.4 34.79L322.1 32.5" stroke="#091757" strokeOpacity="1.000000" strokeWidth="2.000000" strokeLinejoin="round" strokeLinecap="round"/>
	<path id="Vector" d="M73 154.39C69.68 154.39 67 152.42 67 150C67 147.57 69.68 145.6 73 145.6C76.31 145.6 79 147.57 79 150C79 152.42 76.31 154.39 73 154.39Z" stroke="#091757" strokeOpacity="1.000000" strokeWidth="2.000000"/>
	<path id="Vector" d="M94.1 150.1C90.78 150.1 88.1 148.13 88.1 145.7C88.1 143.27 90.78 141.3 94.1 141.3C97.41 141.3 100.1 143.27 100.1 145.7C100.1 148.13 97.41 150.1 94.1 150.1Z" stroke="#091757" strokeOpacity="1.000000" strokeWidth="2.000000"/>
	<path id="Vector" d="M100.1 145.7L100.1 118.7L79 123.1L79 150.1" stroke="#091757" strokeOpacity="1.000000" strokeWidth="2.000000" strokeLinecap="round"/>
	<path id="Vector" d="M100.1 126.3L79 130.7" stroke="#091757" strokeOpacity="1.000000" strokeWidth="2.000000" strokeLinecap="round"/>
	<path id="Vector" d="M37.8 15.6L37.8 0L75.1 0L75.1 25.39L67.8 25.39L68 32.2L59.5 25.39L48.3 25.39L37.8 15.6Z" fill="#091757" fill-opacity="1.000000" fill-rule="nonzero"/>
	<path id="Vector" d="M10.4 41.5L17.7 41.5L17.6 48.3L26 41.5L47.7 41.5L47.7 16.1L10.4 16.1L10.4 41.5Z" fill="#F7F7FA" fill-opacity="1.000000" fill-rule="nonzero"/>
	<path id="Vector" d="M17.7 41.5L17.6 48.3L26 41.5L47.7 41.5L47.7 16.1L10.4 16.1L10.4 41.5L17.7 41.5Z" stroke="#091757" strokeOpacity="1.000000" strokeWidth="2.000000"/>
	<path id="Vector" d="M315.1 110.1C311.79 108 307.79 106.7 303.6 106.7C292.79 106.7 283.9 114.7 282.4 125" stroke="#091757" strokeOpacity="1.000000" strokeWidth="2.000000" strokeLinejoin="round" strokeLinecap="round"/>
	<path id="Vector" d="M311.7 115.1C309.4 113.6 306.6 112.8 303.6 112.8C296.2 112.8 290 118 288.6 125" stroke="#091757" strokeOpacity="1.000000" strokeWidth="2.000000" strokeLinejoin="round" strokeLinecap="round"/>
	<path id="Vector" d="M310.1 121.6C308.4 120 306.2 119 303.6 119C299.5 119 296 121.7 294.79 125.4" stroke="#091757" strokeOpacity="1.000000" strokeWidth="2.000000" strokeLinejoin="round" strokeLinecap="round"/>
	<path id="Vector" d="M332.6 102.7C328.8 97.8 322.9 94.6 316.2 94.6C307.6 94.6 300.2 99.89 297.1 107.3" stroke="#091757" strokeOpacity="1.000000" strokeWidth="2.000000" strokeLinejoin="round" strokeLinecap="round"/>
	<path id="Vector" d="M325.29 103.6C322.79 101.6 319.6 100.5 316.2 100.5C311.29 100.5 306.9 102.9 304.2 106.6" stroke="#091757" strokeOpacity="1.000000" strokeWidth="2.000000" strokeLinejoin="round" strokeLinecap="round"/>
	<path id="Vector" d="M352.9 124.9C352.9 124.7 352.9 124.6 352.9 124.4C352.9 112.6 343.3 103 331.5 103C319.7 103 310.1 112.6 310.1 124.4C310.1 124.6 310.1 124.8 310.1 125" stroke="#091757" strokeOpacity="1.000000" strokeWidth="2.000000" strokeLinejoin="round" strokeLinecap="round"/>
	<path id="Vector" d="M346.8 125C346.8 124.8 346.8 124.6 346.8 124.5C346.8 116 339.9 109.2 331.5 109.2C323.1 109.2 316.2 116.1 316.2 124.5C316.2 124.7 316.2 124.9 316.2 125.2" stroke="#091757" strokeOpacity="1.000000" strokeWidth="2.000000" strokeLinejoin="round" strokeLinecap="round"/>
	<path id="Vector" d="M340.7 125C340.7 124.8 340.7 124.7 340.7 124.5C340.7 119.4 336.6 115.3 331.5 115.3C326.4 115.3 322.29 119.4 322.29 124.5C322.29 124.7 322.29 124.8 322.29 125" stroke="#091757" strokeOpacity="1.000000" strokeWidth="2.000000" strokeLinejoin="round" strokeLinecap="round"/>
	<path id="Vector" d="M324 89L324 82.89" stroke="#091757" strokeOpacity="1.000000" strokeWidth="2.000000" strokeLinejoin="round" strokeLinecap="round"/>
	<path id="Vector" d="M318 72.5L318 83.79" stroke="#091757" strokeOpacity="1.000000" strokeWidth="2.000000" strokeLinejoin="round" strokeLinecap="round"/>
	<path id="Vector" d="M312.6 76.79L312.6 85.29" stroke="#091757" strokeOpacity="1.000000" strokeWidth="2.000000" strokeLinejoin="round" strokeLinecap="round"/>
	<path id="Vector" d="M341.2 141.8L294.6 141.8C285.5 141.8 278.2 134.39 278.2 125.4L357.7 125.4C357.6 134.39 350.3 141.8 341.2 141.8Z" fill="#091757" fill-opacity="1.000000" fill-rule="nonzero"/>
	<path id="Vector" d="M12.9 102.7L1.7 102.7L7.3 112.4L12.9 102.7Z" stroke="#091757" strokeOpacity="1.000000" strokeWidth="2.000000"/>
	<path id="Vector" d="M127.3 20.6L116.1 20.6L121.7 30.3L127.3 20.6Z" stroke="#091757" strokeOpacity="1.000000" strokeWidth="2.000000"/>
</svg>
