<svg width="543.000000" height="520.000000" viewBox="0 0 543 520" fill="none" xmlns="http://www.w3.org/2000/svg" xmlns:xlink="http://www.w3.org/1999/xlink">
	<defs/>
	<path id="Vector (Stroke)" d="M15.49 508.3C13.61 508.3 12.09 509.82 12.09 511.7C12.09 513.57 13.61 515.09 15.49 515.09C17.37 515.09 18.89 513.57 18.89 511.7C18.89 509.82 17.37 508.3 15.49 508.3ZM10.09 511.7C10.09 508.71 12.51 506.3 15.49 506.3C18.47 506.3 20.89 508.71 20.89 511.7C20.89 514.68 18.47 517.09 15.49 517.09C12.51 517.09 10.09 514.68 10.09 511.7Z" fill="#091757" fillOpacity="1.000000" fillRule="evenodd"/>
	<path id="Vector" d="M242.59 283.4C315.94 283.4 375.39 223.94 375.39 150.6C375.39 77.25 315.94 17.79 242.59 17.79C169.25 17.79 109.79 77.25 109.79 150.6C109.79 223.94 169.25 283.4 242.59 283.4Z" fill="#E3EF41" fillOpacity="1.000000" fillRule="nonzero"/>
	<path id="Vector" d="M15.49 470.9C8.29 470.9 2.39 476.8 2.39 484C2.39 495.3 14.99 504.2 15.49 504.7C15.49 504.7 28.59 494.5 28.59 484C28.59 476.7 22.69 470.9 15.49 470.9ZM15.49 489.3C12.39 489.3 9.79 486.7 9.79 483.6C9.79 480.5 12.39 477.9 15.49 477.9C18.59 477.9 21.19 480.5 21.19 483.6C21.19 486.8 18.59 489.3 15.49 489.3Z" fill="#091757" fillOpacity="1.000000" fillRule="nonzero"/>
	<path id="Vector (Stroke)" d="M1.39 484C1.39 476.24 7.74 469.9 15.49 469.9C23.24 469.9 29.59 476.14 29.59 484C29.59 489.62 26.11 495.03 22.8 498.93C21.13 500.9 19.46 502.54 18.21 503.68C17.59 504.25 17.06 504.7 16.7 505C16.51 505.16 16.37 505.28 16.27 505.36C16.22 505.4 16.18 505.43 16.15 505.45L16.12 505.47L16.11 505.48L16.11 505.48C16.11 505.48 16.11 505.48 15.49 504.7L16.11 505.48L15.41 506.03L14.78 505.4C14.79 505.41 14.79 505.41 14.77 505.39C14.75 505.37 14.71 505.34 14.64 505.29C14.6 505.25 14.54 505.21 14.48 505.16C14.39 505.09 14.28 505 14.16 504.91C13.76 504.59 13.22 504.15 12.58 503.6C11.3 502.49 9.65 500.95 8 499.05C4.73 495.29 1.39 490.01 1.39 484ZM15.49 503.41C15.83 503.12 16.3 502.71 16.86 502.2C18.07 501.1 19.68 499.53 21.28 497.64C24.52 493.81 27.59 488.87 27.59 484C27.59 477.25 22.14 471.9 15.49 471.9C8.84 471.9 3.39 477.35 3.39 484C3.39 489.28 6.35 494.1 9.51 497.74C11.08 499.54 12.66 501.02 13.89 502.08C14.5 502.61 15.02 503.04 15.41 503.34C15.44 503.37 15.46 503.39 15.49 503.41ZM15.49 478.9C12.94 478.9 10.79 481.05 10.79 483.6C10.79 486.14 12.94 488.3 15.49 488.3C18.05 488.3 20.19 486.23 20.19 483.6C20.19 481.05 18.04 478.9 15.49 478.9ZM8.79 483.6C8.79 479.94 11.84 476.9 15.49 476.9C19.14 476.9 22.19 479.94 22.19 483.6C22.19 487.36 19.13 490.3 15.49 490.3C11.84 490.3 8.79 487.25 8.79 483.6Z" fill="#091757" fillOpacity="1.000000" fillRule="evenodd"/>
	<path id="Vector (Stroke)" d="M91.44 163.54C93.71 161.59 97.14 159.89 101.99 159.89L155.39 159.89C155.94 159.89 156.39 160.34 156.39 160.89C156.39 161.45 155.94 161.89 155.39 161.89L101.99 161.89C97.65 161.89 94.67 163.4 92.74 165.05C90.36 167.11 90.7 170.97 93.48 172.52L93.48 172.52C94.93 173.34 96.96 174 99.59 174L115.59 174C116.14 174 116.59 174.44 116.59 175C116.59 175.55 116.14 176 115.59 176L99.59 176C96.62 176 94.25 175.25 92.5 174.27C88.48 172.02 88.03 166.48 91.44 163.54L91.44 163.54L91.44 163.54Z" fill="#091757" fillOpacity="1.000000" fillRule="evenodd"/>
	<path id="Vector (Stroke)" d="M162.61 150.97C163.41 149.92 164.71 149.3 166.09 149.3C169.32 149.3 171.46 152.52 170.33 155.55L170.33 155.55L167.72 162.16L167.72 162.17C166.24 165.86 163.6 169.05 160.07 170.97L160.07 170.98C153.77 174.38 145.88 176 134.69 176L129.39 176C128.84 176 128.39 175.55 128.39 175C128.39 174.44 128.84 174 129.39 174L134.69 174C145.7 174 153.22 172.41 159.11 169.22C162.19 167.54 164.54 164.73 165.86 161.43C165.86 161.42 165.86 161.42 165.86 161.42L168.46 154.84C169.12 153.07 167.86 151.3 166.09 151.3C165.29 151.3 164.59 151.66 164.19 152.2L164.17 152.22L156.15 161.64C155.8 162.06 155.16 162.12 154.74 161.76C154.32 161.4 154.27 160.77 154.63 160.35L162.61 150.97Z" fill="#091757" fillOpacity="1.000000" fillRule="evenodd"/>
	<path id="Vector (Stroke)" d="M127.19 170.14C127.72 169.98 128.28 170.27 128.45 170.8L132.55 183.9C133.45 186.85 131.16 189.9 128.09 189.9C126.64 189.9 125.27 189.12 124.4 188.01L124.39 188L112.39 171.69C112.06 171.24 112.15 170.62 112.6 170.29C113.04 169.96 113.67 170.06 114 170.5L125.99 186.79C126.53 187.48 127.35 187.9 128.09 187.9C129.83 187.9 131.14 186.14 130.64 184.49L126.54 171.39C126.37 170.87 126.67 170.31 127.19 170.14Z" fill="#091757" fillOpacity="1.000000" fillRule="evenodd"/>
	<path id="Vector (Stroke)" d="M125.99 152.4L119.5 161.19C119.17 161.63 118.54 161.73 118.1 161.4C117.65 161.07 117.56 160.45 117.89 160L124.4 151.19L124.4 151.18C125.27 150.07 126.64 149.3 128.09 149.3C131.16 149.3 133.45 152.34 132.55 155.29L130.85 160.89C130.69 161.41 130.13 161.71 129.6 161.55C129.07 161.39 128.77 160.83 128.94 160.31L130.64 154.71C131.14 153.06 129.83 151.3 128.09 151.3C127.35 151.3 126.53 151.71 125.99 152.4Z" fill="#091757" fillOpacity="1.000000" fillRule="evenodd"/>
	<path id="Vector (Stroke)" d="M95.09 166.4C95.09 165.84 95.54 165.4 96.09 165.4L100.59 165.4C101.14 165.4 101.59 165.84 101.59 166.4C101.59 166.95 101.14 167.4 100.59 167.4L96.09 167.4C95.54 167.4 95.09 166.95 95.09 166.4Z" fill="#091757" fillOpacity="1.000000" fillRule="evenodd"/>
	<path id="Vector (Stroke)" d="M450.84 191.28C451.02 190.75 451.59 190.47 452.11 190.65L473.81 197.95C474.33 198.12 474.62 198.69 474.44 199.21C474.26 199.74 473.7 200.02 473.17 199.84L451.47 192.54C450.95 192.37 450.67 191.8 450.84 191.28Z" fill="#091757" fillOpacity="1.000000" fillRule="evenodd"/>
	<path id="Vector" d="M479.69 187C479.59 187 479.49 187 479.39 186.9L454.29 178.4C453.79 178.2 453.49 177.7 453.69 177.1L454.99 173.2C456.19 169.7 459.99 167.8 463.49 169L477.79 173.8C481.29 175 483.19 178.8 481.99 182.3L480.69 186.2C480.59 186.5 480.39 186.7 480.19 186.8C479.99 186.9 479.89 187 479.69 187ZM455.89 176.9L479.09 184.7L480.09 181.7C480.89 179.3 479.59 176.6 477.19 175.8L462.89 171C460.49 170.2 457.79 171.5 456.99 173.9L455.89 176.9Z" fill="#091757" fillOpacity="1.000000" fillRule="nonzero"/>
	<path id="Vector (Stroke)" d="M470.61 171.45C471.13 171.62 471.42 172.19 471.24 172.71L463.74 195.01C463.56 195.54 463 195.82 462.47 195.64C461.95 195.47 461.67 194.9 461.84 194.38L469.34 172.08C469.52 171.55 470.09 171.27 470.61 171.45Z" fill="#091757" fillOpacity="1.000000" fillRule="evenodd"/>
	<path id="Vector" d="M493.99 189.9L486.39 187.3L487.39 184.4C489.49 178.3 486.19 171.7 480.09 169.6L464.09 164.2C461.19 163.2 457.99 163.39 455.19 164.8C452.39 166.2 450.29 168.6 449.29 171.5L448.29 174.4L440.69 171.8C436.49 170.4 431.89 172.6 430.49 176.9C429.09 181.1 431.29 185.7 435.59 187.1L439.29 188.3C439.49 188.4 439.59 188.4 439.79 188.3C439.79 188.1 439.89 187.9 439.99 187.8C441.09 184.6 444.49 182.9 447.69 184C450.79 185 452.39 188.3 451.59 191.4L473.79 198.9C474.99 195.9 478.29 194.4 481.29 195.4C484.49 196.5 486.19 199.9 485.09 203.1C484.99 203.3 484.99 203.5 484.89 203.7C484.99 203.8 485.09 203.9 485.29 203.9L488.99 205.1C489.89 205.4 490.69 205.5 491.59 205.5C494.99 205.5 498.09 203.4 499.19 200C500.49 195.9 498.19 191.3 493.99 189.9ZM480.99 182.1L479.69 186L454.59 177.5L455.89 173.6C456.89 170.6 460.09 169 463.09 170L477.39 174.8C480.39 175.9 481.99 179.1 480.99 182.1Z" fill="#091757" fillOpacity="1.000000" fillRule="nonzero"/>
	<path id="Vector" d="M445.69 196.9C444.99 196.9 444.19 196.8 443.49 196.5C439.79 195.3 437.79 191.3 439.09 187.6C440.29 183.9 444.29 181.9 447.99 183.2C449.79 183.8 451.19 185.1 452.09 186.7C452.89 188.4 453.09 190.3 452.49 192.1C451.29 195.1 448.59 196.9 445.69 196.9ZM445.69 184.8C443.59 184.8 441.59 186.1 440.89 188.2C439.99 190.8 441.39 193.7 444.09 194.6C446.69 195.5 449.59 194.1 450.49 191.4C450.89 190.1 450.79 188.8 450.19 187.5C449.59 186.3 448.59 185.4 447.29 185C446.69 184.9 446.19 184.8 445.69 184.8Z" fill="#091757" fillOpacity="1.000000" fillRule="nonzero"/>
	<path id="Vector" d="M479.29 208.3C478.59 208.3 477.79 208.2 477.09 207.9C475.29 207.3 473.89 206 472.99 204.4C472.19 202.7 471.99 200.8 472.59 199C473.79 195.3 477.79 193.3 481.49 194.6C483.29 195.2 484.69 196.5 485.59 198.1C486.39 199.8 486.59 201.7 485.99 203.5C484.99 206.4 482.19 208.3 479.29 208.3ZM479.29 196.2C477.19 196.2 475.19 197.5 474.49 199.6C474.09 200.9 474.19 202.2 474.79 203.5C475.39 204.7 476.39 205.6 477.69 206C480.29 206.9 483.19 205.5 484.09 202.8C484.49 201.5 484.39 200.2 483.79 198.9C483.19 197.7 482.19 196.8 480.89 196.4C480.39 196.3 479.79 196.2 479.29 196.2Z" fill="#091757" fillOpacity="1.000000" fillRule="nonzero"/>
	<path id="Vector (Stroke)" d="M314.29 158C314.29 157.44 314.74 157 315.29 157L331.39 157C331.94 157 332.39 157.44 332.39 158C332.39 158.55 331.94 159 331.39 159L316.29 159L316.29 195.5C316.29 196.05 315.84 196.5 315.29 196.5C314.74 196.5 314.29 196.05 314.29 195.5L314.29 158Z" fill="#091757" fillOpacity="1.000000" fillRule="evenodd"/>
	<path id="Vector (Stroke)" d="M330.39 114.9C330.39 114.34 330.84 113.9 331.39 113.9L367.29 113.9C367.84 113.9 368.29 114.34 368.29 114.9L368.29 192.5C368.29 193.05 367.84 193.5 367.29 193.5C366.74 193.5 366.29 193.05 366.29 192.5L366.29 115.9L332.39 115.9L332.39 194.5C332.39 195.05 331.94 195.5 331.39 195.5C330.84 195.5 330.39 195.05 330.39 194.5L330.39 114.9Z" fill="#091757" fillOpacity="1.000000" fillRule="evenodd"/>
	<path id="Vector (Stroke)" d="M381.8 133.97C382.19 133.6 382.8 133.6 383.19 133.98L398.29 148.58C398.48 148.76 398.59 149.02 398.59 149.3L398.59 191.5C398.59 192.05 398.14 192.5 397.59 192.5C397.04 192.5 396.59 192.05 396.59 191.5L396.59 149.72L382.49 136.08L367.98 150.02C367.59 150.4 366.95 150.39 366.57 149.99C366.19 149.59 366.2 148.96 366.6 148.57L381.8 133.97Z" fill="#091757" fillOpacity="1.000000" fillRule="evenodd"/>
	<path id="Vector (Stroke)" d="M382.49 147.3C380.67 147.3 379.19 148.77 379.19 150.6C379.19 152.42 380.67 153.89 382.49 153.89C384.31 153.89 385.79 152.42 385.79 150.6C385.79 148.77 384.31 147.3 382.49 147.3ZM377.19 150.6C377.19 147.67 379.56 145.3 382.49 145.3C385.42 145.3 387.79 147.67 387.79 150.6C387.79 153.52 385.42 155.89 382.49 155.89C379.56 155.89 377.19 153.52 377.19 150.6Z" fill="#091757" fillOpacity="1.000000" fillRule="evenodd"/>
	<path id="Vector (Stroke)" d="M285.79 157.89C280.43 157.89 276.09 162.24 276.09 167.6C276.09 172.95 280.43 177.3 285.79 177.3C291.15 177.3 295.49 172.95 295.49 167.6C295.49 162.24 291.15 157.89 285.79 157.89ZM274.09 167.6C274.09 161.13 279.33 155.89 285.79 155.89C292.25 155.89 297.49 161.13 297.49 167.6C297.49 174.06 292.25 179.3 285.79 179.3C279.33 179.3 274.09 174.06 274.09 167.6Z" fill="#091757" fillOpacity="1.000000" fillRule="evenodd"/>
	<path id="Vector (Stroke)" d="M285.79 163.5C286.34 163.5 286.79 163.94 286.79 164.5L286.79 193.5C286.79 194.05 286.34 194.5 285.79 194.5C285.24 194.5 284.79 194.05 284.79 193.5L284.79 164.5C284.79 163.94 285.24 163.5 285.79 163.5Z" fill="#091757" fillOpacity="1.000000" fillRule="evenodd"/>
	<path id="Vector (Stroke)" d="M291.53 168.25C291.83 168.71 291.7 169.33 291.24 169.63L286.34 172.83C285.88 173.13 285.26 173 284.95 172.54C284.65 172.08 284.78 171.46 285.25 171.16L290.15 167.96C290.61 167.66 291.23 167.79 291.53 168.25Z" fill="#091757" fillOpacity="1.000000" fillRule="evenodd"/>
	<path id="Vector (Stroke)" d="M341.09 136.2C341.09 135.64 341.54 135.2 342.09 135.2L351.49 135.2C352.04 135.2 352.49 135.64 352.49 136.2C352.49 136.75 352.04 137.2 351.49 137.2L342.09 137.2C341.54 137.2 341.09 136.75 341.09 136.2Z" fill="#091757" fillOpacity="1.000000" fillRule="evenodd"/>
	<path id="Vector (Stroke)" d="M341.09 126.4C341.09 125.84 341.54 125.4 342.09 125.4L351.49 125.4C352.04 125.4 352.49 125.84 352.49 126.4C352.49 126.95 352.04 127.4 351.49 127.4L342.09 127.4C341.54 127.4 341.09 126.95 341.09 126.4Z" fill="#091757" fillOpacity="1.000000" fillRule="evenodd"/>
	<path id="Vector (Stroke)" d="M341.09 146.1C341.09 145.54 341.54 145.1 342.09 145.1L351.49 145.1C352.04 145.1 352.49 145.54 352.49 146.1C352.49 146.65 352.04 147.1 351.49 147.1L342.09 147.1C341.54 147.1 341.09 146.65 341.09 146.1Z" fill="#091757" fillOpacity="1.000000" fillRule="evenodd"/>
	<path id="Vector (Stroke)" d="M341.09 155.89C341.09 155.34 341.54 154.89 342.09 154.89L351.49 154.89C352.04 154.89 352.49 155.34 352.49 155.89C352.49 156.45 352.04 156.89 351.49 156.89L342.09 156.89C341.54 156.89 341.09 156.45 341.09 155.89Z" fill="#091757" fillOpacity="1.000000" fillRule="evenodd"/>
	<path id="Vector (Stroke)" d="M202.19 410.1C200.44 410.1 198.99 411.55 198.99 413.3L198.99 493.7C198.99 495.44 200.44 496.9 202.19 496.9L260.09 496.9C261.84 496.9 263.29 495.44 263.29 493.7L263.29 413.3C263.29 411.55 261.84 410.1 260.09 410.1L202.19 410.1ZM196.99 413.3C196.99 410.44 199.34 408.1 202.19 408.1L260.09 408.1C262.94 408.1 265.29 410.44 265.29 413.3L265.29 493.7C265.29 496.55 262.94 498.9 260.09 498.9L202.19 498.9C199.34 498.9 196.99 496.55 196.99 493.7L196.99 413.3Z" fill="#091757" fillOpacity="1.000000" fillRule="evenodd"/>
	<path id="Vector (Stroke)" d="M209.39 402.9C207.54 402.9 206.09 404.35 206.09 406.2L206.09 408.8C206.09 409.35 205.64 409.8 205.09 409.8C204.54 409.8 204.09 409.35 204.09 408.8L204.09 406.2C204.09 403.24 206.44 400.9 209.39 400.9L267.19 400.9C270.14 400.9 272.49 403.24 272.49 406.2L272.49 486.5C272.49 489.45 270.14 491.8 267.19 491.8L264.69 491.8C264.14 491.8 263.69 491.35 263.69 490.8C263.69 490.24 264.14 489.8 264.69 489.8L267.19 489.8C269.04 489.8 270.49 488.34 270.49 486.5L270.49 406.2C270.49 404.35 269.04 402.9 267.19 402.9L209.39 402.9Z" fill="#091757" fillOpacity="1.000000" fillRule="evenodd"/>
	<path id="Vector (Stroke)" d="M208.99 416.9L253.29 416.9L253.29 450.3L208.99 450.3L208.99 416.9ZM210.99 418.9L210.99 448.3L251.29 448.3L251.29 418.9L210.99 418.9Z" fill="#091757" fillOpacity="1.000000" fillRule="evenodd"/>
	<path id="Vector (Stroke)" d="M240.47 424.59L253.04 438.83C253.41 439.25 253.37 439.88 252.95 440.25C252.54 440.61 251.91 440.57 251.54 440.16L240.11 427.2L232.23 432.26L227.58 429.69L210.6 442.79C210.17 443.12 209.54 443.04 209.2 442.61C208.86 442.17 208.94 441.54 209.38 441.2L227.4 427.3L232.15 429.93L240.47 424.59Z" fill="#091757" fillOpacity="1.000000" fillRule="evenodd"/>
	<path id="Vector (Stroke)" d="M208.99 459.7C208.99 459.14 209.44 458.7 209.99 458.7L242.59 458.7C243.14 458.7 243.59 459.14 243.59 459.7C243.59 460.25 243.14 460.7 242.59 460.7L209.99 460.7C209.44 460.7 208.99 460.25 208.99 459.7Z" fill="#091757" fillOpacity="1.000000" fillRule="evenodd"/>
	<path id="Vector (Stroke)" d="M208.99 465.2C208.99 464.64 209.44 464.2 209.99 464.2L234.79 464.2C235.34 464.2 235.79 464.64 235.79 465.2C235.79 465.75 235.34 466.2 234.79 466.2L209.99 466.2C209.44 466.2 208.99 465.75 208.99 465.2Z" fill="#091757" fillOpacity="1.000000" fillRule="evenodd"/>
	<path id="Vector (Stroke)" d="M208.99 473.7C208.99 473.14 209.44 472.7 209.99 472.7L252.29 472.7C252.84 472.7 253.29 473.14 253.29 473.7C253.29 474.25 252.84 474.7 252.29 474.7L209.99 474.7C209.44 474.7 208.99 474.25 208.99 473.7Z" fill="#091757" fillOpacity="1.000000" fillRule="evenodd"/>
	<path id="Vector (Stroke)" d="M208.99 479.2C208.99 478.64 209.44 478.2 209.99 478.2L252.29 478.2C252.84 478.2 253.29 478.64 253.29 479.2C253.29 479.75 252.84 480.2 252.29 480.2L209.99 480.2C209.44 480.2 208.99 479.75 208.99 479.2Z" fill="#091757" fillOpacity="1.000000" fillRule="evenodd"/>
	<path id="Vector (Stroke)" d="M255.02 243.71C283.73 228.46 298.02 228.52 307.1 231.44C316.65 234.47 323.51 240.55 326.78 249.35C330.04 258.11 329.68 269.43 325.14 282.91C315.72 310.88 293.69 319.7 282.09 317.27C273.6 315.49 266.5 309.31 262.67 298.84C258.84 288.4 258.24 273.68 262.62 254.67C262.67 254.45 262.79 254.26 262.96 254.12C259.98 252.27 257.95 250.16 256.64 248.43C255.9 247.46 255.38 246.61 255.05 245.99C254.89 245.68 254.77 245.43 254.69 245.25C254.65 245.17 254.62 245.09 254.6 245.04C254.58 245.02 254.58 245 254.57 244.98L254.56 244.97L254.56 244.96L254.56 244.96C254.56 244.96 254.56 244.96 255.49 244.6L254.56 244.96L254.24 244.13L255.02 243.71ZM256.81 245.03C256.81 245.03 256.81 245.04 256.82 245.04C257.1 245.58 257.56 246.34 258.23 247.22C259.57 248.99 261.76 251.23 265.15 253.08C271.89 256.77 283.56 259.04 303.08 252.55L304.1 252.21L304.36 253.25L304.36 253.25L304.37 253.26L304.38 253.31C304.39 253.35 304.4 253.41 304.43 253.49C304.47 253.66 304.54 253.9 304.63 254.21C304.82 254.83 305.1 255.72 305.49 256.8C306.28 258.95 307.49 261.83 309.2 264.74C312.53 270.4 317.6 275.94 324.88 276.82C327.7 266.05 327.52 257.07 324.9 250.04C321.88 241.89 315.53 236.22 306.49 233.35L306.49 233.35C298.24 230.69 284.73 230.34 256.81 245.03ZM324.34 278.77C316.29 277.67 310.87 271.52 307.48 265.75C305.69 262.71 304.43 259.71 303.62 257.48C303.21 256.36 302.91 255.43 302.72 254.78C302.71 254.78 302.71 254.77 302.71 254.77C283.76 260.87 271.85 258.88 264.58 255.05C264.58 255.07 264.57 255.1 264.57 255.12C260.24 273.91 260.9 288.19 264.54 298.15C268.18 308.08 274.79 313.7 282.5 315.32C292.89 317.49 314.07 309.51 323.24 282.28C323.64 281.09 324.01 279.92 324.34 278.77Z" fill="#091757" fillOpacity="1.000000" fillRule="evenodd"/>
	<path id="Vector (Stroke)" d="M278.01 267.25C275.47 266.5 272.28 266.66 269.6 268.26C269.13 268.54 268.51 268.38 268.23 267.91C267.95 267.43 268.11 266.82 268.58 266.54C271.8 264.63 275.57 264.44 278.58 265.34C281.52 266.21 284.1 268.26 284.29 271.13L284.29 271.13C284.41 273 283.73 274.94 282.77 276.75C281.81 278.58 280.5 280.41 279.23 282.09C278.78 282.68 278.34 283.24 277.92 283.78C277.12 284.82 276.38 285.76 275.77 286.63C275.32 287.29 274.97 287.85 274.75 288.32C274.51 288.81 274.48 289.08 274.49 289.2C274.54 289.78 274.73 290.15 274.97 290.41C275.22 290.67 275.58 290.89 276.08 291.04C277.12 291.36 278.48 291.35 279.85 291.3C280.41 291.28 280.87 291.71 280.89 292.26C280.91 292.81 280.48 293.27 279.93 293.29C278.6 293.34 276.91 293.38 275.5 292.95C274.77 292.73 274.06 292.37 273.51 291.77C272.94 291.15 272.59 290.36 272.5 289.39C272.43 288.73 272.66 288.06 272.94 287.46C273.23 286.84 273.65 286.18 274.13 285.49C274.76 284.58 275.56 283.56 276.38 282.5C276.8 281.96 277.22 281.42 277.63 280.88C278.9 279.22 280.12 277.5 281 275.82C281.89 274.13 282.38 272.59 282.29 271.26C282.18 269.63 280.61 268.03 278.01 267.25Z" fill="#091757" fillOpacity="1.000000" fillRule="evenodd"/>
	<path id="Vector" d="M274.99 273.79C276.21 273.79 277.19 272.81 277.19 271.6C277.19 270.38 276.21 269.4 274.99 269.4C273.78 269.4 272.79 270.38 272.79 271.6C272.79 272.81 273.78 273.79 274.99 273.79Z" fill="#091757" fillOpacity="1.000000" fillRule="nonzero"/>
	<path id="Vector" d="M297.89 280.7C299.11 280.7 300.09 279.71 300.09 278.5C300.09 277.28 299.11 276.29 297.89 276.29C296.68 276.29 295.69 277.28 295.69 278.5C295.69 279.71 296.68 280.7 297.89 280.7Z" fill="#091757" fillOpacity="1.000000" fillRule="nonzero"/>
	<path id="Vector (Stroke)" d="M299 274.12C296.5 273.67 293.79 274.13 292.08 274.65C291.56 274.81 291 274.52 290.84 273.99C290.67 273.46 290.97 272.9 291.5 272.74C293.39 272.16 296.43 271.62 299.36 272.15C302.33 272.68 305.24 274.35 306.54 278.18C306.72 278.7 306.44 279.26 305.91 279.44C305.39 279.62 304.82 279.34 304.64 278.82C303.64 275.84 301.45 274.56 299 274.12Z" fill="#091757" fillOpacity="1.000000" fillRule="evenodd"/>
	<path id="Vector (Stroke)" d="M271.5 301.03C271.98 300.75 272.59 300.92 272.86 301.4C273.51 302.54 275.28 304.11 277.79 304.76C280.25 305.4 283.45 305.16 287.02 302.68C287.47 302.36 288.1 302.47 288.41 302.92C288.73 303.38 288.62 304 288.16 304.32C284.13 307.13 280.33 307.49 277.29 306.7C274.31 305.93 272.07 304.05 271.12 302.39C270.85 301.91 271.02 301.3 271.5 301.03Z" fill="#091757" fillOpacity="1.000000" fillRule="evenodd"/>
	<path id="Vector (Stroke)" d="M303.17 310.2C303.72 310.18 304.18 310.62 304.19 311.17C304.39 319.78 308 332.34 320.25 338.61C326.7 341.91 337.2 349 346.54 359.39C355.88 369.78 364.11 383.52 365.89 400.09L365.89 400.09C366.69 407.81 368.06 425.7 369.24 441.65C369.83 449.62 370.36 457.12 370.76 462.62C370.95 465.37 371.11 467.62 371.22 469.18C371.27 469.97 371.32 470.58 371.35 470.99L371.39 471.62L371.39 471.63C371.39 471.63 371.39 471.63 370.39 471.7C369.39 471.76 369.39 471.76 369.39 471.76L369.39 471.76L369.35 471.13C369.32 470.72 369.28 470.11 369.22 469.32C369.11 467.76 368.96 465.51 368.76 462.76C368.37 457.26 367.83 449.77 367.24 441.79C366.07 425.84 364.7 407.98 363.9 400.3C362.18 384.27 354.21 370.91 345.05 360.73C335.89 350.54 325.59 343.58 319.34 340.39C306.18 333.65 302.4 320.21 302.19 311.22C302.18 310.67 302.62 310.21 303.17 310.2ZM370.46 472.69C369.91 472.73 369.43 472.32 369.39 471.76L370.39 471.7L371.39 471.63C371.43 472.18 371.01 472.65 370.46 472.69Z" fill="#091757" fillOpacity="1.000000" fillRule="evenodd"/>
	<path id="Vector (Stroke)" d="M277.39 313.61C277.93 313.72 278.28 314.25 278.17 314.79C277.51 318.13 274.89 322.29 270.39 326.49C265.85 330.72 259.33 335.08 250.69 338.81L250.69 338.81C235.17 345.46 228.28 354.2 225.3 364.67C222.67 373.93 223.06 384.59 223.5 396.62C223.57 398.37 223.63 400.15 223.69 401.96C223.71 402.52 223.28 402.98 222.72 403C222.17 403.01 221.71 402.58 221.69 402.03C221.64 400.24 221.57 398.46 221.5 396.71C221.06 384.73 220.65 373.71 223.38 364.12C226.55 352.99 233.91 343.83 249.9 336.98C258.36 333.32 264.68 329.07 269.02 325.03C273.39 320.95 275.67 317.16 276.21 314.4C276.32 313.86 276.84 313.51 277.39 313.61Z" fill="#091757" fillOpacity="1.000000" fillRule="evenodd"/>
	<path id="Vector (Stroke)" d="M265.61 327.92C266.1 327.65 266.71 327.83 266.97 328.32C272.15 337.83 288.76 346.39 310.75 332.06C311.21 331.76 311.83 331.89 312.13 332.35C312.43 332.81 312.3 333.43 311.84 333.73C289.03 348.6 271.04 339.96 265.21 329.27C264.95 328.79 265.13 328.18 265.61 327.92Z" fill="#091757" fillOpacity="1.000000" fillRule="evenodd"/>
	<path id="Vector (Stroke)" d="M259.07 332.39C259.58 332.16 260.17 332.38 260.4 332.88C262.26 336.93 268.66 343.45 278.4 346.21C288.06 348.94 301.07 347.98 316.2 336.99C316.65 336.66 317.28 336.76 317.6 337.21C317.93 337.65 317.83 338.28 317.38 338.6C301.81 349.92 288.17 351.05 277.86 348.13C267.62 345.24 260.72 338.36 258.58 333.71C258.35 333.21 258.57 332.62 259.07 332.39Z" fill="#091757" fillOpacity="1.000000" fillRule="evenodd"/>
	<path id="Vector (Stroke)" d="M151.99 289.92C149.48 289.54 146.47 290.12 144.11 291.98C143.68 292.32 143.05 292.25 142.71 291.81C142.36 291.38 142.44 290.75 142.87 290.41C145.71 288.17 149.3 287.5 152.29 287.94C155.2 288.38 157.95 289.98 158.47 292.7C158.83 294.48 158.41 296.27 157.69 297.92C156.98 299.57 155.92 301.18 154.9 302.63C154.53 303.15 154.17 303.64 153.83 304.11C153.19 305 152.61 305.8 152.14 306.55C151.78 307.11 151.53 307.58 151.39 307.97C151.24 308.37 151.24 308.58 151.26 308.66C151.54 309.79 152.41 310.85 153.55 311.58C154.71 312.31 155.97 312.6 156.89 312.41C157.44 312.31 157.96 312.66 158.07 313.2C158.18 313.74 157.83 314.27 157.29 314.38C155.71 314.69 153.92 314.18 152.48 313.26C151.03 312.34 149.75 310.9 149.32 309.13C149.17 308.49 149.3 307.84 149.51 307.27C149.73 306.7 150.06 306.09 150.44 305.48C150.95 304.68 151.6 303.79 152.27 302.86C152.6 302.4 152.94 301.94 153.26 301.48C154.27 300.05 155.23 298.58 155.86 297.12C156.49 295.66 156.75 294.31 156.51 293.09L156.51 293.08L156.51 293.08C156.23 291.61 154.58 290.31 151.99 289.92Z" fill="#091757" fillOpacity="1.000000" fillRule="evenodd"/>
	<path id="Vector" d="M149.79 296.6C151.01 296.6 151.99 295.61 151.99 294.4C151.99 293.18 151.01 292.2 149.79 292.2C148.58 292.2 147.59 293.18 147.59 294.4C147.59 295.61 148.58 296.6 149.79 296.6Z" fill="#091757" fillOpacity="1.000000" fillRule="nonzero"/>
	<path id="Vector" d="M172.49 300C173.71 300 174.69 299.01 174.69 297.79C174.69 296.58 173.71 295.6 172.49 295.6C171.28 295.6 170.29 296.58 170.29 297.79C170.29 299.01 171.28 300 172.49 300Z" fill="#091757" fillOpacity="1.000000" fillRule="nonzero"/>
	<path id="Vector (Stroke)" d="M172.93 293.56C170.5 293.48 167.98 294.29 166.41 295.01C165.9 295.23 165.31 295.01 165.08 294.51C164.85 294.01 165.08 293.41 165.58 293.19C167.3 292.4 170.14 291.46 173 291.56C175.92 291.65 178.93 292.84 180.69 296.35C180.93 296.84 180.73 297.44 180.24 297.69C179.75 297.94 179.14 297.74 178.9 297.24C177.55 294.55 175.31 293.64 172.93 293.56Z" fill="#091757" fillOpacity="1.000000" fillRule="evenodd"/>
	<path id="Vector (Stroke)" d="M149.77 321.21C150.2 320.87 150.83 320.94 151.18 321.37C151.99 322.41 154.13 324.08 156.81 324.76C159.43 325.43 162.54 325.15 165.51 322.37C165.91 321.99 166.54 322.01 166.92 322.41C167.3 322.81 167.28 323.45 166.88 323.82C163.35 327.14 159.51 327.51 156.32 326.7C153.2 325.91 150.69 323.99 149.61 322.62C149.27 322.18 149.34 321.55 149.77 321.21Z" fill="#091757" fillOpacity="1.000000" fillRule="evenodd"/>
	<path id="Vector (Stroke)" d="M402.14 300.96C400.24 300.19 397.79 300.08 395.62 301.1C395.12 301.34 394.52 301.12 394.29 300.62C394.05 300.12 394.27 299.52 394.77 299.29C397.5 298.01 400.54 298.15 402.89 299.11C405.18 300.04 407.16 301.91 407.09 304.32L407.09 304.33L407.09 304.33C407.03 305.89 406.31 307.34 405.4 308.62C404.48 309.9 403.28 311.11 402.14 312.2C401.72 312.6 401.31 312.98 400.92 313.34C400.23 313.98 399.6 314.56 399.06 315.12C398.65 315.54 398.34 315.9 398.14 316.21C397.94 316.51 397.9 316.67 397.89 316.72C397.9 317.43 398.33 317.97 399.2 318.4C400.09 318.84 401.27 319.05 402.24 319.1C402.79 319.12 403.22 319.59 403.19 320.14C403.16 320.69 402.7 321.12 402.14 321.09C401.02 321.04 399.54 320.8 398.31 320.19C397.07 319.58 395.89 318.48 395.89 316.7L395.89 316.68L395.89 316.66C395.92 316.07 396.18 315.54 396.48 315.1C396.78 314.65 397.18 314.18 397.62 313.73C398.19 313.14 398.9 312.48 399.62 311.81C400 311.46 400.39 311.1 400.77 310.75C401.89 309.68 402.96 308.58 403.77 307.45C404.58 306.32 405.05 305.26 405.09 304.26C405.12 303.08 404.1 301.75 402.14 300.96Z" fill="#091757" fillOpacity="1.000000" fillRule="evenodd"/>
	<path id="Vector" d="M399.59 305.79C400.59 305.79 401.39 304.99 401.39 304C401.39 303 400.59 302.2 399.59 302.2C398.6 302.2 397.79 303 397.79 304C397.79 304.99 398.6 305.79 399.59 305.79Z" fill="#091757" fillOpacity="1.000000" fillRule="nonzero"/>
	<path id="Vector" d="M417.09 312.9C418.09 312.9 418.89 312.09 418.89 311.1C418.89 310.1 418.09 309.29 417.09 309.29C416.1 309.29 415.29 310.1 415.29 311.1C415.29 312.09 416.1 312.9 417.09 312.9Z" fill="#091757" fillOpacity="1.000000" fillRule="nonzero"/>
	<path id="Vector (Stroke)" d="M418.17 307.97C416.28 307.44 414.15 307.59 412.79 307.87C412.25 307.99 411.72 307.64 411.61 307.1C411.5 306.56 411.85 306.03 412.39 305.92C413.93 305.6 416.41 305.4 418.71 306.04C421.07 306.7 423.31 308.27 424.07 311.47C424.19 312 423.86 312.54 423.32 312.67C422.78 312.79 422.25 312.46 422.12 311.93C421.57 309.62 420.02 308.49 418.17 307.97Z" fill="#091757" fillOpacity="1.000000" fillRule="evenodd"/>
	<path id="Vector (Stroke)" d="M392.7 323.3C393.25 323.25 393.74 323.66 393.79 324.21C393.95 325.99 395.59 328.11 398.14 329.37C400.62 330.61 403.74 330.88 406.59 329.23C407.07 328.95 407.68 329.12 407.96 329.59C408.23 330.07 408.07 330.68 407.59 330.96C404.05 333.01 400.21 332.63 397.25 331.17C394.34 329.73 392.04 327.1 391.8 324.38C391.75 323.83 392.15 323.35 392.7 323.3Z" fill="#091757" fillOpacity="1.000000" fillRule="evenodd"/>
	<path id="Vector (Stroke)" d="M178.02 253.85C178.16 253.32 178.7 252.99 179.23 253.13C179.36 253.16 179.48 253.19 179.62 253.22C180.3 253.39 181.1 253.58 181.82 253.85C192.81 257.37 199.25 265.13 201.44 275.32C203.63 285.46 201.61 297.93 195.91 311C192.13 319.68 185.72 327.03 178.47 331.66C171.22 336.29 163.01 338.27 155.69 335.95C148.32 333.62 142.81 326.56 139.44 317.96C136.05 309.33 134.73 298.94 135.9 289.57L135.9 289.56L135.9 289.56C136.41 285.9 137.22 282.32 138.56 278.93C138.76 278.42 139.34 278.16 139.86 278.37C140.37 278.57 140.62 279.15 140.42 279.66C139.16 282.87 138.38 286.28 137.88 289.83C136.75 298.86 138.03 308.91 141.3 317.23C144.57 325.58 149.76 331.97 156.29 334.04C162.87 336.12 170.46 334.4 177.39 329.98C184.31 325.56 190.45 318.52 194.08 310.2L194.08 310.2C199.68 297.36 201.56 285.33 199.49 275.74C197.44 266.22 191.48 259.04 181.19 255.75L181.16 255.74L181.14 255.73C180.53 255.5 179.86 255.34 179.17 255.17C179.03 255.14 178.89 255.1 178.75 255.07C178.21 254.93 177.89 254.39 178.02 253.85Z" fill="#091757" fillOpacity="1.000000" fillRule="evenodd"/>
	<path id="Vector (Stroke)" d="M156.61 245.36C154.14 245.35 151.56 246.05 149.51 247L149.5 247.01L149.5 247.01C148.57 247.43 147.75 248.13 146.94 248.95C146.61 249.28 146.3 249.61 145.99 249.94C145.91 250.03 145.83 250.12 145.74 250.21C145.35 250.63 144.94 251.06 144.53 251.43C143.71 252.18 142.72 252.87 141.48 252.94C140.22 253.02 138.99 252.42 137.71 251.23L137.7 251.22L137.7 251.22C135.75 249.36 132.77 249.08 130.13 250.14C127.49 251.19 125.41 253.48 125.19 256.47C125.08 257.96 125.47 258.84 126.03 259.42C126.63 260.04 127.54 260.45 128.69 260.74C129.53 260.95 130.41 261.08 131.29 261.21C131.61 261.26 131.93 261.31 132.25 261.36C132.83 261.45 133.41 261.56 133.94 261.71C134.45 261.86 134.98 262.07 135.41 262.41C136.54 263.29 137.76 264.31 138.03 266.04C138.29 267.71 137.62 269.77 135.96 272.69L135.95 272.7L135.95 272.7C135.55 273.39 135.3 273.92 135.16 274.32C135.03 274.73 135.02 274.95 135.04 275.06C135.05 275.14 135.08 275.29 135.71 275.56C135.92 275.65 136.19 275.75 136.49 275.85C137.8 276.3 139.81 277 141.28 278.88C141.89 279.66 142.52 279.9 143.19 279.92C143.95 279.94 144.8 279.69 145.82 279.34C145.92 279.3 146.03 279.26 146.14 279.22C147.01 278.92 148.01 278.57 148.95 278.49C150.1 278.38 151.28 278.64 152.24 279.74L152.25 279.74L152.26 279.75C153.32 281.01 155.11 281.54 157.39 281.42C159.65 281.31 162.2 280.55 164.47 279.49C166.82 278.39 169.06 277.48 170.91 277.19C171.85 277.05 172.77 277.05 173.59 277.32C174.44 277.61 175.13 278.17 175.57 279.02C176.8 281.19 179.9 283.13 183.13 282.61C183.56 282.54 183.96 282.46 184.37 282.39L184.43 282.37C184.85 282.29 185.28 282.21 185.69 282.15C186.52 282.03 187.38 281.96 188.25 282.12C190.08 282.46 191.63 283.71 193.25 286.38L193.25 286.38C194.7 288.81 196.06 289.41 197.08 289.43C198.19 289.46 199.3 288.83 200.24 288.03C200.67 287.68 201.3 287.73 201.65 288.15C202.01 288.57 201.96 289.2 201.54 289.56C200.48 290.46 198.89 291.48 197.03 291.43C195.08 291.38 193.19 290.18 191.54 287.41C190.06 284.98 188.91 284.28 187.89 284.09C187.33 283.99 186.73 284.02 185.99 284.13C185.62 284.19 185.23 284.26 184.8 284.34L184.73 284.35C184.33 284.43 183.9 284.51 183.45 284.58C179.29 285.26 175.4 282.81 173.82 279.98L173.81 279.97L173.8 279.96C173.6 279.56 173.33 279.34 172.96 279.22C172.55 279.09 171.99 279.05 171.22 279.17C169.68 279.41 167.66 280.2 165.32 281.3C162.89 282.44 160.08 283.29 157.49 283.42C154.93 283.55 152.37 282.98 150.73 281.05C150.3 280.55 149.81 280.41 149.14 280.48C148.45 280.54 147.71 280.8 146.79 281.12C146.69 281.15 146.58 281.19 146.47 281.23C145.48 281.57 144.31 281.95 143.14 281.92C141.89 281.88 140.69 281.38 139.7 280.11C138.64 278.75 137.35 278.29 136.08 277.84C135.69 277.7 135.3 277.56 134.92 277.4C134.18 277.08 133.24 276.54 133.06 275.36C132.98 274.82 133.07 274.26 133.27 273.69C133.46 273.11 133.78 272.45 134.23 271.7C135.86 268.82 136.2 267.28 136.05 266.35C135.92 265.48 135.35 264.9 134.17 263.98C134.03 263.87 133.78 263.75 133.38 263.63C132.98 263.51 132.5 263.42 131.94 263.33C131.67 263.29 131.39 263.25 131.09 263.2C130.18 263.07 129.15 262.92 128.2 262.68C126.92 262.35 125.58 261.83 124.59 260.81C123.57 259.75 123.05 258.28 123.19 256.32C123.48 252.41 126.2 249.55 129.38 248.28C132.56 247.01 136.42 247.23 139.08 249.77C140.15 250.77 140.87 250.98 141.37 250.95C141.9 250.92 142.46 250.61 143.18 249.96C143.53 249.64 143.89 249.26 144.28 248.84C144.36 248.76 144.44 248.68 144.51 248.59C144.83 248.25 145.17 247.89 145.51 247.54C146.38 246.66 147.41 245.76 148.67 245.19C150.93 244.14 153.8 243.34 156.62 243.36C159.46 243.37 162.34 244.2 164.43 246.53C167.9 250.37 173.7 252.02 177.52 252.92C178.06 253.05 178.39 253.59 178.27 254.13C178.14 254.66 177.6 255 177.06 254.87C173.28 253.97 166.88 252.22 162.95 247.87C161.34 246.09 159.08 245.37 156.61 245.36Z" fill="#091757" fillOpacity="1.000000" fillRule="evenodd"/>
	<path id="Vector (Stroke)" d="M190.85 318C191.4 317.97 191.87 318.4 191.89 318.95C191.89 318.97 191.89 318.99 191.89 319C192.04 322.58 192.39 330.73 196.89 338.27C201.37 345.77 210.05 352.82 227.25 353.9C227.81 353.93 228.22 354.41 228.19 354.96C228.16 355.51 227.68 355.93 227.13 355.89C209.33 354.77 200.02 347.42 195.17 339.3C190.41 331.32 190.05 322.75 189.9 319.14C189.9 319.1 189.89 319.07 189.89 319.04C189.87 318.49 190.3 318.02 190.85 318Z" fill="#091757" fillOpacity="1.000000" fillRule="evenodd"/>
	<path id="Vector (Stroke)" d="M34.77 321.27C34.77 321.21 34.77 321.14 34.77 321.08C34.72 318.62 34.58 315.35 34.24 312.14C33.9 308.95 33.35 305.73 32.45 303.4C32 302.25 31.42 301.21 30.65 300.52C29.81 299.78 28.76 299.48 27.59 299.84C26.62 300.14 26.03 300.97 25.67 301.84C25.31 302.72 25.11 303.82 25 305.01C24.78 307.41 24.93 310.41 25.21 313.32C25.23 313.5 25.25 313.69 25.26 313.88C25.03 313.27 24.79 312.66 24.54 312.04C23.33 309.03 21.94 306.01 20.55 303.81C19.86 302.72 19.13 301.77 18.37 301.13C17.63 300.51 16.66 300.02 15.6 300.34C14.52 300.67 14.02 301.65 13.81 302.59C13.59 303.54 13.6 304.74 13.72 306.01C13.97 308.59 14.75 311.84 15.66 315C16.11 316.59 16.6 318.17 17.09 319.64C16.34 318.57 15.53 317.45 14.69 316.34C12.8 313.85 10.73 311.38 8.8 309.65C7.84 308.78 6.87 308.06 5.94 307.62C5.02 307.19 3.98 306.97 3.01 307.37C2.5 307.58 2.1 307.94 1.86 308.42C1.62 308.88 1.55 309.39 1.56 309.87C1.59 310.83 1.95 311.94 2.45 313.09C3.47 315.4 5.27 318.25 7.17 320.97C8.07 322.24 8.99 323.5 9.88 324.69C8.26 323.57 6.54 322.53 5.03 321.96C4.22 321.66 3.39 321.45 2.63 321.5C1.82 321.54 1.05 321.88 0.55 322.66L0.54 322.67C-0.27 323.98 -0.1 325.32 0.56 326.55C1.19 327.71 2.3 328.87 3.57 330.01C4.49 330.84 5.54 331.71 6.64 332.61C7.08 332.98 7.53 333.35 7.98 333.72C9.56 335.04 11.18 336.45 12.67 337.99C14.78 340.2 17.16 343.66 20.16 348.86C23.16 354.05 26.75 360.9 31.3 369.85C40.95 388.85 53.46 404.32 70.69 412.55C87.94 420.79 109.75 421.7 137.82 411.94C138.34 411.76 138.62 411.19 138.44 410.67C138.25 410.15 137.69 409.87 137.16 410.05C109.44 419.69 88.2 418.7 71.55 410.74C54.88 402.78 42.63 387.74 33.08 368.94C28.53 359.99 24.92 353.1 21.89 347.86C18.87 342.63 16.4 338.99 14.11 336.6L14.11 336.6C12.55 334.99 10.86 333.52 9.26 332.19C8.79 331.79 8.32 331.41 7.88 331.04C6.79 330.15 5.79 329.32 4.91 328.53C3.66 327.4 2.77 326.44 2.32 325.6C1.9 324.82 1.9 324.27 2.24 323.73C2.32 323.61 2.43 323.51 2.75 323.5C3.11 323.47 3.63 323.57 4.32 323.83C5.7 324.35 7.39 325.38 9.08 326.56C10.75 327.74 12.36 329.03 13.56 330.04C14.16 330.54 14.65 330.96 14.99 331.26C15.16 331.41 15.29 331.53 15.38 331.61C15.43 331.65 15.46 331.68 15.48 331.7L15.51 331.73L15.52 331.73C15.91 332.09 16.51 332.08 16.89 331.71C17.27 331.35 17.3 330.75 16.95 330.35L16.19 331C16.95 330.35 16.95 330.35 16.95 330.35L16.94 330.33L16.9 330.29C16.87 330.25 16.82 330.19 16.76 330.12C16.63 329.97 16.45 329.75 16.21 329.46C15.75 328.9 15.08 328.09 14.3 327.1C12.73 325.14 10.69 322.51 8.81 319.82C6.92 317.12 5.22 314.41 4.28 312.28C3.81 311.21 3.58 310.38 3.56 309.82C3.56 309.54 3.6 309.4 3.63 309.34C3.66 309.29 3.69 309.26 3.78 309.22C4 309.13 4.4 309.11 5.09 309.43C5.77 309.75 6.57 310.33 7.47 311.13C9.25 312.74 11.23 315.09 13.09 317.55C14.95 320 16.66 322.52 17.91 324.42C18.54 325.38 19.04 326.18 19.39 326.74C19.57 327.02 19.71 327.24 19.8 327.39C19.84 327.46 19.88 327.52 19.9 327.56L19.93 327.6L19.94 327.61C20.2 328.06 20.77 328.22 21.23 327.99C21.7 327.76 21.91 327.22 21.72 326.73L20.79 327.1C21.72 326.73 21.72 326.73 21.72 326.73L21.72 326.72L21.7 326.67C21.68 326.62 21.65 326.55 21.62 326.46C21.55 326.29 21.45 326.03 21.33 325.69C21.08 325.03 20.73 324.07 20.32 322.93C19.51 320.63 18.47 317.56 17.58 314.44C16.68 311.32 15.95 308.21 15.71 305.82C15.59 304.62 15.61 303.67 15.76 303.03C15.91 302.36 16.12 302.27 16.18 302.25C16.27 302.22 16.54 302.2 17.08 302.66C17.61 303.1 18.21 303.85 18.86 304.88C20.15 306.92 21.48 309.81 22.69 312.79C23.89 315.77 24.95 318.79 25.71 321.07C26.1 322.21 26.4 323.17 26.61 323.84C26.72 324.17 26.8 324.43 26.85 324.61C26.88 324.7 26.9 324.77 26.91 324.81L26.93 324.87L26.93 324.88C26.93 324.88 26.93 324.88 27.89 324.6L26.93 324.88C27.09 325.39 27.62 325.7 28.13 325.57C28.65 325.44 28.98 324.92 28.87 324.4L28.87 324.38L28.86 324.34C28.85 324.3 28.84 324.23 28.82 324.15C28.79 323.99 28.75 323.75 28.69 323.45C28.58 322.84 28.42 321.96 28.25 320.91C27.9 318.8 27.48 315.98 27.2 313.12C26.92 310.25 26.79 307.4 26.99 305.2C27.09 304.09 27.27 303.21 27.52 302.6C27.78 301.97 28.04 301.8 28.19 301.75L28.19 301.75C28.62 301.62 28.95 301.69 29.32 302.02C29.74 302.39 30.18 303.09 30.58 304.13C31.38 306.19 31.91 309.19 32.25 312.35C32.58 315.49 32.72 318.69 32.77 321.12C32.8 322.34 32.8 323.35 32.8 324.06C32.8 324.42 32.8 324.7 32.8 324.89C32.79 324.98 32.79 325.06 32.79 325.1L32.79 325.16L32.79 325.18C32.78 325.65 33.11 326.06 33.57 326.17C34.03 326.28 34.5 326.05 34.7 325.62L34.7 325.61L34.71 325.59C34.72 325.57 34.74 325.54 34.75 325.5C34.79 325.42 34.85 325.3 34.93 325.15C35.08 324.84 35.3 324.41 35.58 323.89C36.14 322.85 36.93 321.5 37.83 320.22C38.75 318.93 39.74 317.77 40.71 317.06C41.69 316.34 42.41 316.23 42.96 316.5L42.97 316.5C43.43 316.72 43.69 317.02 43.83 317.42C43.99 317.85 44.04 318.45 43.93 319.23C43.7 320.81 42.89 322.81 41.8 324.94L41.8 324.95C38.25 332.03 35.61 339.56 39.26 349.15C46.44 368.23 64.09 376.93 82.48 379.62C100.87 382.31 120.27 379.04 131.41 373.9C142.51 368.79 150.66 361.78 156.02 354.8C161.36 347.85 164 340.84 163.89 335.67C163.88 335.12 163.42 334.68 162.87 334.7C162.32 334.71 161.88 335.16 161.89 335.72C161.99 340.26 159.62 346.84 154.44 353.59C149.27 360.31 141.38 367.1 130.57 372.09C119.81 377.05 100.81 380.28 82.77 377.64C64.74 375.01 47.95 366.56 41.13 348.44L41.13 348.44C37.78 339.64 40.13 332.76 43.58 325.85C44.69 323.68 45.63 321.43 45.91 319.51C46.04 318.54 46.03 317.58 45.71 316.72C45.38 315.83 44.75 315.13 43.82 314.69C42.27 313.96 40.74 314.55 39.53 315.45C38.3 316.35 37.16 317.71 36.2 319.07C35.68 319.81 35.2 320.56 34.77 321.27Z" fill="#091757" fillOpacity="1.000000" fillRule="evenodd"/>
	<path id="Vector (Stroke)" d="M200 343.9C200.44 344.23 200.52 344.86 200.19 345.3C192.21 355.84 182.9 359.25 174.85 359.03C166.88 358.81 160.15 355.03 157.29 351.19C156.96 350.75 157.05 350.12 157.49 349.79C157.94 349.46 158.56 349.55 158.89 350C161.33 353.27 167.45 356.83 174.91 357.03C182.28 357.24 190.98 354.15 198.59 344.09C198.93 343.65 199.56 343.56 200 343.9Z" fill="#091757" fillOpacity="1.000000" fillRule="evenodd"/>
	<path id="Vector (Stroke)" d="M213.68 351.37C214.08 351.75 214.1 352.38 213.72 352.78L193.42 374.38C193.23 374.59 192.96 374.7 192.68 374.7C192.4 374.69 192.13 374.57 191.94 374.36L178.04 358.66C177.68 358.24 177.72 357.61 178.13 357.25C178.54 356.88 179.17 356.92 179.54 357.33L192.71 372.21L212.26 351.41C212.64 351.01 213.27 350.99 213.68 351.37Z" fill="#091757" fillOpacity="1.000000" fillRule="evenodd"/>
	<path id="Vector (Stroke)" d="M177.87 357.18C178.32 357.5 178.43 358.12 178.11 358.57L168.01 372.87C167.85 373.09 167.61 373.24 167.35 373.28C167.08 373.33 166.81 373.26 166.59 373.1L149.79 360.5C149.35 360.16 149.26 359.54 149.59 359.1C149.92 358.65 150.55 358.56 150.99 358.9L166.97 370.88L176.48 357.42C176.79 356.97 177.42 356.86 177.87 357.18Z" fill="#091757" fillOpacity="1.000000" fillRule="evenodd"/>
	<path id="Vector (Stroke)" d="M134.37 398.75C134.89 398.57 135.46 398.85 135.64 399.37L151.64 446.17C151.82 446.69 151.54 447.26 151.02 447.44C150.49 447.62 149.92 447.34 149.75 446.82L133.75 400.02C133.57 399.5 133.85 398.93 134.37 398.75Z" fill="#091757" fillOpacity="1.000000" fillRule="evenodd"/>
	<path id="Vector (Stroke)" d="M43.02 352.74C43.33 353.2 43.21 353.82 42.75 354.13L29.15 363.23C28.69 363.53 28.07 363.41 27.76 362.95C27.45 362.49 27.58 361.87 28.04 361.56L41.64 352.46C42.09 352.16 42.72 352.28 43.02 352.74Z" fill="#091757" fillOpacity="1.000000" fillRule="evenodd"/>
	<path id="Vector (Stroke)" d="M179.39 376.1C178.07 376.1 176.99 377.17 176.99 378.5C176.99 379.82 178.07 380.9 179.39 380.9C180.72 380.9 181.79 379.82 181.79 378.5C181.79 377.17 180.72 376.1 179.39 376.1ZM174.99 378.5C174.99 376.07 176.96 374.1 179.39 374.1C181.82 374.1 183.79 376.07 183.79 378.5C183.79 380.93 181.82 382.9 179.39 382.9C176.96 382.9 174.99 380.93 174.99 378.5Z" fill="#091757" fillOpacity="1.000000" fillRule="evenodd"/>
	<path id="Vector (Stroke)" d="M181.49 397.7C180.17 397.7 179.09 398.77 179.09 400.1C179.09 401.42 180.17 402.5 181.49 402.5C182.82 402.5 183.89 401.42 183.89 400.1C183.89 398.77 182.82 397.7 181.49 397.7ZM177.09 400.1C177.09 397.67 179.06 395.7 181.49 395.7C183.92 395.7 185.89 397.67 185.89 400.1C185.89 402.53 183.92 404.5 181.49 404.5C179.06 404.5 177.09 402.53 177.09 400.1Z" fill="#091757" fillOpacity="1.000000" fillRule="evenodd"/>
	<path id="Vector (Stroke)" d="M183.79 420.7C182.47 420.7 181.39 421.77 181.39 423.1C181.39 424.42 182.47 425.5 183.79 425.5C185.12 425.5 186.19 424.42 186.19 423.1C186.19 421.77 185.12 420.7 183.79 420.7ZM179.39 423.1C179.39 420.67 181.36 418.7 183.79 418.7C186.22 418.7 188.19 420.67 188.19 423.1C188.19 425.53 186.22 427.5 183.79 427.5C181.36 427.5 179.39 425.53 179.39 423.1Z" fill="#091757" fillOpacity="1.000000" fillRule="evenodd"/>
	<path id="Vector (Stroke)" d="M413.45 285.18L412.91 284.29L412.04 284.86C406.56 288.45 400.11 290.19 394.99 291.03C392.44 291.45 390.24 291.64 388.67 291.73C387.89 291.77 387.27 291.79 386.85 291.79C386.64 291.8 386.48 291.8 386.37 291.8C386.31 291.8 386.27 291.8 386.25 291.8L386.22 291.79L386.21 291.79L385.46 291.78L385.24 292.49C380.6 307.23 380.78 318.34 383.61 326.26C386.45 334.19 391.93 338.85 397.69 340.65C403.51 342.47 410 340.89 415.69 337.25C421.4 333.6 426.43 327.82 429.41 321L429.41 320.99C431.44 316.33 432.86 311.76 433.68 307.38C433.7 307.27 433.7 307.16 433.68 307.05C433.7 307.01 433.72 306.97 433.73 306.93C433.92 306.41 433.65 305.84 433.13 305.65C430.91 304.87 428.56 303.23 426.26 301.15C423.97 299.08 421.78 296.62 419.87 294.24C417.97 291.87 416.36 289.6 415.23 287.92C414.66 287.08 414.21 286.4 413.91 285.92C413.76 285.68 413.64 285.49 413.56 285.37C413.52 285.3 413.49 285.26 413.48 285.22L413.45 285.19L413.45 285.18ZM431.67 307.23C429.35 306.25 427.06 304.57 424.92 302.64C422.52 300.47 420.26 297.92 418.31 295.5C416.37 293.07 414.72 290.75 413.57 289.04C413.03 288.24 412.59 287.56 412.28 287.08C406.67 290.51 400.32 292.19 395.32 293.01C392.68 293.44 390.4 293.64 388.78 293.73C388 293.77 387.37 293.79 386.93 293.79C382.6 307.9 382.9 318.32 385.5 325.58C388.13 332.95 393.15 337.14 398.29 338.74C403.37 340.33 409.24 339 414.62 335.57C419.98 332.14 424.75 326.67 427.58 320.2C429.51 315.74 430.88 311.38 431.67 307.23Z" fill="#091757" fillOpacity="1.000000" fillRule="evenodd"/>
	<path id="Vector (Stroke)" d="M407.4 339.54C407.92 339.71 408.21 340.27 408.04 340.8C407.03 343.99 407.22 346.43 408.13 348.42C409.06 350.44 410.8 352.11 413.12 353.62C415.45 355.12 418.28 356.4 421.3 357.67C422.04 357.98 422.79 358.29 423.55 358.6C425.86 359.56 428.22 360.53 430.42 361.59C439.31 365.83 447.62 375.01 453.87 389.24C460.12 403.49 464.34 422.88 464.99 447.67C465.01 448.22 464.57 448.68 464.02 448.7C463.47 448.71 463.01 448.27 462.99 447.72C462.34 423.11 458.16 404 452.04 390.05C445.91 376.09 437.88 367.36 429.56 363.4L429.56 363.4C427.41 362.36 425.13 361.42 422.83 360.47C422.06 360.15 421.29 359.84 420.53 359.52C417.5 358.24 414.52 356.91 412.04 355.3C409.55 353.69 407.47 351.76 406.32 349.26C405.15 346.73 405 343.76 406.14 340.19C406.31 339.67 406.87 339.38 407.4 339.54Z" fill="#091757" fillOpacity="1.000000" fillRule="evenodd"/>
	<path id="Vector (Stroke)" d="M388.19 331.34C388.72 331.51 389.01 332.07 388.85 332.6C386.35 340.51 377.91 350.02 364.65 349.39C355.88 349 350.7 351.04 347.75 353.07C346.26 354.09 345.32 355.12 344.75 355.88C344.47 356.26 344.28 356.58 344.16 356.79C344.1 356.89 344.06 356.97 344.04 357.02C344.03 357.05 344.02 357.06 344.02 357.07L344.02 357.08L344.02 357.07L344.02 357.07C344.02 357.07 344.02 357.08 344.02 357.08C343.81 357.59 343.23 357.83 342.72 357.62C342.2 357.41 341.96 356.83 342.17 356.32L343.09 356.7C342.17 356.32 342.17 356.32 342.17 356.32L342.17 356.32L342.17 356.31L342.17 356.3L342.19 356.27C342.2 356.24 342.21 356.21 342.23 356.17C342.27 356.08 342.33 355.97 342.41 355.82C342.57 355.54 342.81 355.15 343.15 354.69C343.83 353.77 344.93 352.58 346.61 351.42C349.98 349.1 355.61 346.99 364.74 347.4L364.74 347.4C376.88 347.97 384.64 339.28 386.94 331.99C387.1 331.47 387.67 331.18 388.19 331.34Z" fill="#091757" fillOpacity="1.000000" fillRule="evenodd"/>
	<path id="Vector (Stroke)" d="M378.56 344.27C379.08 344.47 379.33 345.06 379.12 345.57C376.83 351.28 375.94 357.86 376.91 363.31C377.89 368.75 380.66 372.86 385.54 374.13C387.89 374.74 390.69 374.06 393.81 372.52C396.91 370.99 400.14 368.68 403.28 366.28C404.32 365.48 405.35 364.67 406.37 363.88C408.38 362.3 410.32 360.78 412.06 359.57C413.37 358.65 414.62 357.88 415.76 357.36C416.87 356.86 418.01 356.53 419.06 356.71C419.6 356.8 419.97 357.32 419.88 357.86C419.79 358.4 419.27 358.77 418.73 358.68C418.27 358.61 417.58 358.73 416.58 359.18C415.61 359.62 414.48 360.32 413.2 361.21C411.51 362.39 409.65 363.84 407.67 365.4C406.64 366.2 405.59 367.03 404.5 367.86C401.34 370.28 397.98 372.69 394.7 374.31C391.44 375.93 388.09 376.85 385.04 376.06C379.13 374.53 376 369.55 374.95 363.66C373.89 357.78 374.86 350.81 377.26 344.82C377.47 344.31 378.05 344.06 378.56 344.27Z" fill="#091757" fillOpacity="1.000000" fillRule="evenodd"/>
	<path id="Vector (Stroke)" d="M455.17 366.41C455.61 366.07 456.24 366.14 456.58 366.58L455.79 367.2C456.58 366.58 456.58 366.58 456.58 366.58L456.58 366.58L456.58 366.58L456.59 366.59L456.62 366.63C456.64 366.65 456.67 366.69 456.71 366.75C456.78 366.85 456.89 367 457.02 367.19C457.28 367.57 457.63 368.12 458 368.8C458.75 370.16 459.62 372.07 460.05 374.25C460.48 376.45 460.47 378.94 459.41 381.42C458.36 383.91 456.29 386.28 452.79 388.27C452.31 388.54 451.69 388.37 451.42 387.89C451.15 387.41 451.32 386.8 451.8 386.53C454.99 384.71 456.72 382.65 457.57 380.64C458.43 378.62 458.46 376.55 458.09 374.64C457.71 372.72 456.94 371.01 456.25 369.77C455.91 369.15 455.59 368.65 455.36 368.31C455.25 368.15 455.16 368.02 455.09 367.93C455.06 367.89 455.04 367.86 455.02 367.84L455.01 367.82L455.01 367.81L455.01 367.81C454.66 367.38 454.74 366.75 455.17 366.41Z" fill="#091757" fillOpacity="1.000000" fillRule="evenodd"/>
	<path id="Vector (Stroke)" d="M452.79 341.77C453.02 341.27 453.61 341.06 454.11 341.29L453.69 342.2C454.11 341.29 454.11 341.29 454.12 341.29L454.12 341.29L454.12 341.29L454.13 341.3L454.15 341.31C454.17 341.32 454.2 341.33 454.24 341.35C454.31 341.39 454.42 341.44 454.55 341.51C454.81 341.65 455.17 341.86 455.6 342.15C456.46 342.71 457.6 343.56 458.7 344.73C460.93 347.08 463.07 350.73 462.59 355.79C462.12 360.66 460.61 363.72 459.14 365.59C458.41 366.52 457.7 367.14 457.16 367.53C456.89 367.73 456.66 367.87 456.49 367.96C456.41 368.01 456.34 368.04 456.29 368.07C456.26 368.08 456.24 368.09 456.22 368.1L456.2 368.11L456.19 368.11L456.19 368.11L456.19 368.11C456.19 368.11 456.19 368.11 455.79 367.2L456.19 368.11C455.68 368.33 455.09 368.1 454.87 367.59C454.66 367.08 454.89 366.5 455.39 366.28C455.39 366.28 455.4 366.28 455.41 366.27C455.43 366.26 455.47 366.24 455.52 366.21C455.62 366.16 455.78 366.06 455.98 365.91C456.39 365.62 456.96 365.12 457.57 364.35C458.78 362.82 460.16 360.13 460.6 355.6C461.01 351.27 459.2 348.16 457.25 346.11C456.28 345.08 455.27 344.32 454.5 343.82C454.12 343.57 453.81 343.39 453.59 343.27C453.48 343.21 453.4 343.16 453.34 343.14C453.31 343.12 453.29 343.11 453.28 343.11L453.27 343.1C453.27 343.1 453.27 343.1 453.27 343.1L453.27 343.1L453.27 343.1C452.77 342.87 452.55 342.27 452.79 341.77Z" fill="#091757" fillOpacity="1.000000" fillRule="evenodd"/>
	<path id="Vector (Stroke)" d="M464.05 328.7C464.6 328.73 465.02 329.2 464.99 329.75C464.63 336.58 461.91 340.05 459.1 341.76C457.72 342.6 456.38 342.98 455.37 343.15C454.87 343.24 454.45 343.28 454.15 343.29C454 343.3 453.88 343.3 453.79 343.3C453.75 343.3 453.72 343.3 453.69 343.3L453.66 343.29L453.65 343.29L453.64 343.29L453.64 343.29C453.64 343.29 453.64 343.29 453.69 342.3L453.64 343.29C453.09 343.27 452.66 342.79 452.69 342.24C452.72 341.69 453.19 341.27 453.74 341.3L464.05 328.7ZM453.74 341.3L453.75 341.3C453.76 341.3 453.78 341.3 453.81 341.3C453.86 341.3 453.95 341.3 454.06 341.29C454.29 341.28 454.62 341.25 455.03 341.18C455.85 341.04 456.95 340.73 458.06 340.05C460.23 338.74 462.66 335.91 462.99 329.64C463.02 329.09 463.49 328.67 464.05 328.7L453.74 341.3Z" fill="#091757" fillOpacity="1.000000" fillRule="evenodd"/>
	<path id="Vector (Stroke)" d="M451.9 314.44C451.99 313.89 452.51 313.52 453.05 313.61L452.89 314.6C453.05 313.61 453.05 313.61 453.05 313.61L453.05 313.61L453.06 313.61L453.07 313.61L453.1 313.62C453.13 313.62 453.17 313.63 453.22 313.64C453.32 313.66 453.46 313.69 453.63 313.73C453.98 313.81 454.47 313.95 455.05 314.15C456.22 314.56 457.77 315.25 459.3 316.38C462.4 318.67 465.36 322.73 464.99 329.65C464.96 330.2 464.49 330.62 463.94 330.59C463.39 330.56 462.96 330.09 462.99 329.54C463.32 323.36 460.73 319.92 458.11 317.99C456.78 317.01 455.42 316.4 454.39 316.04C453.88 315.86 453.46 315.75 453.16 315.67C453.02 315.64 452.9 315.62 452.83 315.6C452.79 315.59 452.77 315.59 452.75 315.59L452.73 315.58L452.73 315.58L452.73 315.58L451.9 314.44Z" fill="#091757" fillOpacity="1.000000" fillRule="evenodd"/>
	<path id="Vector (Stroke)" d="M440.29 286.45C440.32 285.9 440.79 285.47 441.34 285.5L441.29 286.5C441.34 285.5 441.34 285.5 441.34 285.5L441.34 285.5L441.34 285.5L441.35 285.5L441.39 285.5C441.42 285.5 441.46 285.5 441.51 285.51C441.61 285.51 441.76 285.53 441.95 285.55C442.33 285.58 442.87 285.65 443.53 285.76C444.84 285.98 446.62 286.39 448.53 287.13C452.32 288.59 456.71 291.43 458.54 296.88C460.35 302.26 459.09 306.92 457.41 310.19C456.57 311.82 455.62 313.13 454.87 314.02C454.5 314.47 454.18 314.81 453.95 315.05C453.84 315.17 453.74 315.26 453.68 315.33C453.65 315.36 453.62 315.38 453.6 315.4L453.58 315.42L453.57 315.43L453.57 315.43L453.57 315.43C453.57 315.43 453.57 315.43 452.89 314.7L453.57 315.43C453.16 315.81 452.53 315.78 452.15 315.37C451.78 314.96 451.81 314.33 452.22 313.96L452.22 313.96C452.22 313.96 452.22 313.96 452.22 313.96L452.22 313.96L452.23 313.95C452.24 313.93 452.26 313.92 452.29 313.89C452.34 313.84 452.42 313.76 452.51 313.66C452.71 313.46 453 313.15 453.33 312.74C454.01 311.93 454.87 310.75 455.63 309.28C457.14 306.32 458.23 302.24 456.64 297.51C455.08 292.86 451.31 290.35 447.81 288.99C446.06 288.31 444.41 287.94 443.19 287.73C442.59 287.63 442.09 287.57 441.75 287.54C441.58 287.52 441.45 287.51 441.37 287.5C441.32 287.5 441.29 287.5 441.27 287.5L441.25 287.49L441.25 287.49L441.24 287.49C440.69 287.47 440.27 287 440.29 286.45Z" fill="#091757" fillOpacity="1.000000" fillRule="evenodd"/>
	<path id="Vector (Stroke)" d="M440.61 263.67C441.01 263.29 441.64 263.31 442.02 263.71C447.46 269.52 447.48 275.44 446.11 279.87C445.43 282.06 444.41 283.88 443.57 285.14C443.15 285.78 442.77 286.28 442.49 286.62C442.35 286.8 442.24 286.93 442.16 287.02C442.12 287.07 442.09 287.11 442.07 287.13L442.04 287.16L442.03 287.17L442.03 287.17L442.03 287.17C442.03 287.18 442.03 287.18 441.29 286.5L442.03 287.18C441.65 287.58 441.02 287.6 440.61 287.23C440.21 286.85 440.18 286.22 440.56 285.82L440.56 285.82L440.61 263.67ZM440.56 285.82L440.56 285.81L440.58 285.79C440.59 285.78 440.62 285.75 440.65 285.71C440.72 285.64 440.81 285.52 440.94 285.37C441.18 285.07 441.52 284.61 441.91 284.04C442.68 282.88 443.59 281.23 444.2 279.27C445.4 275.4 445.42 270.27 440.56 265.08C440.18 264.68 440.21 264.04 440.61 263.67L440.56 285.82Z" fill="#091757" fillOpacity="1.000000" fillRule="evenodd"/>
	<path id="Vector (Stroke)" d="M417.09 264L416.48 263.2C416.04 263.54 415.96 264.17 416.3 264.6C416.64 265.04 417.26 265.12 417.7 264.79L417.7 264.79L417.7 264.79L417.71 264.78L417.73 264.76C417.75 264.75 417.79 264.72 417.84 264.69C417.93 264.62 418.08 264.51 418.27 264.39C418.65 264.13 419.21 263.77 419.92 263.37C421.33 262.56 423.31 261.61 425.59 261C430.12 259.77 435.74 259.88 440.56 265.07C440.93 265.48 441.57 265.5 441.97 265.13C442.38 264.75 442.4 264.12 442.02 263.72C436.54 257.81 430.06 257.72 425.07 259.07C422.58 259.74 420.44 260.77 418.93 261.63C418.17 262.06 417.57 262.45 417.15 262.73C416.94 262.87 416.78 262.99 416.66 263.07C416.61 263.11 416.56 263.14 416.53 263.16L416.5 263.19L416.49 263.2L416.48 263.2L416.48 263.2C416.48 263.2 416.48 263.2 417.09 264Z" fill="#091757" fillOpacity="1.000000" fillRule="evenodd"/>
	<path id="Vector (Stroke)" d="M411.6 262.15C408.43 261.14 403.7 260.71 397.57 263.22C394.55 264.46 392.68 266.05 391.55 267.68C390.41 269.32 389.96 271.07 389.88 272.7C389.79 274.33 390.07 275.83 390.38 276.93C390.53 277.48 390.69 277.92 390.81 278.22C390.87 278.37 390.91 278.49 390.95 278.56C390.96 278.6 390.98 278.63 390.98 278.64L390.99 278.66L390.99 278.66L411.6 262.15ZM390.99 278.66C391.23 279.16 391.02 279.76 390.53 280C390.03 280.24 389.43 280.03 389.19 279.53L390.09 279.1C389.19 279.53 389.19 279.53 389.19 279.53L389.19 279.53L389.19 279.52L389.18 279.51L389.17 279.48C389.16 279.45 389.14 279.42 389.12 279.37C389.07 279.27 389.01 279.13 388.95 278.95C388.81 278.6 388.63 278.09 388.45 277.47C388.11 276.23 387.78 274.51 387.88 272.59C387.98 270.67 388.52 268.54 389.9 266.54C391.29 264.54 393.49 262.73 396.81 261.37C403.39 258.68 408.6 259.1 412.21 260.24C414 260.81 415.38 261.55 416.31 262.16C416.78 262.46 417.14 262.73 417.39 262.93C417.51 263.03 417.6 263.11 417.67 263.17C417.7 263.2 417.73 263.22 417.75 263.24L417.77 263.26L417.78 263.27L417.78 263.27L417.78 263.27C417.78 263.27 417.78 263.27 417.09 264L417.78 263.27C418.18 263.66 418.2 264.29 417.81 264.69C417.43 265.09 416.8 265.1 416.4 264.72L416.4 264.72L416.39 264.71C416.38 264.7 416.37 264.69 416.35 264.67C416.3 264.63 416.23 264.57 416.13 264.49C415.93 264.33 415.63 264.1 415.22 263.84C414.41 263.31 413.2 262.65 411.6 262.15L390.99 278.66Z" fill="#091757" fillOpacity="1.000000" fillRule="evenodd"/>
	<path id="Vector (Stroke)" d="M385.5 279.58C382.86 279.64 379.43 280.3 376.19 282.7C373.18 284.92 372.88 288.18 373.44 291.12C373.71 292.58 374.19 293.91 374.61 294.87C374.82 295.35 375.01 295.74 375.14 296C375.21 296.13 375.27 296.23 375.3 296.3C375.32 296.33 375.34 296.36 375.34 296.37L375.35 296.39L375.35 296.39C375.63 296.87 375.47 297.48 375 297.76C374.52 298.04 373.91 297.88 373.63 297.4L374.49 296.9C373.63 297.4 373.63 297.4 373.63 297.4L373.63 297.4L373.62 297.39L373.61 297.36C373.59 297.34 373.58 297.31 373.55 297.27C373.51 297.19 373.45 297.07 373.37 296.92C373.21 296.62 373 296.19 372.78 295.67C372.32 294.61 371.78 293.14 371.47 291.49C370.85 288.21 371.1 283.97 375 281.09C378.66 278.39 382.52 277.65 385.46 277.58C386.92 277.55 388.16 277.69 389.04 277.83C389.48 277.9 389.83 277.98 390.08 278.03C390.2 278.06 390.3 278.09 390.36 278.1C390.4 278.11 390.42 278.12 390.44 278.13L390.47 278.13L390.47 278.14L390.48 278.14L390.48 278.14C390.48 278.14 390.48 278.14 390.19 279.1L390.48 278.14C391.01 278.29 391.31 278.85 391.15 279.38C390.99 279.91 390.44 280.21 389.91 280.05C389.91 280.05 389.91 280.05 389.91 280.05L389.9 280.05C389.89 280.05 389.87 280.04 389.84 280.04C389.8 280.02 389.72 280 389.62 279.98C389.41 279.93 389.11 279.87 388.72 279.8C387.94 279.67 386.82 279.55 385.5 279.58Z" fill="#091757" fillOpacity="1.000000" fillRule="evenodd"/>
	<path id="Vector (Stroke)" d="M370.09 297.8C367.66 298.16 364.45 299.31 361.43 302.57C360.01 304.1 359.27 306.14 358.98 308.43C358.7 310.72 358.89 313.2 359.28 315.52C359.67 317.82 360.25 319.93 360.74 321.46C360.99 322.22 361.21 322.84 361.37 323.27C361.45 323.48 361.51 323.64 361.55 323.75C361.57 323.81 361.59 323.85 361.6 323.88L361.61 323.91L361.62 323.91L361.62 323.91C361.83 324.42 361.58 325.01 361.07 325.22C360.56 325.43 359.98 325.19 359.77 324.68L360.69 324.29C359.77 324.68 359.77 324.68 359.77 324.68L359.77 324.67L359.76 324.66L359.75 324.62C359.73 324.59 359.71 324.55 359.69 324.49C359.64 324.37 359.58 324.19 359.49 323.96C359.33 323.51 359.09 322.87 358.84 322.07C358.33 320.48 357.72 318.28 357.31 315.85C356.9 313.43 356.68 310.74 357 308.18C357.32 305.63 358.17 303.14 359.96 301.22C363.33 297.58 366.98 296.24 369.8 295.82C371.2 295.61 372.39 295.63 373.24 295.71C373.67 295.75 374.01 295.8 374.24 295.84C374.36 295.87 374.46 295.88 374.53 295.9C374.56 295.91 374.59 295.91 374.61 295.92L374.63 295.92L374.64 295.93L374.64 295.93L374.64 295.93C374.64 295.93 374.64 295.93 374.39 296.9L374.64 295.93C375.18 296.07 375.5 296.61 375.36 297.15C375.22 297.68 374.68 298 374.14 297.86C374.14 297.86 374.14 297.86 374.14 297.86L374.14 297.86C374.13 297.86 374.11 297.86 374.09 297.85C374.05 297.84 373.98 297.83 373.89 297.81C373.7 297.78 373.42 297.73 373.06 297.7C372.34 297.64 371.31 297.62 370.09 297.8Z" fill="#091757" fillOpacity="1.000000" fillRule="evenodd"/>
	<path id="Vector (Stroke)" d="M355.27 326.24C352.35 327.15 349.16 329 347.62 332.77L347.62 332.78L347.62 332.78C346.82 334.71 346.6 336.3 346.75 337.67C346.91 339.03 347.44 340.23 348.27 341.35C349.84 343.47 352.34 345.22 355.11 347.15C355.36 347.33 355.61 347.5 355.87 347.68C356.32 347.99 356.43 348.62 356.11 349.07C355.79 349.52 355.17 349.63 354.72 349.31C354.45 349.13 354.19 348.94 353.92 348.76C351.22 346.88 348.43 344.94 346.66 342.54C345.67 341.19 344.97 339.66 344.76 337.89C344.56 336.13 344.87 334.19 345.77 332.01C347.62 327.49 351.44 325.34 354.67 324.33C356.29 323.82 357.79 323.59 358.89 323.48C359.44 323.43 359.89 323.41 360.2 323.4C360.36 323.39 360.49 323.39 360.57 323.39C360.62 323.39 360.65 323.39 360.68 323.4L360.71 323.4L360.72 323.4L360.72 323.4L360.72 323.4C360.72 323.4 360.72 323.4 360.69 324.39L360.72 323.4C361.27 323.41 361.71 323.87 361.69 324.42C361.68 324.98 361.22 325.41 360.66 325.4C360.66 325.4 360.66 325.4 360.66 325.4L360.66 325.4C360.66 325.4 360.66 325.4 360.66 325.4L360.66 325.4L360.65 325.39C360.63 325.39 360.6 325.39 360.57 325.39C360.5 325.39 360.39 325.39 360.26 325.4C359.98 325.41 359.58 325.43 359.08 325.47C358.08 325.57 356.72 325.78 355.27 326.24Z" fill="#091757" fillOpacity="1.000000" fillRule="evenodd"/>
	<path id="Vector (Stroke)" d="M445.78 102.9L461.12 102.9L453.38 116.31L445.78 102.9ZM449.21 104.9L453.4 112.28L457.66 104.9L449.21 104.9Z" fill="#091757" fillOpacity="1.000000" fillRule="evenodd"/>
	<path id="Vector (Stroke)" d="M504.16 351.8L519.62 351.8L511.89 365.2L504.16 351.8ZM507.62 353.8L511.89 361.19L516.16 353.8L507.62 353.8Z" fill="#091757" fillOpacity="1.000000" fillRule="evenodd"/>
	<path id="Vector (Stroke)" d="M80.27 286.4L95.63 286.4L87.88 299.69L80.27 286.4ZM83.72 288.4L87.9 295.7L92.15 288.4L83.72 288.4Z" fill="#091757" fillOpacity="1.000000" fillRule="evenodd"/>
	<path id="Vector (Stroke)" d="M290.96 504.3L306.31 504.3L298.7 517.71L290.96 504.3ZM294.42 506.3L298.68 513.68L302.87 506.3L294.42 506.3Z" fill="#091757" fillOpacity="1.000000" fillRule="evenodd"/>
	<path id="Vector (Stroke)" d="M196.85 446.88C154.37 440.63 127.36 453.91 107.45 471.54C102.8 475.67 98.08 480.42 93.21 485.31C91.62 486.91 90.02 488.52 88.39 490.13C81.82 496.66 74.98 503.14 67.79 508.35C60.61 513.57 53.03 517.54 44.97 519C36.89 520.46 28.39 519.38 19.42 514.58C18.93 514.32 18.75 513.71 19.01 513.22C19.27 512.74 19.88 512.55 20.36 512.81C28.94 517.41 36.98 518.41 44.61 517.03C52.26 515.65 59.56 511.85 66.62 506.74C73.67 501.62 80.42 495.23 86.98 488.71C88.58 487.12 90.18 485.52 91.76 483.93C96.64 479.03 101.43 474.22 106.13 470.05L106.13 470.05C126.42 452.08 154.01 438.56 197.14 444.91C197.68 444.99 198.06 445.49 197.98 446.04C197.9 446.59 197.39 446.97 196.85 446.88Z" fill="#091757" fillOpacity="1.000000" fillRule="evenodd"/>
	<path id="Vector (Stroke)" d="M404.68 66.87C405.08 67.25 405.1 67.88 404.72 68.28C396.25 77.26 384.65 82.83 371.84 86.16C371.31 86.3 370.76 85.98 370.62 85.45C370.49 84.91 370.81 84.37 371.34 84.23C383.93 80.96 395.14 75.53 403.26 66.91C403.64 66.51 404.28 66.49 404.68 66.87Z" fill="#091757" fillOpacity="1.000000" fillRule="evenodd"/>
	<path id="Vector (Stroke)" d="M372.46 84.94C372.6 85.48 372.28 86.02 371.75 86.16C356.32 90.19 339.02 91.19 323.29 91.2C317.79 91.22 312.32 91.12 306.97 91.03L306.8 91.02C301.39 90.93 296.09 90.83 290.96 90.87C280.7 90.94 271.17 91.54 262.84 93.66C262.3 93.8 261.76 93.48 261.62 92.94C261.49 92.41 261.81 91.86 262.35 91.73C270.92 89.55 280.64 88.95 290.95 88.87C296.1 88.83 301.43 88.93 306.84 89.02L307 89.03C312.36 89.12 317.81 89.22 323.29 89.2L323.29 89.2C338.96 89.2 356.06 88.2 371.24 84.23C371.77 84.09 372.32 84.41 372.46 84.94Z" fill="#091757" fillOpacity="1.000000" fillRule="evenodd"/>
	<path id="Vector (Stroke)" d="M263.66 92.55C263.8 93.08 263.47 93.63 262.94 93.76C255.21 95.73 248.54 99.01 243.29 104.37C238.05 109.73 234.14 117.24 232.07 127.79L232.07 127.79C229.12 142.45 231.69 158.35 241.48 170.88C241.82 171.32 241.74 171.94 241.31 172.28C240.87 172.62 240.24 172.55 239.9 172.11C229.7 159.05 227.06 142.54 230.11 127.4C232.24 116.55 236.29 108.66 241.87 102.97C247.44 97.28 254.47 93.86 262.45 91.83C262.98 91.69 263.52 92.01 263.66 92.55Z" fill="#091757" fillOpacity="1.000000" fillRule="evenodd"/>
	<path id="Vector (Stroke)" d="M240.07 170.61C240.51 170.27 241.14 170.34 241.48 170.78C250.19 181.84 264.63 190.43 286.23 193.51L286.24 193.51C299.24 195.39 313.86 195.3 329.34 194.5C329.89 194.47 330.36 194.89 330.39 195.44C330.42 196 330 196.47 329.44 196.49C313.93 197.3 299.15 197.4 285.95 195.49C263.95 192.36 249 183.55 239.91 172.01C239.56 171.58 239.64 170.95 240.07 170.61Z" fill="#091757" fillOpacity="1.000000" fillRule="evenodd"/>
	<path id="Vector (Stroke)" d="M351.12 193.23C372.89 191.84 395.75 190.38 417.97 192.1C418.52 192.14 418.93 192.62 418.89 193.17C418.85 193.72 418.37 194.14 417.81 194.09C395.75 192.38 373.1 193.83 351.37 195.22C343.93 195.69 336.6 196.16 329.44 196.49C328.89 196.52 328.42 196.09 328.39 195.54C328.37 194.99 328.79 194.52 329.35 194.5C336.43 194.17 343.71 193.7 351.12 193.23Z" fill="#091757" fillOpacity="1.000000" fillRule="evenodd"/>
	<path id="Vector (Stroke)" d="M416.9 193.02C416.94 192.47 417.42 192.06 417.97 192.1C452.32 194.81 485.32 205.17 510.66 235.15C511.01 235.57 510.96 236.2 510.54 236.56C510.12 236.92 509.48 236.86 509.13 236.44C484.26 207.02 451.86 196.78 417.81 194.09C417.26 194.05 416.85 193.57 416.9 193.02Z" fill="#091757" fillOpacity="1.000000" fillRule="evenodd"/>
	<path id="Vector (Stroke)" d="M536.94 287.13C537.47 286.99 538.02 287.31 538.16 287.84C549.65 331.9 537.84 380.44 501.23 420.27C442.74 483.99 356.44 477.08 305.4 467.28C304.86 467.17 304.51 466.65 304.61 466.11C304.71 465.56 305.24 465.21 305.78 465.31C356.75 475.11 442.04 481.8 499.76 418.92L499.76 418.92C535.95 379.55 547.53 331.69 536.22 288.35C536.08 287.81 536.4 287.27 536.94 287.13Z" fill="#091757" fillOpacity="1.000000" fillRule="evenodd"/>
	<path id="Vector (Stroke)" d="M270.42 458.48C270.54 457.94 271.07 457.6 271.61 457.72C273.64 458.17 275.97 458.74 278.61 459.38C283.61 460.6 289.68 462.07 296.69 463.52C297.23 463.63 297.58 464.16 297.47 464.7C297.36 465.24 296.83 465.59 296.29 465.47C289.26 464.03 283.09 462.53 278.06 461.31C275.44 460.67 273.13 460.11 271.17 459.67C270.63 459.55 270.29 459.02 270.42 458.48Z" fill="#091757" fillOpacity="1.000000" fillRule="evenodd"/>
	<path id="Vector (Stroke)" d="M465.39 240.3C465.39 237.44 467.64 235.2 470.49 235.2L537.39 235.2C540.13 235.2 542.49 237.43 542.49 240.3L542.49 283.5C542.49 286.35 540.24 288.6 537.39 288.6L503.71 288.6L485.2 307.1C484.91 307.39 484.48 307.47 484.11 307.32C483.74 307.16 483.49 306.8 483.49 306.4L483.49 288.6L470.49 288.6C467.64 288.6 465.39 286.35 465.39 283.5L465.39 240.3ZM470.49 237.2C468.74 237.2 467.39 238.55 467.39 240.3L467.39 283.5C467.39 285.24 468.74 286.6 470.49 286.6L484.49 286.6C485.04 286.6 485.49 287.04 485.49 287.6L485.49 303.98L502.58 286.89C502.77 286.7 503.03 286.6 503.29 286.6L537.39 286.6C539.14 286.6 540.49 285.24 540.49 283.5L540.49 240.3C540.49 238.56 539.06 237.2 537.39 237.2L470.49 237.2Z" fill="#091757" fillOpacity="1.000000" fillRule="evenodd"/>
	<path id="Vector (Stroke)" d="M493.3 270.17C492.68 270.63 492.39 271.18 492.39 271.7C492.39 272.21 492.68 272.76 493.3 273.22C493.93 273.68 494.84 274 495.89 274C496.94 274 497.86 273.68 498.48 273.22C499.11 272.76 499.39 272.21 499.39 271.7C499.39 271.18 499.11 270.63 498.48 270.17C497.86 269.71 496.94 269.4 495.89 269.4C494.84 269.4 493.93 269.71 493.3 270.17ZM492.12 268.56C493.12 267.82 494.46 267.4 495.89 267.4C497.32 267.4 498.66 267.82 499.67 268.56C500.67 269.29 501.39 270.39 501.39 271.7C501.39 273 500.67 274.1 499.67 274.84C498.66 275.57 497.32 276 495.89 276C494.46 276 493.12 275.57 492.12 274.84C491.12 274.1 490.39 273 490.39 271.7C490.39 270.39 491.12 269.29 492.12 268.56Z" fill="#091757" fillOpacity="1.000000" fillRule="evenodd"/>
	<path id="Vector (Stroke)" d="M509.3 266.97C508.68 267.43 508.39 267.98 508.39 268.5C508.39 269.01 508.68 269.56 509.3 270.02C509.93 270.48 510.84 270.79 511.89 270.79C512.94 270.79 513.86 270.48 514.48 270.02C515.11 269.56 515.39 269.01 515.39 268.5C515.39 267.98 515.11 267.43 514.48 266.97C513.86 266.51 512.94 266.2 511.89 266.2C510.84 266.2 509.93 266.51 509.3 266.97ZM508.12 265.35C509.12 264.62 510.46 264.2 511.89 264.2C513.32 264.2 514.66 264.62 515.67 265.35C516.67 266.09 517.39 267.19 517.39 268.5C517.39 269.8 516.67 270.9 515.67 271.64C514.66 272.37 513.32 272.79 511.89 272.79C510.46 272.79 509.12 272.37 508.12 271.64C507.12 270.9 506.39 269.8 506.39 268.5C506.39 267.19 507.12 266.09 508.12 265.35Z" fill="#091757" fillOpacity="1.000000" fillRule="evenodd"/>
	<path id="Vector (Stroke)" d="M517.02 247.22C517.26 247.41 517.39 247.69 517.39 248L517.39 268.5C517.39 269.05 516.94 269.5 516.39 269.5C515.84 269.5 515.39 269.05 515.39 268.5L515.39 249.22L501.49 252.11L501.49 271.79C501.49 272.35 501.04 272.79 500.49 272.79C499.94 272.79 499.49 272.35 499.49 271.79L499.49 251.3C499.49 250.82 499.82 250.41 500.29 250.32L516.19 247.02C516.48 246.96 516.79 247.03 517.02 247.22Z" fill="#091757" fillOpacity="1.000000" fillRule="evenodd"/>
	<path id="Vector (Stroke)" d="M517.37 253.59C517.48 254.13 517.14 254.66 516.59 254.77L500.7 258.07C500.15 258.19 499.63 257.84 499.51 257.3C499.4 256.76 499.75 256.23 500.29 256.12L516.19 252.82C516.73 252.7 517.26 253.05 517.37 253.59Z" fill="#091757" fillOpacity="1.000000" fillRule="evenodd"/>
	<path id="Vector" d="M407.79 24.7C400.59 24.7 394.69 30.6 394.69 37.79C394.69 49.1 407.29 58 407.79 58.5C407.79 58.5 420.89 48.29 420.89 37.79C420.89 30.5 415.09 24.7 407.79 24.7ZM407.79 43.2C404.69 43.2 402.09 40.59 402.09 37.5C402.09 34.39 404.69 31.79 407.79 31.79C410.89 31.79 413.49 34.39 413.49 37.5C413.49 40.59 410.99 43.2 407.79 43.2Z" fill="#091757" fillOpacity="1.000000" fillRule="nonzero"/>
	<path id="Vector (Stroke)" d="M393.69 37.79C393.69 30.04 400.04 23.7 407.79 23.7C415.64 23.7 421.89 29.94 421.89 37.79C421.89 43.42 418.41 48.83 415.1 52.73C413.43 54.7 411.76 56.34 410.51 57.48C409.89 58.05 409.36 58.5 409 58.8C408.81 58.96 408.67 59.08 408.57 59.16C408.52 59.2 408.48 59.23 408.45 59.25L408.42 59.27L408.41 59.28L408.41 59.28C408.41 59.28 408.41 59.28 407.79 58.5L408.41 59.28L407.71 59.83L407.09 59.2C407.09 59.21 407.09 59.21 407.07 59.19C407.05 59.17 407.01 59.14 406.94 59.09C406.9 59.05 406.84 59.01 406.78 58.96C406.69 58.89 406.58 58.8 406.46 58.71C406.06 58.39 405.52 57.95 404.88 57.4C403.6 56.29 401.95 54.75 400.3 52.85C397.03 49.09 393.69 43.81 393.69 37.79ZM407.79 57.21C408.13 56.92 408.6 56.51 409.16 56C410.37 54.9 411.98 53.33 413.58 51.44C416.82 47.61 419.89 42.67 419.89 37.79C419.89 31.05 414.54 25.7 407.79 25.7C401.14 25.7 395.69 31.15 395.69 37.79C395.69 43.08 398.65 47.9 401.81 51.54C403.38 53.34 404.96 54.82 406.19 55.88C406.8 56.41 407.32 56.84 407.71 57.14C407.74 57.17 407.76 57.19 407.79 57.21ZM407.79 32.79C405.24 32.79 403.09 34.95 403.09 37.5C403.09 40.04 405.24 42.2 407.79 42.2C410.43 42.2 412.49 40.05 412.49 37.5C412.49 34.95 410.34 32.79 407.79 32.79ZM401.09 37.5C401.09 33.84 404.14 30.79 407.79 30.79C411.44 30.79 414.49 33.84 414.49 37.5C414.49 41.14 411.56 44.2 407.79 44.2C404.14 44.2 401.09 41.15 401.09 37.5Z" fill="#091757" fillOpacity="1.000000" fillRule="evenodd"/>
	<path id="Vector (Stroke)" d="M407.79 62.1C405.91 62.1 404.39 63.62 404.39 65.5C404.39 67.37 405.91 68.9 407.79 68.9C409.67 68.9 411.19 67.37 411.19 65.5C411.19 63.62 409.67 62.1 407.79 62.1ZM402.39 65.5C402.39 62.51 404.81 60.1 407.79 60.1C410.77 60.1 413.19 62.51 413.19 65.5C413.19 68.48 410.77 70.9 407.79 70.9C404.81 70.9 402.39 68.48 402.39 65.5Z" fill="#091757" fillOpacity="1.000000" fillRule="evenodd"/>
	<path id="Vector" d="M301.19 423.9C293.99 423.9 288.09 429.8 288.09 437C288.09 448.3 300.69 457.2 301.19 457.7C301.19 457.7 314.29 447.5 314.29 437C314.29 429.8 308.39 423.9 301.19 423.9ZM301.19 442.4C298.09 442.4 295.49 439.8 295.49 436.7C295.49 433.6 298.09 431 301.19 431C304.29 431 306.89 433.6 306.89 436.7C306.89 439.9 304.29 442.4 301.19 442.4Z" fill="#091757" fillOpacity="1.000000" fillRule="nonzero"/>
	<path id="Vector (Stroke)" d="M287.09 437C287.09 429.24 293.44 422.9 301.19 422.9C308.94 422.9 315.29 429.24 315.29 437C315.29 442.62 311.81 448.03 308.5 451.93C306.83 453.9 305.16 455.54 303.91 456.68C303.29 457.25 302.76 457.7 302.4 458C302.21 458.16 302.07 458.28 301.97 458.36C301.92 458.4 301.88 458.43 301.85 458.45L301.82 458.47L301.81 458.48L301.81 458.48L301.81 458.48C301.81 458.48 301.81 458.48 301.19 457.7L301.81 458.48L301.11 459.03L300.48 458.4C300.49 458.41 300.49 458.41 300.47 458.39C300.45 458.37 300.41 458.34 300.34 458.29C300.3 458.25 300.24 458.21 300.18 458.16C300.09 458.09 299.98 458 299.86 457.91C299.46 457.59 298.92 457.15 298.28 456.6C297 455.49 295.35 453.95 293.7 452.05C290.43 448.29 287.09 443.01 287.09 437ZM301.19 456.41C301.53 456.12 302 455.71 302.57 455.2C303.77 454.1 305.38 452.53 306.98 450.64C310.22 446.81 313.29 441.87 313.29 437C313.29 430.35 307.84 424.9 301.19 424.9C294.54 424.9 289.09 430.35 289.09 437C289.09 442.28 292.05 447.1 295.21 450.74C296.78 452.54 298.36 454.02 299.59 455.08C300.2 455.61 300.72 456.04 301.11 456.34C301.14 456.37 301.16 456.39 301.19 456.41ZM301.19 432C298.64 432 296.49 434.15 296.49 436.7C296.49 439.24 298.64 441.4 301.19 441.4C303.75 441.4 305.89 439.33 305.89 436.7C305.89 434.15 303.74 432 301.19 432ZM294.49 436.7C294.49 433.04 297.54 430 301.19 430C304.84 430 307.89 433.04 307.89 436.7C307.89 440.46 304.83 443.4 301.19 443.4C297.54 443.4 294.49 440.35 294.49 436.7Z" fill="#091757" fillOpacity="1.000000" fillRule="evenodd"/>
	<path id="Vector (Stroke)" d="M301.19 461.3C299.31 461.3 297.79 462.82 297.79 464.7C297.79 466.57 299.31 468.1 301.19 468.1C303.07 468.1 304.59 466.57 304.59 464.7C304.59 462.82 303.07 461.3 301.19 461.3ZM295.79 464.7C295.79 461.71 298.21 459.3 301.19 459.3C304.17 459.3 306.59 461.71 306.59 464.7C306.59 467.68 304.17 470.1 301.19 470.1C298.21 470.1 295.79 467.68 295.79 464.7Z" fill="#091757" fillOpacity="1.000000" fillRule="evenodd"/>
	<path id="Vector (Stroke)" d="M334.79 418C335.33 417.94 335.83 418.34 335.89 418.89C337.04 429.6 338.11 442.69 338.9 453.09C339.3 458.3 339.62 462.83 339.84 466.06C339.95 467.68 340.04 468.97 340.1 469.86C340.13 470.3 340.15 470.65 340.17 470.88L340.19 471.23C340.19 471.23 340.19 471.23 339.19 471.3C338.19 471.36 338.19 471.36 338.19 471.36L338.17 471.01C338.16 470.78 338.13 470.44 338.1 469.99C338.04 469.11 337.96 467.82 337.85 466.2C337.62 462.97 337.3 458.44 336.91 453.25C336.12 442.85 335.05 429.79 333.9 419.1C333.84 418.55 334.24 418.06 334.79 418ZM339.26 472.29C338.71 472.33 338.23 471.91 338.19 471.36L339.19 471.3L340.19 471.23C340.23 471.78 339.81 472.26 339.26 472.29Z" fill="#091757" fillOpacity="1.000000" fillRule="evenodd"/>
	<path id="Vector (Stroke)" d="M368.74 438.23C369.11 438.64 369.07 439.27 368.66 439.64C364.24 443.58 357.76 444.82 351.76 444.85C345.73 444.87 339.97 443.68 336.76 442.54C336.24 442.35 335.96 441.78 336.15 441.26C336.33 440.74 336.91 440.47 337.43 440.65C340.42 441.71 345.95 442.87 351.75 442.85C357.58 442.82 363.45 441.61 367.33 438.15C367.74 437.78 368.37 437.82 368.74 438.23Z" fill="#091757" fillOpacity="1.000000" fillRule="evenodd"/>
	<path id="Vector" d="M386.39 375.6C391.69 376.6 399.39 370.4 406.09 365.3C412.79 360.2 417.49 358.7 417.49 358.7L420.19 358.3L430.79 362.8C430.79 362.8 449.29 370.6 457.69 398.8C466.09 427 465.09 445.4 465.09 445.4L465.09 447.4L447.19 458.6L417.09 467.2L388.99 471.6L370.39 471.6L367.39 430.9C367.39 430.9 368.29 422 365.99 406.1C363.59 390.2 362.39 384.9 358.39 377.5C354.39 370.1 349.49 362.8 347.59 360.7C345.69 358.6 342.49 356.5 342.49 356.5C342.49 356.5 347.29 350.8 352.99 349.4C358.69 348 361.19 349.5 366.69 348.9C372.19 348.3 375.99 347.5 378.79 345.7L377.39 352.4C376.79 356.4 376.39 361.6 377.29 365C378.19 368.4 380.49 374.5 386.39 375.6Z" fill="#091757" fillOpacity="1.000000" fillRule="nonzero"/>
	<path id="Vector" d="M255.59 244C262.29 240.6 286.69 227.5 303.19 230.8C319.69 234.1 327.29 247 327.89 258.6C328.49 270.2 324.79 277.7 324.79 277.7C324.79 277.7 318.09 276.7 313.09 270.79C307.99 265 301.99 254.7 301.99 254.7L300.99 253.3C300.99 253.3 297.99 254.8 288.59 256.5C279.09 258.1 268.49 255.9 264.79 254C261.09 252.1 257.89 247.5 257.39 246.8C256.89 246.1 255.59 244 255.59 244Z" fill="#091757" fillOpacity="1.000000" fillRule="nonzero"/>
	<path id="Vector" d="M38.09 381.4L53.09 367.8C53.09 367.8 49.99 364.7 46.49 359.9C42.99 355.1 42.19 354.8 42.19 354.8L41.49 353.5L28.29 363.5L36.99 380.4L38.09 381.4Z" fill="#091757" fillOpacity="1.000000" fillRule="nonzero"/>
	<path id="Vector" d="M199.89 344.4C199.89 344.4 203.19 347.8 205.89 349.3C208.59 350.8 212.69 352.4 212.69 352.4L203.79 362L192.49 374L182.69 362.9L178.19 357.8C178.19 357.8 184.09 357.5 188.49 354.7C196.19 349.7 199.89 344.4 199.89 344.4Z" fill="#091757" fillOpacity="1.000000" fillRule="nonzero"/>
	<path id="Vector" d="M166.99 372.6L175.79 360.4L176.49 358.3C176.49 358.3 170.39 358.9 165.19 356.2C159.99 353.6 157.59 350.8 157.59 350.8C157.59 350.8 155.39 354.1 154.09 355.7C152.79 357.3 150.39 360.2 150.39 360.2L166.99 372.6Z" fill="#091757" fillOpacity="1.000000" fillRule="nonzero"/>
	<path id="Vector (Stroke)" d="M438.89 434.3C433.31 434.3 428.79 438.82 428.79 444.4C428.79 449.97 433.31 454.5 438.89 454.5C444.47 454.5 448.99 449.97 448.99 444.4C448.99 438.82 444.47 434.3 438.89 434.3ZM426.79 444.4C426.79 437.71 432.21 432.3 438.89 432.3C445.57 432.3 450.99 437.71 450.99 444.4C450.99 451.08 445.57 456.5 438.89 456.5C432.21 456.5 426.79 451.08 426.79 444.4Z" fill="#F6F5F7" fillOpacity="1.000000" fillRule="evenodd"/>
	<path id="Vector (Stroke)" d="M397.59 445.8C392.01 445.8 387.49 450.32 387.49 455.9C387.49 461.47 392.01 466 397.59 466C403.17 466 407.69 461.47 407.69 455.9C407.69 450.32 403.17 445.8 397.59 445.8ZM385.49 455.9C385.49 449.21 390.91 443.8 397.59 443.8C404.27 443.8 409.69 449.21 409.69 455.9C409.69 462.58 404.27 468 397.59 468C390.91 468 385.49 462.58 385.49 455.9Z" fill="#F6F5F7" fillOpacity="1.000000" fillRule="evenodd"/>
	<path id="Vector (Stroke)" d="M420.35 422.33C420.77 421.97 421.4 422.03 421.76 422.45L439.66 443.75C440.01 444.17 439.96 444.81 439.54 445.16C439.11 445.52 438.48 445.46 438.13 445.04L420.23 423.74C419.87 423.32 419.93 422.69 420.35 422.33Z" fill="#F6F5F7" fillOpacity="1.000000" fillRule="evenodd"/>
	<path id="Vector (Stroke)" d="M399.65 428.03C400.07 427.67 400.7 427.73 401.06 428.15L418.96 449.45C419.31 449.87 419.26 450.51 418.84 450.86C418.41 451.22 417.78 451.16 417.43 450.74L399.53 429.44C399.17 429.02 399.23 428.39 399.65 428.03Z" fill="#F6F5F7" fillOpacity="1.000000" fillRule="evenodd"/>
	<path id="Vector (Stroke)" d="M427.34 429.13C427.59 429.42 427.66 429.82 427.52 430.18L419.12 450.48C418.9 450.99 418.32 451.23 417.81 451.02C417.3 450.81 417.06 450.22 417.27 449.71L424.89 431.31L406.26 436.46C405.73 436.61 405.18 436.29 405.03 435.76C404.88 435.23 405.19 434.68 405.73 434.53L426.33 428.83C426.69 428.73 427.09 428.85 427.34 429.13Z" fill="#F6F5F7" fillOpacity="1.000000" fillRule="evenodd"/>
	<path id="Vector (Stroke)" d="M406.38 434.57C406.89 434.78 407.13 435.37 406.92 435.88L398.42 456.28C398.2 456.79 397.62 457.03 397.11 456.82C396.6 456.61 396.36 456.02 396.57 455.51L405.07 435.11C405.28 434.6 405.87 434.36 406.38 434.57Z" fill="#F6F5F7" fillOpacity="1.000000" fillRule="evenodd"/>
	<path id="Vector (Stroke)" d="M419.16 449.83C419.3 450.36 418.99 450.91 418.46 451.06L398.06 456.76C397.53 456.91 396.98 456.6 396.83 456.06C396.68 455.53 396.99 454.98 397.52 454.83L417.92 449.13C418.45 448.98 419.01 449.29 419.16 449.83Z" fill="#F6F5F7" fillOpacity="1.000000" fillRule="evenodd"/>
	<path id="Vector (Stroke)" d="M405.46 426.83C405.6 427.36 405.29 427.91 404.76 428.06L394.26 430.96C393.73 431.11 393.18 430.79 393.03 430.26C392.88 429.73 393.19 429.18 393.73 429.03L404.23 426.13C404.76 425.98 405.31 426.3 405.46 426.83Z" fill="#F6F5F7" fillOpacity="1.000000" fillRule="evenodd"/>
	<path id="Vector (Stroke)" d="M427.25 415.23C427.78 415.37 428.1 415.92 427.96 416.45C427.07 419.8 424.4 422.56 420.86 423.56C417.31 424.56 413.65 423.56 411.1 421.12C410.7 420.74 410.69 420.1 411.07 419.7C411.45 419.31 412.08 419.29 412.48 419.67C414.53 421.64 417.47 422.43 420.32 421.63C423.18 420.83 425.32 418.59 426.03 415.94C426.17 415.4 426.72 415.09 427.25 415.23Z" fill="#F6F5F7" fillOpacity="1.000000" fillRule="evenodd"/>
	<path id="Vector (Stroke)" d="M182.39 27.4C182.39 12.24 194.64 0 209.79 0C224.94 0 237.19 12.24 237.19 27.4C237.19 33.91 234.55 39.75 233.69 41.63C233.56 41.92 233.47 42.12 233.44 42.21L233.42 42.27L233.39 42.33C230.95 47.37 227.13 52.98 223.95 57.3C222.35 59.47 220.91 61.33 219.86 62.64C219.34 63.3 218.91 63.82 218.62 64.18C218.47 64.36 218.36 64.5 218.28 64.59L218.19 64.7L218.16 64.73L218.16 64.74C218.16 64.74 218.16 64.74 217.39 64.1L218.16 64.74L217.86 65.1L201.81 65.1L201.51 64.71L202.29 64.1C201.51 64.71 201.51 64.71 201.51 64.71L201.51 64.71L201.47 64.67L201.38 64.55C201.29 64.44 201.17 64.28 201.01 64.08C200.7 63.67 200.24 63.07 199.68 62.33C198.56 60.83 197.01 58.73 195.3 56.29C191.89 51.43 187.83 45.2 185.29 39.82L185.28 39.81C183.54 36.01 182.39 31.87 182.39 27.4ZM202.78 63.1L216.92 63.1C216.97 63.04 217.02 62.98 217.07 62.91C217.36 62.56 217.78 62.05 218.29 61.4C219.33 60.1 220.76 58.26 222.34 56.11C225.49 51.83 229.21 46.36 231.57 41.51C231.64 41.32 231.77 41.02 231.94 40.64C232.91 38.45 235.19 33.31 235.19 27.4C235.19 13.35 223.84 2 209.79 2C195.74 2 184.39 13.35 184.39 27.4C184.39 31.52 185.45 35.37 187.1 38.97C189.56 44.19 193.54 50.31 196.94 55.15C198.63 57.56 200.16 59.64 201.28 61.13C201.84 61.87 202.29 62.45 202.6 62.86C202.67 62.95 202.73 63.03 202.78 63.1Z" fill="#091757" fillOpacity="1.000000" fillRule="evenodd"/>
	<path id="Vector (Stroke)" d="M211.9 0.84C212.16 0.35 212.76 0.15 213.25 0.41C220.71 4.24 225.79 14.79 225.79 26.8C225.79 34.02 223.66 40.3 223.2 41.65C223.17 41.71 223.16 41.77 223.14 41.81C221.47 46.92 218.9 52.62 216.75 57.02C215.68 59.23 214.71 61.11 214.01 62.45C213.66 63.12 213.37 63.65 213.17 64.01C213.08 64.2 213 64.34 212.95 64.43L212.89 64.54L212.87 64.57L212.87 64.58C212.87 64.58 212.87 64.58 211.99 64.1L211.12 63.61L211.14 63.58L211.19 63.47C211.24 63.38 211.32 63.24 211.41 63.06C211.61 62.7 211.89 62.18 212.24 61.52C212.93 60.2 213.89 58.33 214.96 56.14C217.09 51.77 219.61 46.17 221.24 41.18L221.24 41.18C221.26 41.14 221.28 41.08 221.3 41.02C221.75 39.69 223.79 33.68 223.79 26.8C223.79 15.2 218.87 5.55 212.33 2.18C211.84 1.93 211.65 1.33 211.9 0.84ZM211.99 64.1L211.12 63.61C210.85 64.1 211.03 64.7 211.51 64.97C211.99 65.24 212.6 65.06 212.87 64.58L211.99 64.1Z" fill="#091757" fillOpacity="1.000000" fillRule="evenodd"/>
	<path id="Vector (Stroke)" d="M207.58 0.84C207.83 1.33 207.64 1.93 207.15 2.18C200.61 5.55 195.69 15.2 195.69 26.8C195.69 33.68 197.74 39.69 198.19 41.02C198.21 41.08 198.23 41.14 198.24 41.18L198.24 41.18C199.87 46.17 202.4 51.77 204.53 56.14C205.59 58.33 206.55 60.2 207.25 61.52C207.59 62.18 207.88 62.7 208.07 63.06C208.17 63.24 208.24 63.38 208.29 63.47L208.35 63.58L208.37 63.61L207.49 64.1C206.62 64.58 206.62 64.58 206.62 64.58L206.61 64.57L206.6 64.54L206.54 64.43C206.48 64.34 206.41 64.2 206.31 64.01C206.11 63.65 205.83 63.12 205.48 62.45C204.77 61.11 203.8 59.23 202.73 57.02C200.59 52.62 198.01 46.92 196.34 41.81C196.33 41.77 196.31 41.71 196.29 41.65C195.83 40.3 193.69 34.02 193.69 26.8C193.69 14.79 198.77 4.24 206.23 0.41C206.73 0.15 207.33 0.35 207.58 0.84ZM207.98 64.97C207.49 65.24 206.88 65.06 206.62 64.58L207.49 64.1L208.37 63.61C208.63 64.1 208.46 64.7 207.98 64.97Z" fill="#091757" fillOpacity="1.000000" fillRule="evenodd"/>
	<path id="Vector (Stroke)" d="M201.19 71.69L218.29 71.69L218.29 77.89C218.29 82.46 214.54 86.2 209.89 86.2L209.49 86.2C204.83 86.2 201.19 82.44 201.19 77.89L201.19 71.69ZM203.19 73.69L203.19 77.89C203.19 81.35 205.95 84.2 209.49 84.2L209.89 84.2C213.45 84.2 216.29 81.33 216.29 77.89L216.29 73.69L203.19 73.69Z" fill="#091757" fillOpacity="1.000000" fillRule="evenodd"/>
	<path id="Vector (Stroke)" d="M202.19 63.1C202.74 63.1 203.19 63.54 203.19 64.1L203.19 72.69C203.19 73.25 202.74 73.69 202.19 73.69C201.64 73.69 201.19 73.25 201.19 72.69L201.19 64.1C201.19 63.54 201.64 63.1 202.19 63.1Z" fill="#091757" fillOpacity="1.000000" fillRule="evenodd"/>
	<path id="Vector (Stroke)" d="M217.29 63.1C217.84 63.1 218.29 63.54 218.29 64.1L218.29 72.69C218.29 73.25 217.84 73.69 217.29 73.69C216.74 73.69 216.29 73.25 216.29 72.69L216.29 64.1C216.29 63.54 216.74 63.1 217.29 63.1Z" fill="#091757" fillOpacity="1.000000" fillRule="evenodd"/>
</svg>
